<?xml version="1.0" encoding="utf-8" standalone="no"?>
<!DOCTYPE svg PUBLIC "-//W3C//DTD SVG 1.1//EN"
  "http://www.w3.org/Graphics/SVG/1.1/DTD/svg11.dtd">
<svg xmlns:xlink="http://www.w3.org/1999/xlink" width="1080pt" height="504pt" viewBox="0 0 1080 504" xmlns="http://www.w3.org/2000/svg" version="1.1">
 <metadata>
  <rdf:RDF xmlns:dc="http://purl.org/dc/elements/1.1/" xmlns:cc="http://creativecommons.org/ns#" xmlns:rdf="http://www.w3.org/1999/02/22-rdf-syntax-ns#">
   <cc:Work>
    <dc:type rdf:resource="http://purl.org/dc/dcmitype/StillImage"/>
    <dc:date>2025-11-30T17:26:36.232419</dc:date>
    <dc:format>image/svg+xml</dc:format>
    <dc:creator>
     <cc:Agent>
      <dc:title>Matplotlib v3.10.7, https://matplotlib.org/</dc:title>
     </cc:Agent>
    </dc:creator>
   </cc:Work>
  </rdf:RDF>
 </metadata>
 <defs>
  <style type="text/css">*{stroke-linejoin: round; stroke-linecap: butt}</style>
 </defs>
 <g id="figure_1">
  <g id="patch_1">
   <path d="M 0 504 
L 1080 504 
L 1080 0 
L 0 0 
z
" style="fill: #ffffff"/>
  </g>
  <g id="axes_1">
   <g id="patch_2">
    <path d="M 135 448.56 
L 972 448.56 
L 972 60.48 
L 135 60.48 
z
" style="fill: #ffffff"/>
   </g>
   <g id="matplotlib.axis_1">
    <g id="xtick_1">
     <g id="line2d_1">
      <path d="M 173.045455 448.56 
L 173.045455 60.48 
" clip-path="url(#p9656de3f34)" style="fill: none; stroke: #b0b0b0; stroke-width: 0.8; stroke-linecap: square"/>
     </g>
     <g id="line2d_2">
      <defs>
       <path id="mcd5759e09d" d="M 0 0 
L 0 3.5 
" style="stroke: #000000; stroke-width: 0.8"/>
      </defs>
      <g>
       <use xlink:href="#mcd5759e09d" x="173.045455" y="448.56" style="stroke: #000000; stroke-width: 0.8"/>
      </g>
     </g>
     <g id="text_1">
      <!-- 2025-07-14 -->
      <g transform="translate(143.987642 463.158437) scale(0.1 -0.1)">
       <defs>
        <path id="DejaVuSans-32" d="M 1228 531 
L 3431 531 
L 3431 0 
L 469 0 
L 469 531 
Q 828 903 1448 1529 
Q 2069 2156 2228 2338 
Q 2531 2678 2651 2914 
Q 2772 3150 2772 3378 
Q 2772 3750 2511 3984 
Q 2250 4219 1831 4219 
Q 1534 4219 1204 4116 
Q 875 4013 500 3803 
L 500 4441 
Q 881 4594 1212 4672 
Q 1544 4750 1819 4750 
Q 2544 4750 2975 4387 
Q 3406 4025 3406 3419 
Q 3406 3131 3298 2873 
Q 3191 2616 2906 2266 
Q 2828 2175 2409 1742 
Q 1991 1309 1228 531 
z
" transform="scale(0.015625)"/>
        <path id="DejaVuSans-30" d="M 2034 4250 
Q 1547 4250 1301 3770 
Q 1056 3291 1056 2328 
Q 1056 1369 1301 889 
Q 1547 409 2034 409 
Q 2525 409 2770 889 
Q 3016 1369 3016 2328 
Q 3016 3291 2770 3770 
Q 2525 4250 2034 4250 
z
M 2034 4750 
Q 2819 4750 3233 4129 
Q 3647 3509 3647 2328 
Q 3647 1150 3233 529 
Q 2819 -91 2034 -91 
Q 1250 -91 836 529 
Q 422 1150 422 2328 
Q 422 3509 836 4129 
Q 1250 4750 2034 4750 
z
" transform="scale(0.015625)"/>
        <path id="DejaVuSans-35" d="M 691 4666 
L 3169 4666 
L 3169 4134 
L 1269 4134 
L 1269 2991 
Q 1406 3038 1543 3061 
Q 1681 3084 1819 3084 
Q 2600 3084 3056 2656 
Q 3513 2228 3513 1497 
Q 3513 744 3044 326 
Q 2575 -91 1722 -91 
Q 1428 -91 1123 -41 
Q 819 9 494 109 
L 494 744 
Q 775 591 1075 516 
Q 1375 441 1709 441 
Q 2250 441 2565 725 
Q 2881 1009 2881 1497 
Q 2881 1984 2565 2268 
Q 2250 2553 1709 2553 
Q 1456 2553 1204 2497 
Q 953 2441 691 2322 
L 691 4666 
z
" transform="scale(0.015625)"/>
        <path id="DejaVuSans-2d" d="M 313 2009 
L 1997 2009 
L 1997 1497 
L 313 1497 
L 313 2009 
z
" transform="scale(0.015625)"/>
        <path id="DejaVuSans-37" d="M 525 4666 
L 3525 4666 
L 3525 4397 
L 1831 0 
L 1172 0 
L 2766 4134 
L 525 4134 
L 525 4666 
z
" transform="scale(0.015625)"/>
        <path id="DejaVuSans-31" d="M 794 531 
L 1825 531 
L 1825 4091 
L 703 3866 
L 703 4441 
L 1819 4666 
L 2450 4666 
L 2450 531 
L 3481 531 
L 3481 0 
L 794 0 
L 794 531 
z
" transform="scale(0.015625)"/>
        <path id="DejaVuSans-34" d="M 2419 4116 
L 825 1625 
L 2419 1625 
L 2419 4116 
z
M 2253 4666 
L 3047 4666 
L 3047 1625 
L 3713 1625 
L 3713 1100 
L 3047 1100 
L 3047 0 
L 2419 0 
L 2419 1100 
L 313 1100 
L 313 1709 
L 2253 4666 
z
" transform="scale(0.015625)"/>
       </defs>
       <use xlink:href="#DejaVuSans-32"/>
       <use xlink:href="#DejaVuSans-30" transform="translate(63.623047 0)"/>
       <use xlink:href="#DejaVuSans-32" transform="translate(127.246094 0)"/>
       <use xlink:href="#DejaVuSans-35" transform="translate(190.869141 0)"/>
       <use xlink:href="#DejaVuSans-2d" transform="translate(254.492188 0)"/>
       <use xlink:href="#DejaVuSans-30" transform="translate(290.576172 0)"/>
       <use xlink:href="#DejaVuSans-37" transform="translate(354.199219 0)"/>
       <use xlink:href="#DejaVuSans-2d" transform="translate(417.822266 0)"/>
       <use xlink:href="#DejaVuSans-31" transform="translate(453.90625 0)"/>
       <use xlink:href="#DejaVuSans-34" transform="translate(517.529297 0)"/>
      </g>
     </g>
    </g>
    <g id="xtick_2">
     <g id="line2d_3">
      <path d="M 270.304511 448.56 
L 270.304511 60.48 
" clip-path="url(#p9656de3f34)" style="fill: none; stroke: #b0b0b0; stroke-width: 0.8; stroke-linecap: square"/>
     </g>
     <g id="line2d_4">
      <g>
       <use xlink:href="#mcd5759e09d" x="270.304511" y="448.56" style="stroke: #000000; stroke-width: 0.8"/>
      </g>
     </g>
     <g id="text_2">
      <!-- 2025-07-31 -->
      <g transform="translate(241.246699 463.158437) scale(0.1 -0.1)">
       <defs>
        <path id="DejaVuSans-33" d="M 2597 2516 
Q 3050 2419 3304 2112 
Q 3559 1806 3559 1356 
Q 3559 666 3084 287 
Q 2609 -91 1734 -91 
Q 1441 -91 1130 -33 
Q 819 25 488 141 
L 488 750 
Q 750 597 1062 519 
Q 1375 441 1716 441 
Q 2309 441 2620 675 
Q 2931 909 2931 1356 
Q 2931 1769 2642 2001 
Q 2353 2234 1838 2234 
L 1294 2234 
L 1294 2753 
L 1863 2753 
Q 2328 2753 2575 2939 
Q 2822 3125 2822 3475 
Q 2822 3834 2567 4026 
Q 2313 4219 1838 4219 
Q 1578 4219 1281 4162 
Q 984 4106 628 3988 
L 628 4550 
Q 988 4650 1302 4700 
Q 1616 4750 1894 4750 
Q 2613 4750 3031 4423 
Q 3450 4097 3450 3541 
Q 3450 3153 3228 2886 
Q 3006 2619 2597 2516 
z
" transform="scale(0.015625)"/>
       </defs>
       <use xlink:href="#DejaVuSans-32"/>
       <use xlink:href="#DejaVuSans-30" transform="translate(63.623047 0)"/>
       <use xlink:href="#DejaVuSans-32" transform="translate(127.246094 0)"/>
       <use xlink:href="#DejaVuSans-35" transform="translate(190.869141 0)"/>
       <use xlink:href="#DejaVuSans-2d" transform="translate(254.492188 0)"/>
       <use xlink:href="#DejaVuSans-30" transform="translate(290.576172 0)"/>
       <use xlink:href="#DejaVuSans-37" transform="translate(354.199219 0)"/>
       <use xlink:href="#DejaVuSans-2d" transform="translate(417.822266 0)"/>
       <use xlink:href="#DejaVuSans-33" transform="translate(453.90625 0)"/>
       <use xlink:href="#DejaVuSans-31" transform="translate(517.529297 0)"/>
      </g>
     </g>
    </g>
    <g id="xtick_3">
     <g id="line2d_5">
      <path d="M 367.563568 448.56 
L 367.563568 60.48 
" clip-path="url(#p9656de3f34)" style="fill: none; stroke: #b0b0b0; stroke-width: 0.8; stroke-linecap: square"/>
     </g>
     <g id="line2d_6">
      <g>
       <use xlink:href="#mcd5759e09d" x="367.563568" y="448.56" style="stroke: #000000; stroke-width: 0.8"/>
      </g>
     </g>
     <g id="text_3">
      <!-- 2025-08-17 -->
      <g transform="translate(338.505756 463.158437) scale(0.1 -0.1)">
       <defs>
        <path id="DejaVuSans-38" d="M 2034 2216 
Q 1584 2216 1326 1975 
Q 1069 1734 1069 1313 
Q 1069 891 1326 650 
Q 1584 409 2034 409 
Q 2484 409 2743 651 
Q 3003 894 3003 1313 
Q 3003 1734 2745 1975 
Q 2488 2216 2034 2216 
z
M 1403 2484 
Q 997 2584 770 2862 
Q 544 3141 544 3541 
Q 544 4100 942 4425 
Q 1341 4750 2034 4750 
Q 2731 4750 3128 4425 
Q 3525 4100 3525 3541 
Q 3525 3141 3298 2862 
Q 3072 2584 2669 2484 
Q 3125 2378 3379 2068 
Q 3634 1759 3634 1313 
Q 3634 634 3220 271 
Q 2806 -91 2034 -91 
Q 1263 -91 848 271 
Q 434 634 434 1313 
Q 434 1759 690 2068 
Q 947 2378 1403 2484 
z
M 1172 3481 
Q 1172 3119 1398 2916 
Q 1625 2713 2034 2713 
Q 2441 2713 2670 2916 
Q 2900 3119 2900 3481 
Q 2900 3844 2670 4047 
Q 2441 4250 2034 4250 
Q 1625 4250 1398 4047 
Q 1172 3844 1172 3481 
z
" transform="scale(0.015625)"/>
       </defs>
       <use xlink:href="#DejaVuSans-32"/>
       <use xlink:href="#DejaVuSans-30" transform="translate(63.623047 0)"/>
       <use xlink:href="#DejaVuSans-32" transform="translate(127.246094 0)"/>
       <use xlink:href="#DejaVuSans-35" transform="translate(190.869141 0)"/>
       <use xlink:href="#DejaVuSans-2d" transform="translate(254.492188 0)"/>
       <use xlink:href="#DejaVuSans-30" transform="translate(290.576172 0)"/>
       <use xlink:href="#DejaVuSans-38" transform="translate(354.199219 0)"/>
       <use xlink:href="#DejaVuSans-2d" transform="translate(417.822266 0)"/>
       <use xlink:href="#DejaVuSans-31" transform="translate(453.90625 0)"/>
       <use xlink:href="#DejaVuSans-37" transform="translate(517.529297 0)"/>
      </g>
     </g>
    </g>
    <g id="xtick_4">
     <g id="line2d_7">
      <path d="M 464.822625 448.56 
L 464.822625 60.48 
" clip-path="url(#p9656de3f34)" style="fill: none; stroke: #b0b0b0; stroke-width: 0.8; stroke-linecap: square"/>
     </g>
     <g id="line2d_8">
      <g>
       <use xlink:href="#mcd5759e09d" x="464.822625" y="448.56" style="stroke: #000000; stroke-width: 0.8"/>
      </g>
     </g>
     <g id="text_4">
      <!-- 2025-09-03 -->
      <g transform="translate(435.764812 463.158437) scale(0.1 -0.1)">
       <defs>
        <path id="DejaVuSans-39" d="M 703 97 
L 703 672 
Q 941 559 1184 500 
Q 1428 441 1663 441 
Q 2288 441 2617 861 
Q 2947 1281 2994 2138 
Q 2813 1869 2534 1725 
Q 2256 1581 1919 1581 
Q 1219 1581 811 2004 
Q 403 2428 403 3163 
Q 403 3881 828 4315 
Q 1253 4750 1959 4750 
Q 2769 4750 3195 4129 
Q 3622 3509 3622 2328 
Q 3622 1225 3098 567 
Q 2575 -91 1691 -91 
Q 1453 -91 1209 -44 
Q 966 3 703 97 
z
M 1959 2075 
Q 2384 2075 2632 2365 
Q 2881 2656 2881 3163 
Q 2881 3666 2632 3958 
Q 2384 4250 1959 4250 
Q 1534 4250 1286 3958 
Q 1038 3666 1038 3163 
Q 1038 2656 1286 2365 
Q 1534 2075 1959 2075 
z
" transform="scale(0.015625)"/>
       </defs>
       <use xlink:href="#DejaVuSans-32"/>
       <use xlink:href="#DejaVuSans-30" transform="translate(63.623047 0)"/>
       <use xlink:href="#DejaVuSans-32" transform="translate(127.246094 0)"/>
       <use xlink:href="#DejaVuSans-35" transform="translate(190.869141 0)"/>
       <use xlink:href="#DejaVuSans-2d" transform="translate(254.492188 0)"/>
       <use xlink:href="#DejaVuSans-30" transform="translate(290.576172 0)"/>
       <use xlink:href="#DejaVuSans-39" transform="translate(354.199219 0)"/>
       <use xlink:href="#DejaVuSans-2d" transform="translate(417.822266 0)"/>
       <use xlink:href="#DejaVuSans-30" transform="translate(453.90625 0)"/>
       <use xlink:href="#DejaVuSans-33" transform="translate(517.529297 0)"/>
      </g>
     </g>
    </g>
    <g id="xtick_5">
     <g id="line2d_9">
      <path d="M 562.081681 448.56 
L 562.081681 60.48 
" clip-path="url(#p9656de3f34)" style="fill: none; stroke: #b0b0b0; stroke-width: 0.8; stroke-linecap: square"/>
     </g>
     <g id="line2d_10">
      <g>
       <use xlink:href="#mcd5759e09d" x="562.081681" y="448.56" style="stroke: #000000; stroke-width: 0.8"/>
      </g>
     </g>
     <g id="text_5">
      <!-- 2025-09-20 -->
      <g transform="translate(533.023869 463.158437) scale(0.1 -0.1)">
       <use xlink:href="#DejaVuSans-32"/>
       <use xlink:href="#DejaVuSans-30" transform="translate(63.623047 0)"/>
       <use xlink:href="#DejaVuSans-32" transform="translate(127.246094 0)"/>
       <use xlink:href="#DejaVuSans-35" transform="translate(190.869141 0)"/>
       <use xlink:href="#DejaVuSans-2d" transform="translate(254.492188 0)"/>
       <use xlink:href="#DejaVuSans-30" transform="translate(290.576172 0)"/>
       <use xlink:href="#DejaVuSans-39" transform="translate(354.199219 0)"/>
       <use xlink:href="#DejaVuSans-2d" transform="translate(417.822266 0)"/>
       <use xlink:href="#DejaVuSans-32" transform="translate(453.90625 0)"/>
       <use xlink:href="#DejaVuSans-30" transform="translate(517.529297 0)"/>
      </g>
     </g>
    </g>
    <g id="xtick_6">
     <g id="line2d_11">
      <path d="M 659.340738 448.56 
L 659.340738 60.48 
" clip-path="url(#p9656de3f34)" style="fill: none; stroke: #b0b0b0; stroke-width: 0.8; stroke-linecap: square"/>
     </g>
     <g id="line2d_12">
      <g>
       <use xlink:href="#mcd5759e09d" x="659.340738" y="448.56" style="stroke: #000000; stroke-width: 0.8"/>
      </g>
     </g>
     <g id="text_6">
      <!-- 2025-10-07 -->
      <g transform="translate(630.282926 463.158437) scale(0.1 -0.1)">
       <use xlink:href="#DejaVuSans-32"/>
       <use xlink:href="#DejaVuSans-30" transform="translate(63.623047 0)"/>
       <use xlink:href="#DejaVuSans-32" transform="translate(127.246094 0)"/>
       <use xlink:href="#DejaVuSans-35" transform="translate(190.869141 0)"/>
       <use xlink:href="#DejaVuSans-2d" transform="translate(254.492188 0)"/>
       <use xlink:href="#DejaVuSans-31" transform="translate(290.576172 0)"/>
       <use xlink:href="#DejaVuSans-30" transform="translate(354.199219 0)"/>
       <use xlink:href="#DejaVuSans-2d" transform="translate(417.822266 0)"/>
       <use xlink:href="#DejaVuSans-30" transform="translate(453.90625 0)"/>
       <use xlink:href="#DejaVuSans-37" transform="translate(517.529297 0)"/>
      </g>
     </g>
    </g>
    <g id="xtick_7">
     <g id="line2d_13">
      <path d="M 756.599795 448.56 
L 756.599795 60.48 
" clip-path="url(#p9656de3f34)" style="fill: none; stroke: #b0b0b0; stroke-width: 0.8; stroke-linecap: square"/>
     </g>
     <g id="line2d_14">
      <g>
       <use xlink:href="#mcd5759e09d" x="756.599795" y="448.56" style="stroke: #000000; stroke-width: 0.8"/>
      </g>
     </g>
     <g id="text_7">
      <!-- 2025-10-24 -->
      <g transform="translate(727.541982 463.158437) scale(0.1 -0.1)">
       <use xlink:href="#DejaVuSans-32"/>
       <use xlink:href="#DejaVuSans-30" transform="translate(63.623047 0)"/>
       <use xlink:href="#DejaVuSans-32" transform="translate(127.246094 0)"/>
       <use xlink:href="#DejaVuSans-35" transform="translate(190.869141 0)"/>
       <use xlink:href="#DejaVuSans-2d" transform="translate(254.492188 0)"/>
       <use xlink:href="#DejaVuSans-31" transform="translate(290.576172 0)"/>
       <use xlink:href="#DejaVuSans-30" transform="translate(354.199219 0)"/>
       <use xlink:href="#DejaVuSans-2d" transform="translate(417.822266 0)"/>
       <use xlink:href="#DejaVuSans-32" transform="translate(453.90625 0)"/>
       <use xlink:href="#DejaVuSans-34" transform="translate(517.529297 0)"/>
      </g>
     </g>
    </g>
    <g id="xtick_8">
     <g id="line2d_15">
      <path d="M 853.858852 448.56 
L 853.858852 60.48 
" clip-path="url(#p9656de3f34)" style="fill: none; stroke: #b0b0b0; stroke-width: 0.8; stroke-linecap: square"/>
     </g>
     <g id="line2d_16">
      <g>
       <use xlink:href="#mcd5759e09d" x="853.858852" y="448.56" style="stroke: #000000; stroke-width: 0.8"/>
      </g>
     </g>
     <g id="text_8">
      <!-- 2025-11-10 -->
      <g transform="translate(824.801039 463.158437) scale(0.1 -0.1)">
       <use xlink:href="#DejaVuSans-32"/>
       <use xlink:href="#DejaVuSans-30" transform="translate(63.623047 0)"/>
       <use xlink:href="#DejaVuSans-32" transform="translate(127.246094 0)"/>
       <use xlink:href="#DejaVuSans-35" transform="translate(190.869141 0)"/>
       <use xlink:href="#DejaVuSans-2d" transform="translate(254.492188 0)"/>
       <use xlink:href="#DejaVuSans-31" transform="translate(290.576172 0)"/>
       <use xlink:href="#DejaVuSans-31" transform="translate(354.199219 0)"/>
       <use xlink:href="#DejaVuSans-2d" transform="translate(417.822266 0)"/>
       <use xlink:href="#DejaVuSans-31" transform="translate(453.90625 0)"/>
       <use xlink:href="#DejaVuSans-30" transform="translate(517.529297 0)"/>
      </g>
     </g>
    </g>
    <g id="text_9">
     <!-- Date (YYYY-MM-DD), 2025-07-14 - 2025-11-25 -->
     <g transform="translate(438.225 476.836563) scale(0.1 -0.1)">
      <defs>
       <path id="DejaVuSans-44" d="M 1259 4147 
L 1259 519 
L 2022 519 
Q 2988 519 3436 956 
Q 3884 1394 3884 2338 
Q 3884 3275 3436 3711 
Q 2988 4147 2022 4147 
L 1259 4147 
z
M 628 4666 
L 1925 4666 
Q 3281 4666 3915 4102 
Q 4550 3538 4550 2338 
Q 4550 1131 3912 565 
Q 3275 0 1925 0 
L 628 0 
L 628 4666 
z
" transform="scale(0.015625)"/>
       <path id="DejaVuSans-61" d="M 2194 1759 
Q 1497 1759 1228 1600 
Q 959 1441 959 1056 
Q 959 750 1161 570 
Q 1363 391 1709 391 
Q 2188 391 2477 730 
Q 2766 1069 2766 1631 
L 2766 1759 
L 2194 1759 
z
M 3341 1997 
L 3341 0 
L 2766 0 
L 2766 531 
Q 2569 213 2275 61 
Q 1981 -91 1556 -91 
Q 1019 -91 701 211 
Q 384 513 384 1019 
Q 384 1609 779 1909 
Q 1175 2209 1959 2209 
L 2766 2209 
L 2766 2266 
Q 2766 2663 2505 2880 
Q 2244 3097 1772 3097 
Q 1472 3097 1187 3025 
Q 903 2953 641 2809 
L 641 3341 
Q 956 3463 1253 3523 
Q 1550 3584 1831 3584 
Q 2591 3584 2966 3190 
Q 3341 2797 3341 1997 
z
" transform="scale(0.015625)"/>
       <path id="DejaVuSans-74" d="M 1172 4494 
L 1172 3500 
L 2356 3500 
L 2356 3053 
L 1172 3053 
L 1172 1153 
Q 1172 725 1289 603 
Q 1406 481 1766 481 
L 2356 481 
L 2356 0 
L 1766 0 
Q 1100 0 847 248 
Q 594 497 594 1153 
L 594 3053 
L 172 3053 
L 172 3500 
L 594 3500 
L 594 4494 
L 1172 4494 
z
" transform="scale(0.015625)"/>
       <path id="DejaVuSans-65" d="M 3597 1894 
L 3597 1613 
L 953 1613 
Q 991 1019 1311 708 
Q 1631 397 2203 397 
Q 2534 397 2845 478 
Q 3156 559 3463 722 
L 3463 178 
Q 3153 47 2828 -22 
Q 2503 -91 2169 -91 
Q 1331 -91 842 396 
Q 353 884 353 1716 
Q 353 2575 817 3079 
Q 1281 3584 2069 3584 
Q 2775 3584 3186 3129 
Q 3597 2675 3597 1894 
z
M 3022 2063 
Q 3016 2534 2758 2815 
Q 2500 3097 2075 3097 
Q 1594 3097 1305 2825 
Q 1016 2553 972 2059 
L 3022 2063 
z
" transform="scale(0.015625)"/>
       <path id="DejaVuSans-20" transform="scale(0.015625)"/>
       <path id="DejaVuSans-28" d="M 1984 4856 
Q 1566 4138 1362 3434 
Q 1159 2731 1159 2009 
Q 1159 1288 1364 580 
Q 1569 -128 1984 -844 
L 1484 -844 
Q 1016 -109 783 600 
Q 550 1309 550 2009 
Q 550 2706 781 3412 
Q 1013 4119 1484 4856 
L 1984 4856 
z
" transform="scale(0.015625)"/>
       <path id="DejaVuSans-59" d="M -13 4666 
L 666 4666 
L 1959 2747 
L 3244 4666 
L 3922 4666 
L 2272 2222 
L 2272 0 
L 1638 0 
L 1638 2222 
L -13 4666 
z
" transform="scale(0.015625)"/>
       <path id="DejaVuSans-4d" d="M 628 4666 
L 1569 4666 
L 2759 1491 
L 3956 4666 
L 4897 4666 
L 4897 0 
L 4281 0 
L 4281 4097 
L 3078 897 
L 2444 897 
L 1241 4097 
L 1241 0 
L 628 0 
L 628 4666 
z
" transform="scale(0.015625)"/>
       <path id="DejaVuSans-29" d="M 513 4856 
L 1013 4856 
Q 1481 4119 1714 3412 
Q 1947 2706 1947 2009 
Q 1947 1309 1714 600 
Q 1481 -109 1013 -844 
L 513 -844 
Q 928 -128 1133 580 
Q 1338 1288 1338 2009 
Q 1338 2731 1133 3434 
Q 928 4138 513 4856 
z
" transform="scale(0.015625)"/>
       <path id="DejaVuSans-2c" d="M 750 794 
L 1409 794 
L 1409 256 
L 897 -744 
L 494 -744 
L 750 256 
L 750 794 
z
" transform="scale(0.015625)"/>
      </defs>
      <use xlink:href="#DejaVuSans-44"/>
      <use xlink:href="#DejaVuSans-61" transform="translate(77.001953 0)"/>
      <use xlink:href="#DejaVuSans-74" transform="translate(138.28125 0)"/>
      <use xlink:href="#DejaVuSans-65" transform="translate(177.490234 0)"/>
      <use xlink:href="#DejaVuSans-20" transform="translate(239.013672 0)"/>
      <use xlink:href="#DejaVuSans-28" transform="translate(270.800781 0)"/>
      <use xlink:href="#DejaVuSans-59" transform="translate(309.814453 0)"/>
      <use xlink:href="#DejaVuSans-59" transform="translate(370.898438 0)"/>
      <use xlink:href="#DejaVuSans-59" transform="translate(431.982422 0)"/>
      <use xlink:href="#DejaVuSans-59" transform="translate(493.066406 0)"/>
      <use xlink:href="#DejaVuSans-2d" transform="translate(542.275391 0)"/>
      <use xlink:href="#DejaVuSans-4d" transform="translate(578.359375 0)"/>
      <use xlink:href="#DejaVuSans-4d" transform="translate(664.638672 0)"/>
      <use xlink:href="#DejaVuSans-2d" transform="translate(750.917969 0)"/>
      <use xlink:href="#DejaVuSans-44" transform="translate(787.001953 0)"/>
      <use xlink:href="#DejaVuSans-44" transform="translate(864.003906 0)"/>
      <use xlink:href="#DejaVuSans-29" transform="translate(941.005859 0)"/>
      <use xlink:href="#DejaVuSans-2c" transform="translate(980.019531 0)"/>
      <use xlink:href="#DejaVuSans-20" transform="translate(1011.806641 0)"/>
      <use xlink:href="#DejaVuSans-32" transform="translate(1043.59375 0)"/>
      <use xlink:href="#DejaVuSans-30" transform="translate(1107.216797 0)"/>
      <use xlink:href="#DejaVuSans-32" transform="translate(1170.839844 0)"/>
      <use xlink:href="#DejaVuSans-35" transform="translate(1234.462891 0)"/>
      <use xlink:href="#DejaVuSans-2d" transform="translate(1298.085938 0)"/>
      <use xlink:href="#DejaVuSans-30" transform="translate(1334.169922 0)"/>
      <use xlink:href="#DejaVuSans-37" transform="translate(1397.792969 0)"/>
      <use xlink:href="#DejaVuSans-2d" transform="translate(1461.416016 0)"/>
      <use xlink:href="#DejaVuSans-31" transform="translate(1497.5 0)"/>
      <use xlink:href="#DejaVuSans-34" transform="translate(1561.123047 0)"/>
      <use xlink:href="#DejaVuSans-20" transform="translate(1624.746094 0)"/>
      <use xlink:href="#DejaVuSans-2d" transform="translate(1656.533203 0)"/>
      <use xlink:href="#DejaVuSans-20" transform="translate(1692.617188 0)"/>
      <use xlink:href="#DejaVuSans-32" transform="translate(1724.404297 0)"/>
      <use xlink:href="#DejaVuSans-30" transform="translate(1788.027344 0)"/>
      <use xlink:href="#DejaVuSans-32" transform="translate(1851.650391 0)"/>
      <use xlink:href="#DejaVuSans-35" transform="translate(1915.273438 0)"/>
      <use xlink:href="#DejaVuSans-2d" transform="translate(1978.896484 0)"/>
      <use xlink:href="#DejaVuSans-31" transform="translate(2014.980469 0)"/>
      <use xlink:href="#DejaVuSans-31" transform="translate(2078.603516 0)"/>
      <use xlink:href="#DejaVuSans-2d" transform="translate(2142.226562 0)"/>
      <use xlink:href="#DejaVuSans-32" transform="translate(2178.310547 0)"/>
      <use xlink:href="#DejaVuSans-35" transform="translate(2241.933594 0)"/>
     </g>
    </g>
   </g>
   <g id="matplotlib.axis_2">
    <g id="ytick_1">
     <g id="line2d_17">
      <path d="M 135 444.750557 
L 972 444.750557 
" clip-path="url(#p9656de3f34)" style="fill: none; stroke: #b0b0b0; stroke-width: 0.8; stroke-linecap: square"/>
     </g>
     <g id="line2d_18">
      <defs>
       <path id="m4cf377766a" d="M 0 0 
L -3.5 0 
" style="stroke: #000000; stroke-width: 0.8"/>
      </defs>
      <g>
       <use xlink:href="#m4cf377766a" x="135" y="444.750557" style="stroke: #000000; stroke-width: 0.8"/>
      </g>
     </g>
     <g id="text_10">
      <!-- 0 -->
      <g transform="translate(121.6375 448.549776) scale(0.1 -0.1)">
       <use xlink:href="#DejaVuSans-30"/>
      </g>
     </g>
    </g>
    <g id="ytick_2">
     <g id="line2d_19">
      <path d="M 135 369.256249 
L 972 369.256249 
" clip-path="url(#p9656de3f34)" style="fill: none; stroke: #b0b0b0; stroke-width: 0.8; stroke-linecap: square"/>
     </g>
     <g id="line2d_20">
      <g>
       <use xlink:href="#m4cf377766a" x="135" y="369.256249" style="stroke: #000000; stroke-width: 0.8"/>
      </g>
     </g>
     <g id="text_11">
      <!-- 5000 -->
      <g transform="translate(102.55 373.055468) scale(0.1 -0.1)">
       <use xlink:href="#DejaVuSans-35"/>
       <use xlink:href="#DejaVuSans-30" transform="translate(63.623047 0)"/>
       <use xlink:href="#DejaVuSans-30" transform="translate(127.246094 0)"/>
       <use xlink:href="#DejaVuSans-30" transform="translate(190.869141 0)"/>
      </g>
     </g>
    </g>
    <g id="ytick_3">
     <g id="line2d_21">
      <path d="M 135 293.761941 
L 972 293.761941 
" clip-path="url(#p9656de3f34)" style="fill: none; stroke: #b0b0b0; stroke-width: 0.8; stroke-linecap: square"/>
     </g>
     <g id="line2d_22">
      <g>
       <use xlink:href="#m4cf377766a" x="135" y="293.761941" style="stroke: #000000; stroke-width: 0.8"/>
      </g>
     </g>
     <g id="text_12">
      <!-- 10000 -->
      <g transform="translate(96.1875 297.56116) scale(0.1 -0.1)">
       <use xlink:href="#DejaVuSans-31"/>
       <use xlink:href="#DejaVuSans-30" transform="translate(63.623047 0)"/>
       <use xlink:href="#DejaVuSans-30" transform="translate(127.246094 0)"/>
       <use xlink:href="#DejaVuSans-30" transform="translate(190.869141 0)"/>
       <use xlink:href="#DejaVuSans-30" transform="translate(254.492188 0)"/>
      </g>
     </g>
    </g>
    <g id="ytick_4">
     <g id="line2d_23">
      <path d="M 135 218.267633 
L 972 218.267633 
" clip-path="url(#p9656de3f34)" style="fill: none; stroke: #b0b0b0; stroke-width: 0.8; stroke-linecap: square"/>
     </g>
     <g id="line2d_24">
      <g>
       <use xlink:href="#m4cf377766a" x="135" y="218.267633" style="stroke: #000000; stroke-width: 0.8"/>
      </g>
     </g>
     <g id="text_13">
      <!-- 15000 -->
      <g transform="translate(96.1875 222.066852) scale(0.1 -0.1)">
       <use xlink:href="#DejaVuSans-31"/>
       <use xlink:href="#DejaVuSans-35" transform="translate(63.623047 0)"/>
       <use xlink:href="#DejaVuSans-30" transform="translate(127.246094 0)"/>
       <use xlink:href="#DejaVuSans-30" transform="translate(190.869141 0)"/>
       <use xlink:href="#DejaVuSans-30" transform="translate(254.492188 0)"/>
      </g>
     </g>
    </g>
    <g id="ytick_5">
     <g id="line2d_25">
      <path d="M 135 142.773325 
L 972 142.773325 
" clip-path="url(#p9656de3f34)" style="fill: none; stroke: #b0b0b0; stroke-width: 0.8; stroke-linecap: square"/>
     </g>
     <g id="line2d_26">
      <g>
       <use xlink:href="#m4cf377766a" x="135" y="142.773325" style="stroke: #000000; stroke-width: 0.8"/>
      </g>
     </g>
     <g id="text_14">
      <!-- 20000 -->
      <g transform="translate(96.1875 146.572544) scale(0.1 -0.1)">
       <use xlink:href="#DejaVuSans-32"/>
       <use xlink:href="#DejaVuSans-30" transform="translate(63.623047 0)"/>
       <use xlink:href="#DejaVuSans-30" transform="translate(127.246094 0)"/>
       <use xlink:href="#DejaVuSans-30" transform="translate(190.869141 0)"/>
       <use xlink:href="#DejaVuSans-30" transform="translate(254.492188 0)"/>
      </g>
     </g>
    </g>
    <g id="ytick_6">
     <g id="line2d_27">
      <path d="M 135 67.279017 
L 972 67.279017 
" clip-path="url(#p9656de3f34)" style="fill: none; stroke: #b0b0b0; stroke-width: 0.8; stroke-linecap: square"/>
     </g>
     <g id="line2d_28">
      <g>
       <use xlink:href="#m4cf377766a" x="135" y="67.279017" style="stroke: #000000; stroke-width: 0.8"/>
      </g>
     </g>
     <g id="text_15">
      <!-- 25000 -->
      <g transform="translate(96.1875 71.078236) scale(0.1 -0.1)">
       <use xlink:href="#DejaVuSans-32"/>
       <use xlink:href="#DejaVuSans-35" transform="translate(63.623047 0)"/>
       <use xlink:href="#DejaVuSans-30" transform="translate(127.246094 0)"/>
       <use xlink:href="#DejaVuSans-30" transform="translate(190.869141 0)"/>
       <use xlink:href="#DejaVuSans-30" transform="translate(254.492188 0)"/>
      </g>
     </g>
    </g>
    <g id="text_16">
     <!-- Pageview count -->
     <g transform="translate(90.107812 293.834063) rotate(-90) scale(0.1 -0.1)">
      <defs>
       <path id="DejaVuSans-50" d="M 1259 4147 
L 1259 2394 
L 2053 2394 
Q 2494 2394 2734 2622 
Q 2975 2850 2975 3272 
Q 2975 3691 2734 3919 
Q 2494 4147 2053 4147 
L 1259 4147 
z
M 628 4666 
L 2053 4666 
Q 2838 4666 3239 4311 
Q 3641 3956 3641 3272 
Q 3641 2581 3239 2228 
Q 2838 1875 2053 1875 
L 1259 1875 
L 1259 0 
L 628 0 
L 628 4666 
z
" transform="scale(0.015625)"/>
       <path id="DejaVuSans-67" d="M 2906 1791 
Q 2906 2416 2648 2759 
Q 2391 3103 1925 3103 
Q 1463 3103 1205 2759 
Q 947 2416 947 1791 
Q 947 1169 1205 825 
Q 1463 481 1925 481 
Q 2391 481 2648 825 
Q 2906 1169 2906 1791 
z
M 3481 434 
Q 3481 -459 3084 -895 
Q 2688 -1331 1869 -1331 
Q 1566 -1331 1297 -1286 
Q 1028 -1241 775 -1147 
L 775 -588 
Q 1028 -725 1275 -790 
Q 1522 -856 1778 -856 
Q 2344 -856 2625 -561 
Q 2906 -266 2906 331 
L 2906 616 
Q 2728 306 2450 153 
Q 2172 0 1784 0 
Q 1141 0 747 490 
Q 353 981 353 1791 
Q 353 2603 747 3093 
Q 1141 3584 1784 3584 
Q 2172 3584 2450 3431 
Q 2728 3278 2906 2969 
L 2906 3500 
L 3481 3500 
L 3481 434 
z
" transform="scale(0.015625)"/>
       <path id="DejaVuSans-76" d="M 191 3500 
L 800 3500 
L 1894 563 
L 2988 3500 
L 3597 3500 
L 2284 0 
L 1503 0 
L 191 3500 
z
" transform="scale(0.015625)"/>
       <path id="DejaVuSans-69" d="M 603 3500 
L 1178 3500 
L 1178 0 
L 603 0 
L 603 3500 
z
M 603 4863 
L 1178 4863 
L 1178 4134 
L 603 4134 
L 603 4863 
z
" transform="scale(0.015625)"/>
       <path id="DejaVuSans-77" d="M 269 3500 
L 844 3500 
L 1563 769 
L 2278 3500 
L 2956 3500 
L 3675 769 
L 4391 3500 
L 4966 3500 
L 4050 0 
L 3372 0 
L 2619 2869 
L 1863 0 
L 1184 0 
L 269 3500 
z
" transform="scale(0.015625)"/>
       <path id="DejaVuSans-63" d="M 3122 3366 
L 3122 2828 
Q 2878 2963 2633 3030 
Q 2388 3097 2138 3097 
Q 1578 3097 1268 2742 
Q 959 2388 959 1747 
Q 959 1106 1268 751 
Q 1578 397 2138 397 
Q 2388 397 2633 464 
Q 2878 531 3122 666 
L 3122 134 
Q 2881 22 2623 -34 
Q 2366 -91 2075 -91 
Q 1284 -91 818 406 
Q 353 903 353 1747 
Q 353 2603 823 3093 
Q 1294 3584 2113 3584 
Q 2378 3584 2631 3529 
Q 2884 3475 3122 3366 
z
" transform="scale(0.015625)"/>
       <path id="DejaVuSans-6f" d="M 1959 3097 
Q 1497 3097 1228 2736 
Q 959 2375 959 1747 
Q 959 1119 1226 758 
Q 1494 397 1959 397 
Q 2419 397 2687 759 
Q 2956 1122 2956 1747 
Q 2956 2369 2687 2733 
Q 2419 3097 1959 3097 
z
M 1959 3584 
Q 2709 3584 3137 3096 
Q 3566 2609 3566 1747 
Q 3566 888 3137 398 
Q 2709 -91 1959 -91 
Q 1206 -91 779 398 
Q 353 888 353 1747 
Q 353 2609 779 3096 
Q 1206 3584 1959 3584 
z
" transform="scale(0.015625)"/>
       <path id="DejaVuSans-75" d="M 544 1381 
L 544 3500 
L 1119 3500 
L 1119 1403 
Q 1119 906 1312 657 
Q 1506 409 1894 409 
Q 2359 409 2629 706 
Q 2900 1003 2900 1516 
L 2900 3500 
L 3475 3500 
L 3475 0 
L 2900 0 
L 2900 538 
Q 2691 219 2414 64 
Q 2138 -91 1772 -91 
Q 1169 -91 856 284 
Q 544 659 544 1381 
z
M 1991 3584 
L 1991 3584 
z
" transform="scale(0.015625)"/>
       <path id="DejaVuSans-6e" d="M 3513 2113 
L 3513 0 
L 2938 0 
L 2938 2094 
Q 2938 2591 2744 2837 
Q 2550 3084 2163 3084 
Q 1697 3084 1428 2787 
Q 1159 2491 1159 1978 
L 1159 0 
L 581 0 
L 581 3500 
L 1159 3500 
L 1159 2956 
Q 1366 3272 1645 3428 
Q 1925 3584 2291 3584 
Q 2894 3584 3203 3211 
Q 3513 2838 3513 2113 
z
" transform="scale(0.015625)"/>
      </defs>
      <use xlink:href="#DejaVuSans-50"/>
      <use xlink:href="#DejaVuSans-61" transform="translate(55.802734 0)"/>
      <use xlink:href="#DejaVuSans-67" transform="translate(117.082031 0)"/>
      <use xlink:href="#DejaVuSans-65" transform="translate(180.558594 0)"/>
      <use xlink:href="#DejaVuSans-76" transform="translate(242.082031 0)"/>
      <use xlink:href="#DejaVuSans-69" transform="translate(301.261719 0)"/>
      <use xlink:href="#DejaVuSans-65" transform="translate(329.044922 0)"/>
      <use xlink:href="#DejaVuSans-77" transform="translate(390.568359 0)"/>
      <use xlink:href="#DejaVuSans-20" transform="translate(472.355469 0)"/>
      <use xlink:href="#DejaVuSans-63" transform="translate(504.142578 0)"/>
      <use xlink:href="#DejaVuSans-6f" transform="translate(559.123047 0)"/>
      <use xlink:href="#DejaVuSans-75" transform="translate(620.304688 0)"/>
      <use xlink:href="#DejaVuSans-6e" transform="translate(683.683594 0)"/>
      <use xlink:href="#DejaVuSans-74" transform="translate(747.0625 0)"/>
     </g>
    </g>
   </g>
   <g id="line2d_29">
    <path d="M 173.045455 405.433122 
L 178.766576 404.91976 
L 184.487697 403.772247 
L 190.208817 406.127669 
L 195.929938 406.157867 
L 201.651059 409.82689 
L 207.37218 410.189263 
L 213.093301 404.285608 
L 218.814422 404.52719 
L 224.535543 401.447022 
L 230.256664 401.899988 
L 235.977785 404.91976 
L 241.698906 408.830365 
L 247.420027 407.018502 
L 253.141148 400.858167 
L 258.862269 401.114847 
L 264.58339 402.639832 
L 270.304511 400.375003 
L 276.025632 404.013829 
L 281.746753 409.283331 
L 287.467874 405.131144 
L 293.188995 402.050977 
L 298.910116 401.945285 
L 304.631237 401.34133 
L 310.352358 400.571288 
L 316.073479 404.466794 
L 321.7946 409.071947 
L 327.515721 401.250737 
L 338.957963 402.27746 
L 344.679084 398.623535 
L 350.400205 398.110174 
L 356.121326 400.571288 
L 361.842447 403.86284 
L 367.563568 405.825692 
L 373.284689 399.22749 
L 379.00581 397.083451 
L 384.726931 402.126471 
L 390.448052 399.182193 
L 396.169173 402.050977 
L 401.890294 408.090521 
L 407.611415 407.788544 
L 413.332536 376.201726 
L 419.053657 385.56302 
L 424.774778 394.57704 
L 430.495899 394.290162 
L 436.21702 396.524793 
L 441.938141 402.564338 
L 447.659262 402.020779 
L 453.380383 394.57704 
L 459.101504 393.625812 
L 464.822625 391.043907 
L 476.264867 387.842948 
L 481.985988 394.803523 
L 487.707109 396.313409 
L 493.42823 390.757028 
L 499.149351 393.354032 
L 504.870472 394.093877 
L 510.591593 397.747801 
L 516.312714 397.189143 
L 522.033835 406.399449 
L 527.754956 407.320479 
L 533.476077 396.026531 
L 539.197198 395.679257 
L 544.918319 383.283092 
L 550.63944 391.285488 
L 556.36056 394.682732 
L 562.081681 401.703703 
L 567.802802 404.934859 
L 573.523923 398.548041 
L 579.245044 389.518922 
L 584.966165 392.840671 
L 590.687286 398.442349 
L 596.408407 399.106699 
L 602.129528 406.444745 
L 607.850649 405.463319 
L 613.57177 397.808197 
L 619.292891 397.883691 
L 625.014012 399.363379 
L 630.735133 397.793098 
L 636.456254 400.782672 
L 642.177375 406.052175 
L 647.898496 404.25541 
L 653.619617 395.482972 
L 659.340738 392.825572 
L 665.061859 391.919641 
L 670.78298 394.697831 
L 676.504101 397.868592 
L 682.225222 401.296034 
L 687.946343 399.136896 
L 693.667464 391.587466 
L 699.388585 386.740731 
L 705.109706 386.665237 
L 710.830827 387.254092 
L 716.551948 393.052055 
L 722.273069 404.25541 
L 727.99419 400.752475 
L 733.715311 394.365656 
L 739.436432 392.810473 
L 745.157553 396.026531 
L 750.878674 397.189143 
L 756.599795 396.690881 
L 762.320916 403.122996 
L 768.042037 402.066075 
L 773.763158 398.42725 
L 779.484279 396.887166 
L 785.2054 397.838394 
L 790.926521 399.0916 
L 796.647642 402.624733 
L 802.368763 402.39825 
L 808.089884 401.582912 
L 813.811005 393.565416 
L 819.532126 397.294835 
L 825.253247 398.15547 
L 830.974368 396.721078 
L 836.695489 398.215866 
L 842.41661 404.13462 
L 848.137731 400.525992 
L 853.858852 396.404002 
L 859.579973 395.120599 
L 865.301094 391.844146 
L 871.022215 385.729107 
L 876.743336 393.097352 
L 882.464457 392.19142 
L 888.185578 397.294835 
L 893.906699 390.379557 
L 899.62782 385.683811 
L 905.348941 388.597891 
L 911.070062 385.985788 
L 916.791183 391.964937 
L 922.512303 396.343607 
L 928.233424 392.297112 
L 933.954545 389.549119 
L 933.954545 389.549119 
" clip-path="url(#p9656de3f34)" style="fill: none; stroke: #000000; stroke-width: 1.5; stroke-linecap: square"/>
   </g>
   <g id="line2d_30">
    <path d="M 173.045455 427.160383 
L 184.487697 429.410114 
L 190.208817 429.485608 
L 195.929938 428.851456 
L 201.651059 429.787585 
L 207.37218 430.92 
L 213.093301 427.537855 
L 218.814422 428.081414 
L 224.535543 427.47746 
L 230.256664 427.915327 
L 235.977785 428.036117 
L 241.698906 430.11976 
L 247.420027 428.806159 
L 253.141148 426.40544 
L 258.862269 425.559904 
L 264.58339 428.353194 
L 270.304511 427.281174 
L 276.025632 428.39849 
L 281.746753 428.594775 
L 287.467874 428.972247 
L 293.188995 427.039593 
L 298.910116 424.623775 
L 304.631237 423.461162 
L 310.352358 423.113889 
L 316.073479 421.332223 
L 321.7946 406.339053 
L 327.515721 413.178838 
L 333.236842 416.530785 
L 338.957963 419.278778 
L 344.679084 418.871108 
L 350.400205 420.652774 
L 356.121326 423.310174 
L 361.842447 421.875782 
L 367.563568 424.412391 
L 373.284689 421.739892 
L 379.00581 425.318322 
L 384.726931 425.21263 
L 390.448052 425.967573 
L 396.169173 424.004721 
L 401.890294 428.700467 
L 407.611415 428.67027 
L 413.332536 426.345045 
L 419.053657 425.167334 
L 424.774778 426.964098 
L 430.495899 425.937376 
L 436.21702 426.616824 
L 441.938141 430.346243 
L 447.659262 429.259125 
L 453.380383 427.20568 
L 459.101504 425.318322 
L 464.822625 426.843307 
L 470.543746 426.299748 
L 476.264867 426.224254 
L 481.985988 428.338095 
L 487.707109 427.447262 
L 493.42823 425.031444 
L 499.149351 426.01287 
L 504.870472 426.450737 
L 510.591593 428.307897 
L 516.312714 428.594775 
L 522.033835 430.149958 
L 527.754956 430.814308 
L 533.476077 427.854931 
L 539.197198 427.643547 
L 544.918319 425.756189 
L 550.63944 427.432163 
L 556.36056 428.383391 
L 562.081681 430.210354 
L 567.802802 429.651696 
L 573.523923 427.568053 
L 579.245044 426.662121 
L 584.966165 427.522756 
L 590.687286 425.363619 
L 596.408407 426.67722 
L 602.129528 430.014068 
L 619.292891 427.06979 
L 625.014012 428.775962 
L 630.735133 429.002445 
L 636.456254 428.021019 
L 642.177375 430.769011 
L 647.898496 428.911851 
L 653.619617 426.194056 
L 659.340738 425.333421 
L 665.061859 425.137136 
L 676.504101 426.767813 
L 682.225222 427.900228 
L 687.946343 428.624973 
L 693.667464 426.058167 
L 699.388585 424.050018 
L 705.109706 422.630725 
L 710.830827 423.536657 
L 716.551948 425.771288 
L 722.273069 427.719041 
L 727.99419 427.220779 
L 733.715311 424.518083 
L 739.436432 424.080216 
L 745.157553 424.95595 
L 750.878674 425.167334 
L 756.599795 424.759664 
L 762.320916 427.522756 
L 768.042037 427.990821 
L 773.763158 423.853733 
L 779.484279 426.526231 
L 785.2054 427.175482 
L 790.926521 426.073265 
L 796.647642 427.371768 
L 802.368763 426.526231 
L 808.089884 425.197531 
L 813.811005 422.540132 
L 819.532126 423.144086 
L 825.253247 424.306699 
L 842.41661 425.801486 
L 848.137731 426.918802 
L 853.858852 424.004721 
L 859.579973 424.170809 
L 871.022215 422.419341 
L 876.743336 423.581953 
L 882.464457 425.529706 
L 888.185578 425.605201 
L 893.906699 422.932702 
L 899.62782 423.023295 
L 905.348941 423.521558 
L 911.070062 423.159185 
L 916.791183 424.789862 
L 922.512303 425.031444 
L 928.233424 425.152235 
L 933.954545 423.430965 
L 933.954545 423.430965 
" clip-path="url(#p9656de3f34)" style="fill: none; stroke: #ff0000; stroke-width: 1.5; stroke-linecap: square"/>
   </g>
   <g id="line2d_31">
    <path d="M 173.045455 425.303223 
L 184.487697 425.529706 
L 190.208817 426.420539 
L 195.929938 427.719041 
L 201.651059 427.492558 
L 207.37218 428.141809 
L 213.093301 424.578478 
L 218.814422 424.231204 
L 224.535543 424.034919 
L 230.256664 423.279976 
L 235.977785 425.6203 
L 241.698906 427.552954 
L 247.420027 427.568053 
L 253.141148 423.174284 
L 264.58339 423.868832 
L 270.304511 423.370569 
L 276.025632 423.204482 
L 281.746753 427.703942 
L 287.467874 427.703942 
L 293.188995 424.034919 
L 298.910116 424.910653 
L 304.631237 424.518083 
L 310.352358 423.76314 
L 316.073479 425.091839 
L 321.7946 428.67027 
L 327.515721 426.496034 
L 333.236842 423.128987 
L 338.957963 423.612151 
L 344.679084 422.736417 
L 350.400205 421.981474 
L 356.121326 425.363619 
L 361.842447 427.552954 
L 367.563568 427.145285 
L 373.284689 422.902504 
L 379.00581 422.026771 
L 390.448052 422.600527 
L 396.169173 424.170809 
L 401.890294 426.722516 
L 407.611415 425.74109 
L 413.332536 421.483212 
L 419.053657 422.192858 
L 424.774778 422.041869 
L 430.495899 421.604002 
L 436.21702 424.804961 
L 441.938141 425.952475 
L 447.659262 426.239353 
L 453.380383 422.947801 
L 459.101504 419.11269 
L 464.822625 416.908256 
L 470.543746 415.292678 
L 476.264867 421.226531 
L 481.985988 425.21263 
L 487.707109 424.457687 
L 493.42823 420.909455 
L 499.149351 420.939652 
L 504.870472 422.419341 
L 510.591593 423.219581 
L 516.312714 423.536657 
L 522.033835 428.202205 
L 527.754956 427.688844 
L 533.476077 423.023295 
L 539.197198 422.404242 
L 544.918319 420.592379 
L 550.63944 422.117364 
L 556.36056 422.147561 
L 562.081681 426.752714 
L 567.802802 425.695794 
L 573.523923 422.555231 
L 579.245044 422.117364 
L 584.966165 423.083691 
L 590.687286 420.652774 
L 596.408407 422.253253 
L 602.129528 425.635398 
L 607.850649 425.137136 
L 613.57177 423.808436 
L 619.292891 421.90598 
L 625.014012 423.76314 
L 630.735133 424.533182 
L 636.456254 424.850258 
L 642.177375 427.250977 
L 647.898496 425.499509 
L 653.619617 418.72012 
L 659.340738 417.708496 
L 665.061859 419.157987 
L 670.78298 416.651576 
L 676.504101 418.916405 
L 682.225222 422.16266 
L 687.946343 423.083691 
L 693.667464 418.131264 
L 699.388585 414.296153 
L 705.109706 414.235758 
L 710.830827 414.673625 
L 716.551948 418.916405 
L 722.273069 420.094116 
L 727.99419 421.558706 
L 733.715311 417.376321 
L 739.436432 416.138214 
L 745.157553 418.116165 
L 750.878674 416.968652 
L 756.599795 419.626052 
L 762.320916 423.038394 
L 768.042037 422.736417 
L 773.763158 418.236956 
L 779.484279 420.426291 
L 785.2054 418.599329 
L 790.926521 418.599329 
L 796.647642 422.177759 
L 802.368763 423.461162 
L 808.089884 422.615626 
L 813.811005 419.052295 
L 825.253247 420.079017 
L 830.974368 420.652774 
L 836.695489 422.268352 
L 842.41661 424.518083 
L 848.137731 423.612151 
L 853.858852 419.520359 
L 859.579973 421.483212 
L 865.301094 420.033721 
L 871.022215 418.176561 
L 876.743336 419.459964 
L 882.464457 423.793337 
L 888.185578 424.487885 
L 893.906699 419.565656 
L 899.62782 418.659724 
L 905.348941 419.38447 
L 911.070062 419.188185 
L 916.791183 421.075542 
L 922.512303 424.412391 
L 928.233424 422.766615 
L 933.954545 420.396093 
L 933.954545 420.396093 
" clip-path="url(#p9656de3f34)" style="fill: none; stroke: #ffa500; stroke-width: 1.5; stroke-linecap: square"/>
   </g>
   <g id="line2d_32">
    <path d="M 173.045455 416.576081 
L 178.766576 414.371648 
L 184.487697 416.621378 
L 190.208817 416.666675 
L 195.929938 417.799089 
L 201.651059 421.890881 
L 207.37218 419.807238 
L 213.093301 415.39837 
L 218.814422 414.416944 
L 224.535543 414.265956 
L 230.256664 415.035998 
L 235.977785 416.319401 
L 241.698906 421.090641 
L 247.420027 417.180036 
L 253.141148 412.529587 
L 258.862269 401.431923 
L 264.58339 408.90586 
L 270.304511 412.061522 
L 276.025632 413.042948 
L 281.746753 419.610953 
L 287.467874 418.025572 
L 293.188995 412.152115 
L 298.910116 413.360024 
L 304.631237 413.058047 
L 310.352358 411.366974 
L 316.073479 413.28453 
L 321.7946 420.154512 
L 327.515721 415.307777 
L 333.236842 407.758346 
L 338.957963 408.845464 
L 344.679084 408.301905 
L 350.400205 411.336777 
L 356.121326 412.695674 
L 361.842447 415.911732 
L 367.563568 415.881534 
L 373.284689 408.407597 
L 379.00581 409.087046 
L 384.726931 408.63408 
L 390.448052 408.90586 
L 396.169173 410.113769 
L 401.890294 414.583032 
L 407.611415 413.224134 
L 413.332536 408.196213 
L 419.053657 410.370449 
L 430.495899 411.034799 
L 436.21702 412.3484 
L 441.938141 415.428568 
L 447.659262 413.963978 
L 453.380383 410.883811 
L 459.101504 409.857088 
L 464.822625 409.600407 
L 470.543746 405.44822 
L 476.264867 406.746723 
L 481.985988 412.137016 
L 487.707109 411.306579 
L 493.42823 407.093996 
L 499.149351 405.810593 
L 504.870472 405.569011 
L 510.591593 404.980156 
L 516.312714 404.195015 
L 522.033835 405.795494 
L 527.754956 408.618981 
L 533.476077 398.834919 
L 539.197198 399.408676 
L 544.918319 397.053253 
L 550.63944 399.967334 
L 556.36056 405.372726 
L 562.081681 407.984829 
L 567.802802 407.924434 
L 573.523923 403.077699 
L 579.245044 402.14157 
L 590.687286 402.081174 
L 596.408407 397.747801 
L 602.129528 403.409874 
L 607.850649 407.743247 
L 613.57177 393.610713 
L 619.292891 393.761702 
L 625.014012 386.529347 
L 630.735133 389.428328 
L 636.456254 396.237915 
L 642.177375 398.29136 
L 647.898496 398.336657 
L 653.619617 386.378358 
L 659.340738 382.346962 
L 665.061859 383.04151 
L 670.78298 380.610593 
L 676.504101 385.396932 
L 682.225222 387.178598 
L 687.946343 365.40604 
L 693.667464 294.230006 
L 699.388585 78.12 
L 705.109706 232.052894 
L 710.830827 329.938814 
L 716.551948 359.049419 
L 722.273069 379.296992 
L 727.99419 386.046183 
L 733.715311 384.204122 
L 739.436432 391.074104 
L 745.157553 390.772127 
L 750.878674 394.803523 
L 756.599795 401.582912 
L 762.320916 403.047501 
L 768.042037 406.38435 
L 773.763158 400.193817 
L 779.484279 405.795494 
L 785.2054 404.346004 
L 790.926521 408.135818 
L 796.647642 411.457567 
L 802.368763 414.643427 
L 808.089884 413.465716 
L 813.811005 411.548161 
L 819.532126 409.82689 
L 825.253247 411.366974 
L 830.974368 411.850138 
L 836.695489 412.907058 
L 842.41661 416.772367 
L 848.137731 416.953553 
L 853.858852 414.296153 
L 859.579973 412.09172 
L 865.301094 407.229886 
L 871.022215 413.088244 
L 876.743336 414.839712 
L 882.464457 417.39142 
L 888.185578 418.070869 
L 893.906699 415.549359 
L 899.62782 412.408796 
L 905.348941 414.296153 
L 911.070062 394.516645 
L 916.791183 414.160264 
L 922.512303 418.44834 
L 928.233424 417.934979 
L 933.954545 416.213709 
L 933.954545 416.213709 
" clip-path="url(#p9656de3f34)" style="fill: none; stroke: #0000ff; stroke-width: 1.5; stroke-linecap: square"/>
   </g>
   <g id="patch_3">
    <path d="M 135 448.56 
L 135 60.48 
" style="fill: none; stroke: #000000; stroke-width: 0.8; stroke-linejoin: miter; stroke-linecap: square"/>
   </g>
   <g id="patch_4">
    <path d="M 972 448.56 
L 972 60.48 
" style="fill: none; stroke: #000000; stroke-width: 0.8; stroke-linejoin: miter; stroke-linecap: square"/>
   </g>
   <g id="patch_5">
    <path d="M 135 448.56 
L 972 448.56 
" style="fill: none; stroke: #000000; stroke-width: 0.8; stroke-linejoin: miter; stroke-linecap: square"/>
   </g>
   <g id="patch_6">
    <path d="M 135 60.48 
L 972 60.48 
" style="fill: none; stroke: #000000; stroke-width: 0.8; stroke-linejoin: miter; stroke-linecap: square"/>
   </g>
   <g id="text_17">
    <!-- Pageviews data for pages Linux, Debian, Ubuntu and Windows 10 -->
    <g transform="translate(356.082188 54.48) scale(0.12 -0.12)">
     <defs>
      <path id="DejaVuSans-73" d="M 2834 3397 
L 2834 2853 
Q 2591 2978 2328 3040 
Q 2066 3103 1784 3103 
Q 1356 3103 1142 2972 
Q 928 2841 928 2578 
Q 928 2378 1081 2264 
Q 1234 2150 1697 2047 
L 1894 2003 
Q 2506 1872 2764 1633 
Q 3022 1394 3022 966 
Q 3022 478 2636 193 
Q 2250 -91 1575 -91 
Q 1294 -91 989 -36 
Q 684 19 347 128 
L 347 722 
Q 666 556 975 473 
Q 1284 391 1588 391 
Q 1994 391 2212 530 
Q 2431 669 2431 922 
Q 2431 1156 2273 1281 
Q 2116 1406 1581 1522 
L 1381 1569 
Q 847 1681 609 1914 
Q 372 2147 372 2553 
Q 372 3047 722 3315 
Q 1072 3584 1716 3584 
Q 2034 3584 2315 3537 
Q 2597 3491 2834 3397 
z
" transform="scale(0.015625)"/>
      <path id="DejaVuSans-64" d="M 2906 2969 
L 2906 4863 
L 3481 4863 
L 3481 0 
L 2906 0 
L 2906 525 
Q 2725 213 2448 61 
Q 2172 -91 1784 -91 
Q 1150 -91 751 415 
Q 353 922 353 1747 
Q 353 2572 751 3078 
Q 1150 3584 1784 3584 
Q 2172 3584 2448 3432 
Q 2725 3281 2906 2969 
z
M 947 1747 
Q 947 1113 1208 752 
Q 1469 391 1925 391 
Q 2381 391 2643 752 
Q 2906 1113 2906 1747 
Q 2906 2381 2643 2742 
Q 2381 3103 1925 3103 
Q 1469 3103 1208 2742 
Q 947 2381 947 1747 
z
" transform="scale(0.015625)"/>
      <path id="DejaVuSans-66" d="M 2375 4863 
L 2375 4384 
L 1825 4384 
Q 1516 4384 1395 4259 
Q 1275 4134 1275 3809 
L 1275 3500 
L 2222 3500 
L 2222 3053 
L 1275 3053 
L 1275 0 
L 697 0 
L 697 3053 
L 147 3053 
L 147 3500 
L 697 3500 
L 697 3744 
Q 697 4328 969 4595 
Q 1241 4863 1831 4863 
L 2375 4863 
z
" transform="scale(0.015625)"/>
      <path id="DejaVuSans-72" d="M 2631 2963 
Q 2534 3019 2420 3045 
Q 2306 3072 2169 3072 
Q 1681 3072 1420 2755 
Q 1159 2438 1159 1844 
L 1159 0 
L 581 0 
L 581 3500 
L 1159 3500 
L 1159 2956 
Q 1341 3275 1631 3429 
Q 1922 3584 2338 3584 
Q 2397 3584 2469 3576 
Q 2541 3569 2628 3553 
L 2631 2963 
z
" transform="scale(0.015625)"/>
      <path id="DejaVuSans-70" d="M 1159 525 
L 1159 -1331 
L 581 -1331 
L 581 3500 
L 1159 3500 
L 1159 2969 
Q 1341 3281 1617 3432 
Q 1894 3584 2278 3584 
Q 2916 3584 3314 3078 
Q 3713 2572 3713 1747 
Q 3713 922 3314 415 
Q 2916 -91 2278 -91 
Q 1894 -91 1617 61 
Q 1341 213 1159 525 
z
M 3116 1747 
Q 3116 2381 2855 2742 
Q 2594 3103 2138 3103 
Q 1681 3103 1420 2742 
Q 1159 2381 1159 1747 
Q 1159 1113 1420 752 
Q 1681 391 2138 391 
Q 2594 391 2855 752 
Q 3116 1113 3116 1747 
z
" transform="scale(0.015625)"/>
      <path id="DejaVuSans-4c" d="M 628 4666 
L 1259 4666 
L 1259 531 
L 3531 531 
L 3531 0 
L 628 0 
L 628 4666 
z
" transform="scale(0.015625)"/>
      <path id="DejaVuSans-78" d="M 3513 3500 
L 2247 1797 
L 3578 0 
L 2900 0 
L 1881 1375 
L 863 0 
L 184 0 
L 1544 1831 
L 300 3500 
L 978 3500 
L 1906 2253 
L 2834 3500 
L 3513 3500 
z
" transform="scale(0.015625)"/>
      <path id="DejaVuSans-62" d="M 3116 1747 
Q 3116 2381 2855 2742 
Q 2594 3103 2138 3103 
Q 1681 3103 1420 2742 
Q 1159 2381 1159 1747 
Q 1159 1113 1420 752 
Q 1681 391 2138 391 
Q 2594 391 2855 752 
Q 3116 1113 3116 1747 
z
M 1159 2969 
Q 1341 3281 1617 3432 
Q 1894 3584 2278 3584 
Q 2916 3584 3314 3078 
Q 3713 2572 3713 1747 
Q 3713 922 3314 415 
Q 2916 -91 2278 -91 
Q 1894 -91 1617 61 
Q 1341 213 1159 525 
L 1159 0 
L 581 0 
L 581 4863 
L 1159 4863 
L 1159 2969 
z
" transform="scale(0.015625)"/>
      <path id="DejaVuSans-55" d="M 556 4666 
L 1191 4666 
L 1191 1831 
Q 1191 1081 1462 751 
Q 1734 422 2344 422 
Q 2950 422 3222 751 
Q 3494 1081 3494 1831 
L 3494 4666 
L 4128 4666 
L 4128 1753 
Q 4128 841 3676 375 
Q 3225 -91 2344 -91 
Q 1459 -91 1007 375 
Q 556 841 556 1753 
L 556 4666 
z
" transform="scale(0.015625)"/>
      <path id="DejaVuSans-57" d="M 213 4666 
L 850 4666 
L 1831 722 
L 2809 4666 
L 3519 4666 
L 4500 722 
L 5478 4666 
L 6119 4666 
L 4947 0 
L 4153 0 
L 3169 4050 
L 2175 0 
L 1381 0 
L 213 4666 
z
" transform="scale(0.015625)"/>
     </defs>
     <use xlink:href="#DejaVuSans-50"/>
     <use xlink:href="#DejaVuSans-61" transform="translate(55.802734 0)"/>
     <use xlink:href="#DejaVuSans-67" transform="translate(117.082031 0)"/>
     <use xlink:href="#DejaVuSans-65" transform="translate(180.558594 0)"/>
     <use xlink:href="#DejaVuSans-76" transform="translate(242.082031 0)"/>
     <use xlink:href="#DejaVuSans-69" transform="translate(301.261719 0)"/>
     <use xlink:href="#DejaVuSans-65" transform="translate(329.044922 0)"/>
     <use xlink:href="#DejaVuSans-77" transform="translate(390.568359 0)"/>
     <use xlink:href="#DejaVuSans-73" transform="translate(472.355469 0)"/>
     <use xlink:href="#DejaVuSans-20" transform="translate(524.455078 0)"/>
     <use xlink:href="#DejaVuSans-64" transform="translate(556.242188 0)"/>
     <use xlink:href="#DejaVuSans-61" transform="translate(619.71875 0)"/>
     <use xlink:href="#DejaVuSans-74" transform="translate(680.998047 0)"/>
     <use xlink:href="#DejaVuSans-61" transform="translate(720.207031 0)"/>
     <use xlink:href="#DejaVuSans-20" transform="translate(781.486328 0)"/>
     <use xlink:href="#DejaVuSans-66" transform="translate(813.273438 0)"/>
     <use xlink:href="#DejaVuSans-6f" transform="translate(848.478516 0)"/>
     <use xlink:href="#DejaVuSans-72" transform="translate(909.660156 0)"/>
     <use xlink:href="#DejaVuSans-20" transform="translate(950.773438 0)"/>
     <use xlink:href="#DejaVuSans-70" transform="translate(982.560547 0)"/>
     <use xlink:href="#DejaVuSans-61" transform="translate(1046.037109 0)"/>
     <use xlink:href="#DejaVuSans-67" transform="translate(1107.316406 0)"/>
     <use xlink:href="#DejaVuSans-65" transform="translate(1170.792969 0)"/>
     <use xlink:href="#DejaVuSans-73" transform="translate(1232.316406 0)"/>
     <use xlink:href="#DejaVuSans-20" transform="translate(1284.416016 0)"/>
     <use xlink:href="#DejaVuSans-4c" transform="translate(1316.203125 0)"/>
     <use xlink:href="#DejaVuSans-69" transform="translate(1371.916016 0)"/>
     <use xlink:href="#DejaVuSans-6e" transform="translate(1399.699219 0)"/>
     <use xlink:href="#DejaVuSans-75" transform="translate(1463.078125 0)"/>
     <use xlink:href="#DejaVuSans-78" transform="translate(1526.457031 0)"/>
     <use xlink:href="#DejaVuSans-2c" transform="translate(1585.636719 0)"/>
     <use xlink:href="#DejaVuSans-20" transform="translate(1617.423828 0)"/>
     <use xlink:href="#DejaVuSans-44" transform="translate(1649.210938 0)"/>
     <use xlink:href="#DejaVuSans-65" transform="translate(1726.212891 0)"/>
     <use xlink:href="#DejaVuSans-62" transform="translate(1787.736328 0)"/>
     <use xlink:href="#DejaVuSans-69" transform="translate(1851.212891 0)"/>
     <use xlink:href="#DejaVuSans-61" transform="translate(1878.996094 0)"/>
     <use xlink:href="#DejaVuSans-6e" transform="translate(1940.275391 0)"/>
     <use xlink:href="#DejaVuSans-2c" transform="translate(2003.654297 0)"/>
     <use xlink:href="#DejaVuSans-20" transform="translate(2035.441406 0)"/>
     <use xlink:href="#DejaVuSans-55" transform="translate(2067.228516 0)"/>
     <use xlink:href="#DejaVuSans-62" transform="translate(2140.421875 0)"/>
     <use xlink:href="#DejaVuSans-75" transform="translate(2203.898438 0)"/>
     <use xlink:href="#DejaVuSans-6e" transform="translate(2267.277344 0)"/>
     <use xlink:href="#DejaVuSans-74" transform="translate(2330.65625 0)"/>
     <use xlink:href="#DejaVuSans-75" transform="translate(2369.865234 0)"/>
     <use xlink:href="#DejaVuSans-20" transform="translate(2433.244141 0)"/>
     <use xlink:href="#DejaVuSans-61" transform="translate(2465.03125 0)"/>
     <use xlink:href="#DejaVuSans-6e" transform="translate(2526.310547 0)"/>
     <use xlink:href="#DejaVuSans-64" transform="translate(2589.689453 0)"/>
     <use xlink:href="#DejaVuSans-20" transform="translate(2653.166016 0)"/>
     <use xlink:href="#DejaVuSans-57" transform="translate(2684.953125 0)"/>
     <use xlink:href="#DejaVuSans-69" transform="translate(2781.580078 0)"/>
     <use xlink:href="#DejaVuSans-6e" transform="translate(2809.363281 0)"/>
     <use xlink:href="#DejaVuSans-64" transform="translate(2872.742188 0)"/>
     <use xlink:href="#DejaVuSans-6f" transform="translate(2936.21875 0)"/>
     <use xlink:href="#DejaVuSans-77" transform="translate(2997.400391 0)"/>
     <use xlink:href="#DejaVuSans-73" transform="translate(3079.1875 0)"/>
     <use xlink:href="#DejaVuSans-20" transform="translate(3131.287109 0)"/>
     <use xlink:href="#DejaVuSans-31" transform="translate(3163.074219 0)"/>
     <use xlink:href="#DejaVuSans-30" transform="translate(3226.697266 0)"/>
    </g>
   </g>
   <g id="legend_1">
    <g id="patch_7">
     <path d="M 872.464062 127.1925 
L 965 127.1925 
Q 967 127.1925 967 125.1925 
L 967 67.48 
Q 967 65.48 965 65.48 
L 872.464062 65.48 
Q 870.464062 65.48 870.464062 67.48 
L 870.464062 125.1925 
Q 870.464062 127.1925 872.464062 127.1925 
z
" style="fill: #ffffff; opacity: 0.8; stroke: #cccccc; stroke-linejoin: miter"/>
    </g>
    <g id="line2d_33">
     <path d="M 874.464062 73.578438 
L 884.464062 73.578438 
L 894.464062 73.578438 
" style="fill: none; stroke: #000000; stroke-width: 1.5; stroke-linecap: square"/>
    </g>
    <g id="text_18">
     <!-- Linux -->
     <g transform="translate(902.464062 77.078438) scale(0.1 -0.1)">
      <use xlink:href="#DejaVuSans-4c"/>
      <use xlink:href="#DejaVuSans-69" transform="translate(55.712891 0)"/>
      <use xlink:href="#DejaVuSans-6e" transform="translate(83.496094 0)"/>
      <use xlink:href="#DejaVuSans-75" transform="translate(146.875 0)"/>
      <use xlink:href="#DejaVuSans-78" transform="translate(210.253906 0)"/>
     </g>
    </g>
    <g id="line2d_34">
     <path d="M 874.464062 88.256563 
L 884.464062 88.256563 
L 894.464062 88.256563 
" style="fill: none; stroke: #ff0000; stroke-width: 1.5; stroke-linecap: square"/>
    </g>
    <g id="text_19">
     <!-- Debian -->
     <g transform="translate(902.464062 91.756563) scale(0.1 -0.1)">
      <use xlink:href="#DejaVuSans-44"/>
      <use xlink:href="#DejaVuSans-65" transform="translate(77.001953 0)"/>
      <use xlink:href="#DejaVuSans-62" transform="translate(138.525391 0)"/>
      <use xlink:href="#DejaVuSans-69" transform="translate(202.001953 0)"/>
      <use xlink:href="#DejaVuSans-61" transform="translate(229.785156 0)"/>
      <use xlink:href="#DejaVuSans-6e" transform="translate(291.064453 0)"/>
     </g>
    </g>
    <g id="line2d_35">
     <path d="M 874.464062 102.934688 
L 884.464062 102.934688 
L 894.464062 102.934688 
" style="fill: none; stroke: #ffa500; stroke-width: 1.5; stroke-linecap: square"/>
    </g>
    <g id="text_20">
     <!-- Ubuntu -->
     <g transform="translate(902.464062 106.434688) scale(0.1 -0.1)">
      <use xlink:href="#DejaVuSans-55"/>
      <use xlink:href="#DejaVuSans-62" transform="translate(73.193359 0)"/>
      <use xlink:href="#DejaVuSans-75" transform="translate(136.669922 0)"/>
      <use xlink:href="#DejaVuSans-6e" transform="translate(200.048828 0)"/>
      <use xlink:href="#DejaVuSans-74" transform="translate(263.427734 0)"/>
      <use xlink:href="#DejaVuSans-75" transform="translate(302.636719 0)"/>
     </g>
    </g>
    <g id="line2d_36">
     <path d="M 874.464062 117.612813 
L 884.464062 117.612813 
L 894.464062 117.612813 
" style="fill: none; stroke: #0000ff; stroke-width: 1.5; stroke-linecap: square"/>
    </g>
    <g id="text_21">
     <!-- Windows 10 -->
     <g transform="translate(902.464062 121.112813) scale(0.1 -0.1)">
      <use xlink:href="#DejaVuSans-57"/>
      <use xlink:href="#DejaVuSans-69" transform="translate(96.626953 0)"/>
      <use xlink:href="#DejaVuSans-6e" transform="translate(124.410156 0)"/>
      <use xlink:href="#DejaVuSans-64" transform="translate(187.789062 0)"/>
      <use xlink:href="#DejaVuSans-6f" transform="translate(251.265625 0)"/>
      <use xlink:href="#DejaVuSans-77" transform="translate(312.447266 0)"/>
      <use xlink:href="#DejaVuSans-73" transform="translate(394.234375 0)"/>
      <use xlink:href="#DejaVuSans-20" transform="translate(446.333984 0)"/>
      <use xlink:href="#DejaVuSans-31" transform="translate(478.121094 0)"/>
      <use xlink:href="#DejaVuSans-30" transform="translate(541.744141 0)"/>
     </g>
    </g>
   </g>
  </g>
 </g>
 <defs>
  <clipPath id="p9656de3f34">
   <rect x="135" y="60.48" width="837" height="388.08"/>
  </clipPath>
 </defs>
</svg>
