<?xml version="1.0" encoding="utf-8" standalone="no"?>
<!DOCTYPE svg PUBLIC "-//W3C//DTD SVG 1.1//EN"
  "http://www.w3.org/Graphics/SVG/1.1/DTD/svg11.dtd">
<svg xmlns:xlink="http://www.w3.org/1999/xlink" width="1080pt" height="504pt" viewBox="0 0 1080 504" xmlns="http://www.w3.org/2000/svg" version="1.1">
 <metadata>
  <rdf:RDF xmlns:dc="http://purl.org/dc/elements/1.1/" xmlns:cc="http://creativecommons.org/ns#" xmlns:rdf="http://www.w3.org/1999/02/22-rdf-syntax-ns#">
   <cc:Work>
    <dc:type rdf:resource="http://purl.org/dc/dcmitype/StillImage"/>
    <dc:date>2026-01-02T15:02:14.847724</dc:date>
    <dc:format>image/svg+xml</dc:format>
    <dc:creator>
     <cc:Agent>
      <dc:title>Matplotlib v3.10.7, https://matplotlib.org/</dc:title>
     </cc:Agent>
    </dc:creator>
   </cc:Work>
  </rdf:RDF>
 </metadata>
 <defs>
  <style type="text/css">*{stroke-linejoin: round; stroke-linecap: butt}</style>
 </defs>
 <g id="figure_1">
  <g id="patch_1">
   <path d="M 0 504 
L 1080 504 
L 1080 0 
L 0 0 
z
" style="fill: #ffffff"/>
  </g>
  <g id="axes_1">
   <g id="patch_2">
    <path d="M 135 448.56 
L 972 448.56 
L 972 60.48 
L 135 60.48 
z
" style="fill: #ffffff"/>
   </g>
   <g id="matplotlib.axis_1">
    <g id="xtick_1">
     <g id="line2d_1">
      <path d="M 173.045455 448.56 
L 173.045455 60.48 
" clip-path="url(#pa8ad8cf694)" style="fill: none; stroke: #b0b0b0; stroke-width: 0.8; stroke-linecap: square"/>
     </g>
     <g id="line2d_2">
      <defs>
       <path id="ma28bcb862d" d="M 0 0 
L 0 3.5 
" style="stroke: #000000; stroke-width: 0.8"/>
      </defs>
      <g>
       <use xlink:href="#ma28bcb862d" x="173.045455" y="448.56" style="stroke: #000000; stroke-width: 0.8"/>
      </g>
     </g>
     <g id="text_1">
      <!-- 2022-08-01 -->
      <g transform="translate(143.987642 463.158437) scale(0.1 -0.1)">
       <defs>
        <path id="DejaVuSans-32" d="M 1228 531 
L 3431 531 
L 3431 0 
L 469 0 
L 469 531 
Q 828 903 1448 1529 
Q 2069 2156 2228 2338 
Q 2531 2678 2651 2914 
Q 2772 3150 2772 3378 
Q 2772 3750 2511 3984 
Q 2250 4219 1831 4219 
Q 1534 4219 1204 4116 
Q 875 4013 500 3803 
L 500 4441 
Q 881 4594 1212 4672 
Q 1544 4750 1819 4750 
Q 2544 4750 2975 4387 
Q 3406 4025 3406 3419 
Q 3406 3131 3298 2873 
Q 3191 2616 2906 2266 
Q 2828 2175 2409 1742 
Q 1991 1309 1228 531 
z
" transform="scale(0.015625)"/>
        <path id="DejaVuSans-30" d="M 2034 4250 
Q 1547 4250 1301 3770 
Q 1056 3291 1056 2328 
Q 1056 1369 1301 889 
Q 1547 409 2034 409 
Q 2525 409 2770 889 
Q 3016 1369 3016 2328 
Q 3016 3291 2770 3770 
Q 2525 4250 2034 4250 
z
M 2034 4750 
Q 2819 4750 3233 4129 
Q 3647 3509 3647 2328 
Q 3647 1150 3233 529 
Q 2819 -91 2034 -91 
Q 1250 -91 836 529 
Q 422 1150 422 2328 
Q 422 3509 836 4129 
Q 1250 4750 2034 4750 
z
" transform="scale(0.015625)"/>
        <path id="DejaVuSans-2d" d="M 313 2009 
L 1997 2009 
L 1997 1497 
L 313 1497 
L 313 2009 
z
" transform="scale(0.015625)"/>
        <path id="DejaVuSans-38" d="M 2034 2216 
Q 1584 2216 1326 1975 
Q 1069 1734 1069 1313 
Q 1069 891 1326 650 
Q 1584 409 2034 409 
Q 2484 409 2743 651 
Q 3003 894 3003 1313 
Q 3003 1734 2745 1975 
Q 2488 2216 2034 2216 
z
M 1403 2484 
Q 997 2584 770 2862 
Q 544 3141 544 3541 
Q 544 4100 942 4425 
Q 1341 4750 2034 4750 
Q 2731 4750 3128 4425 
Q 3525 4100 3525 3541 
Q 3525 3141 3298 2862 
Q 3072 2584 2669 2484 
Q 3125 2378 3379 2068 
Q 3634 1759 3634 1313 
Q 3634 634 3220 271 
Q 2806 -91 2034 -91 
Q 1263 -91 848 271 
Q 434 634 434 1313 
Q 434 1759 690 2068 
Q 947 2378 1403 2484 
z
M 1172 3481 
Q 1172 3119 1398 2916 
Q 1625 2713 2034 2713 
Q 2441 2713 2670 2916 
Q 2900 3119 2900 3481 
Q 2900 3844 2670 4047 
Q 2441 4250 2034 4250 
Q 1625 4250 1398 4047 
Q 1172 3844 1172 3481 
z
" transform="scale(0.015625)"/>
        <path id="DejaVuSans-31" d="M 794 531 
L 1825 531 
L 1825 4091 
L 703 3866 
L 703 4441 
L 1819 4666 
L 2450 4666 
L 2450 531 
L 3481 531 
L 3481 0 
L 794 0 
L 794 531 
z
" transform="scale(0.015625)"/>
       </defs>
       <use xlink:href="#DejaVuSans-32"/>
       <use xlink:href="#DejaVuSans-30" transform="translate(63.623047 0)"/>
       <use xlink:href="#DejaVuSans-32" transform="translate(127.246094 0)"/>
       <use xlink:href="#DejaVuSans-32" transform="translate(190.869141 0)"/>
       <use xlink:href="#DejaVuSans-2d" transform="translate(254.492188 0)"/>
       <use xlink:href="#DejaVuSans-30" transform="translate(290.576172 0)"/>
       <use xlink:href="#DejaVuSans-38" transform="translate(354.199219 0)"/>
       <use xlink:href="#DejaVuSans-2d" transform="translate(417.822266 0)"/>
       <use xlink:href="#DejaVuSans-30" transform="translate(453.90625 0)"/>
       <use xlink:href="#DejaVuSans-31" transform="translate(517.529297 0)"/>
      </g>
     </g>
    </g>
    <g id="xtick_2">
     <g id="line2d_3">
      <path d="M 273.4955 448.56 
L 273.4955 60.48 
" clip-path="url(#pa8ad8cf694)" style="fill: none; stroke: #b0b0b0; stroke-width: 0.8; stroke-linecap: square"/>
     </g>
     <g id="line2d_4">
      <g>
       <use xlink:href="#ma28bcb862d" x="273.4955" y="448.56" style="stroke: #000000; stroke-width: 0.8"/>
      </g>
     </g>
     <g id="text_2">
      <!-- 2022-09-10 -->
      <g transform="translate(244.437687 463.158437) scale(0.1 -0.1)">
       <defs>
        <path id="DejaVuSans-39" d="M 703 97 
L 703 672 
Q 941 559 1184 500 
Q 1428 441 1663 441 
Q 2288 441 2617 861 
Q 2947 1281 2994 2138 
Q 2813 1869 2534 1725 
Q 2256 1581 1919 1581 
Q 1219 1581 811 2004 
Q 403 2428 403 3163 
Q 403 3881 828 4315 
Q 1253 4750 1959 4750 
Q 2769 4750 3195 4129 
Q 3622 3509 3622 2328 
Q 3622 1225 3098 567 
Q 2575 -91 1691 -91 
Q 1453 -91 1209 -44 
Q 966 3 703 97 
z
M 1959 2075 
Q 2384 2075 2632 2365 
Q 2881 2656 2881 3163 
Q 2881 3666 2632 3958 
Q 2384 4250 1959 4250 
Q 1534 4250 1286 3958 
Q 1038 3666 1038 3163 
Q 1038 2656 1286 2365 
Q 1534 2075 1959 2075 
z
" transform="scale(0.015625)"/>
       </defs>
       <use xlink:href="#DejaVuSans-32"/>
       <use xlink:href="#DejaVuSans-30" transform="translate(63.623047 0)"/>
       <use xlink:href="#DejaVuSans-32" transform="translate(127.246094 0)"/>
       <use xlink:href="#DejaVuSans-32" transform="translate(190.869141 0)"/>
       <use xlink:href="#DejaVuSans-2d" transform="translate(254.492188 0)"/>
       <use xlink:href="#DejaVuSans-30" transform="translate(290.576172 0)"/>
       <use xlink:href="#DejaVuSans-39" transform="translate(354.199219 0)"/>
       <use xlink:href="#DejaVuSans-2d" transform="translate(417.822266 0)"/>
       <use xlink:href="#DejaVuSans-31" transform="translate(453.90625 0)"/>
       <use xlink:href="#DejaVuSans-30" transform="translate(517.529297 0)"/>
      </g>
     </g>
    </g>
    <g id="xtick_3">
     <g id="line2d_5">
      <path d="M 373.945545 448.56 
L 373.945545 60.48 
" clip-path="url(#pa8ad8cf694)" style="fill: none; stroke: #b0b0b0; stroke-width: 0.8; stroke-linecap: square"/>
     </g>
     <g id="line2d_6">
      <g>
       <use xlink:href="#ma28bcb862d" x="373.945545" y="448.56" style="stroke: #000000; stroke-width: 0.8"/>
      </g>
     </g>
     <g id="text_3">
      <!-- 2022-10-20 -->
      <g transform="translate(344.887732 463.158437) scale(0.1 -0.1)">
       <use xlink:href="#DejaVuSans-32"/>
       <use xlink:href="#DejaVuSans-30" transform="translate(63.623047 0)"/>
       <use xlink:href="#DejaVuSans-32" transform="translate(127.246094 0)"/>
       <use xlink:href="#DejaVuSans-32" transform="translate(190.869141 0)"/>
       <use xlink:href="#DejaVuSans-2d" transform="translate(254.492188 0)"/>
       <use xlink:href="#DejaVuSans-31" transform="translate(290.576172 0)"/>
       <use xlink:href="#DejaVuSans-30" transform="translate(354.199219 0)"/>
       <use xlink:href="#DejaVuSans-2d" transform="translate(417.822266 0)"/>
       <use xlink:href="#DejaVuSans-32" transform="translate(453.90625 0)"/>
       <use xlink:href="#DejaVuSans-30" transform="translate(517.529297 0)"/>
      </g>
     </g>
    </g>
    <g id="xtick_4">
     <g id="line2d_7">
      <path d="M 474.39559 448.56 
L 474.39559 60.48 
" clip-path="url(#pa8ad8cf694)" style="fill: none; stroke: #b0b0b0; stroke-width: 0.8; stroke-linecap: square"/>
     </g>
     <g id="line2d_8">
      <g>
       <use xlink:href="#ma28bcb862d" x="474.39559" y="448.56" style="stroke: #000000; stroke-width: 0.8"/>
      </g>
     </g>
     <g id="text_4">
      <!-- 2022-11-29 -->
      <g transform="translate(445.337777 463.158437) scale(0.1 -0.1)">
       <use xlink:href="#DejaVuSans-32"/>
       <use xlink:href="#DejaVuSans-30" transform="translate(63.623047 0)"/>
       <use xlink:href="#DejaVuSans-32" transform="translate(127.246094 0)"/>
       <use xlink:href="#DejaVuSans-32" transform="translate(190.869141 0)"/>
       <use xlink:href="#DejaVuSans-2d" transform="translate(254.492188 0)"/>
       <use xlink:href="#DejaVuSans-31" transform="translate(290.576172 0)"/>
       <use xlink:href="#DejaVuSans-31" transform="translate(354.199219 0)"/>
       <use xlink:href="#DejaVuSans-2d" transform="translate(417.822266 0)"/>
       <use xlink:href="#DejaVuSans-32" transform="translate(453.90625 0)"/>
       <use xlink:href="#DejaVuSans-39" transform="translate(517.529297 0)"/>
      </g>
     </g>
    </g>
    <g id="xtick_5">
     <g id="line2d_9">
      <path d="M 574.845635 448.56 
L 574.845635 60.48 
" clip-path="url(#pa8ad8cf694)" style="fill: none; stroke: #b0b0b0; stroke-width: 0.8; stroke-linecap: square"/>
     </g>
     <g id="line2d_10">
      <g>
       <use xlink:href="#ma28bcb862d" x="574.845635" y="448.56" style="stroke: #000000; stroke-width: 0.8"/>
      </g>
     </g>
     <g id="text_5">
      <!-- 2023-01-08 -->
      <g transform="translate(545.787822 463.158437) scale(0.1 -0.1)">
       <defs>
        <path id="DejaVuSans-33" d="M 2597 2516 
Q 3050 2419 3304 2112 
Q 3559 1806 3559 1356 
Q 3559 666 3084 287 
Q 2609 -91 1734 -91 
Q 1441 -91 1130 -33 
Q 819 25 488 141 
L 488 750 
Q 750 597 1062 519 
Q 1375 441 1716 441 
Q 2309 441 2620 675 
Q 2931 909 2931 1356 
Q 2931 1769 2642 2001 
Q 2353 2234 1838 2234 
L 1294 2234 
L 1294 2753 
L 1863 2753 
Q 2328 2753 2575 2939 
Q 2822 3125 2822 3475 
Q 2822 3834 2567 4026 
Q 2313 4219 1838 4219 
Q 1578 4219 1281 4162 
Q 984 4106 628 3988 
L 628 4550 
Q 988 4650 1302 4700 
Q 1616 4750 1894 4750 
Q 2613 4750 3031 4423 
Q 3450 4097 3450 3541 
Q 3450 3153 3228 2886 
Q 3006 2619 2597 2516 
z
" transform="scale(0.015625)"/>
       </defs>
       <use xlink:href="#DejaVuSans-32"/>
       <use xlink:href="#DejaVuSans-30" transform="translate(63.623047 0)"/>
       <use xlink:href="#DejaVuSans-32" transform="translate(127.246094 0)"/>
       <use xlink:href="#DejaVuSans-33" transform="translate(190.869141 0)"/>
       <use xlink:href="#DejaVuSans-2d" transform="translate(254.492188 0)"/>
       <use xlink:href="#DejaVuSans-30" transform="translate(290.576172 0)"/>
       <use xlink:href="#DejaVuSans-31" transform="translate(354.199219 0)"/>
       <use xlink:href="#DejaVuSans-2d" transform="translate(417.822266 0)"/>
       <use xlink:href="#DejaVuSans-30" transform="translate(453.90625 0)"/>
       <use xlink:href="#DejaVuSans-38" transform="translate(517.529297 0)"/>
      </g>
     </g>
    </g>
    <g id="xtick_6">
     <g id="line2d_11">
      <path d="M 675.29568 448.56 
L 675.29568 60.48 
" clip-path="url(#pa8ad8cf694)" style="fill: none; stroke: #b0b0b0; stroke-width: 0.8; stroke-linecap: square"/>
     </g>
     <g id="line2d_12">
      <g>
       <use xlink:href="#ma28bcb862d" x="675.29568" y="448.56" style="stroke: #000000; stroke-width: 0.8"/>
      </g>
     </g>
     <g id="text_6">
      <!-- 2023-02-17 -->
      <g transform="translate(646.237867 463.158437) scale(0.1 -0.1)">
       <defs>
        <path id="DejaVuSans-37" d="M 525 4666 
L 3525 4666 
L 3525 4397 
L 1831 0 
L 1172 0 
L 2766 4134 
L 525 4134 
L 525 4666 
z
" transform="scale(0.015625)"/>
       </defs>
       <use xlink:href="#DejaVuSans-32"/>
       <use xlink:href="#DejaVuSans-30" transform="translate(63.623047 0)"/>
       <use xlink:href="#DejaVuSans-32" transform="translate(127.246094 0)"/>
       <use xlink:href="#DejaVuSans-33" transform="translate(190.869141 0)"/>
       <use xlink:href="#DejaVuSans-2d" transform="translate(254.492188 0)"/>
       <use xlink:href="#DejaVuSans-30" transform="translate(290.576172 0)"/>
       <use xlink:href="#DejaVuSans-32" transform="translate(354.199219 0)"/>
       <use xlink:href="#DejaVuSans-2d" transform="translate(417.822266 0)"/>
       <use xlink:href="#DejaVuSans-31" transform="translate(453.90625 0)"/>
       <use xlink:href="#DejaVuSans-37" transform="translate(517.529297 0)"/>
      </g>
     </g>
    </g>
    <g id="xtick_7">
     <g id="line2d_13">
      <path d="M 775.745725 448.56 
L 775.745725 60.48 
" clip-path="url(#pa8ad8cf694)" style="fill: none; stroke: #b0b0b0; stroke-width: 0.8; stroke-linecap: square"/>
     </g>
     <g id="line2d_14">
      <g>
       <use xlink:href="#ma28bcb862d" x="775.745725" y="448.56" style="stroke: #000000; stroke-width: 0.8"/>
      </g>
     </g>
     <g id="text_7">
      <!-- 2023-03-29 -->
      <g transform="translate(746.687912 463.158437) scale(0.1 -0.1)">
       <use xlink:href="#DejaVuSans-32"/>
       <use xlink:href="#DejaVuSans-30" transform="translate(63.623047 0)"/>
       <use xlink:href="#DejaVuSans-32" transform="translate(127.246094 0)"/>
       <use xlink:href="#DejaVuSans-33" transform="translate(190.869141 0)"/>
       <use xlink:href="#DejaVuSans-2d" transform="translate(254.492188 0)"/>
       <use xlink:href="#DejaVuSans-30" transform="translate(290.576172 0)"/>
       <use xlink:href="#DejaVuSans-33" transform="translate(354.199219 0)"/>
       <use xlink:href="#DejaVuSans-2d" transform="translate(417.822266 0)"/>
       <use xlink:href="#DejaVuSans-32" transform="translate(453.90625 0)"/>
       <use xlink:href="#DejaVuSans-39" transform="translate(517.529297 0)"/>
      </g>
     </g>
    </g>
    <g id="xtick_8">
     <g id="line2d_15">
      <path d="M 876.19577 448.56 
L 876.19577 60.48 
" clip-path="url(#pa8ad8cf694)" style="fill: none; stroke: #b0b0b0; stroke-width: 0.8; stroke-linecap: square"/>
     </g>
     <g id="line2d_16">
      <g>
       <use xlink:href="#ma28bcb862d" x="876.19577" y="448.56" style="stroke: #000000; stroke-width: 0.8"/>
      </g>
     </g>
     <g id="text_8">
      <!-- 2023-05-08 -->
      <g transform="translate(847.137957 463.158437) scale(0.1 -0.1)">
       <defs>
        <path id="DejaVuSans-35" d="M 691 4666 
L 3169 4666 
L 3169 4134 
L 1269 4134 
L 1269 2991 
Q 1406 3038 1543 3061 
Q 1681 3084 1819 3084 
Q 2600 3084 3056 2656 
Q 3513 2228 3513 1497 
Q 3513 744 3044 326 
Q 2575 -91 1722 -91 
Q 1428 -91 1123 -41 
Q 819 9 494 109 
L 494 744 
Q 775 591 1075 516 
Q 1375 441 1709 441 
Q 2250 441 2565 725 
Q 2881 1009 2881 1497 
Q 2881 1984 2565 2268 
Q 2250 2553 1709 2553 
Q 1456 2553 1204 2497 
Q 953 2441 691 2322 
L 691 4666 
z
" transform="scale(0.015625)"/>
       </defs>
       <use xlink:href="#DejaVuSans-32"/>
       <use xlink:href="#DejaVuSans-30" transform="translate(63.623047 0)"/>
       <use xlink:href="#DejaVuSans-32" transform="translate(127.246094 0)"/>
       <use xlink:href="#DejaVuSans-33" transform="translate(190.869141 0)"/>
       <use xlink:href="#DejaVuSans-2d" transform="translate(254.492188 0)"/>
       <use xlink:href="#DejaVuSans-30" transform="translate(290.576172 0)"/>
       <use xlink:href="#DejaVuSans-35" transform="translate(354.199219 0)"/>
       <use xlink:href="#DejaVuSans-2d" transform="translate(417.822266 0)"/>
       <use xlink:href="#DejaVuSans-30" transform="translate(453.90625 0)"/>
       <use xlink:href="#DejaVuSans-38" transform="translate(517.529297 0)"/>
      </g>
     </g>
    </g>
    <g id="text_9">
     <!-- Date (YYYY-MM-DD), 2022-08-01 - 2023-06-01 -->
     <g transform="translate(438.225 476.836563) scale(0.1 -0.1)">
      <defs>
       <path id="DejaVuSans-44" d="M 1259 4147 
L 1259 519 
L 2022 519 
Q 2988 519 3436 956 
Q 3884 1394 3884 2338 
Q 3884 3275 3436 3711 
Q 2988 4147 2022 4147 
L 1259 4147 
z
M 628 4666 
L 1925 4666 
Q 3281 4666 3915 4102 
Q 4550 3538 4550 2338 
Q 4550 1131 3912 565 
Q 3275 0 1925 0 
L 628 0 
L 628 4666 
z
" transform="scale(0.015625)"/>
       <path id="DejaVuSans-61" d="M 2194 1759 
Q 1497 1759 1228 1600 
Q 959 1441 959 1056 
Q 959 750 1161 570 
Q 1363 391 1709 391 
Q 2188 391 2477 730 
Q 2766 1069 2766 1631 
L 2766 1759 
L 2194 1759 
z
M 3341 1997 
L 3341 0 
L 2766 0 
L 2766 531 
Q 2569 213 2275 61 
Q 1981 -91 1556 -91 
Q 1019 -91 701 211 
Q 384 513 384 1019 
Q 384 1609 779 1909 
Q 1175 2209 1959 2209 
L 2766 2209 
L 2766 2266 
Q 2766 2663 2505 2880 
Q 2244 3097 1772 3097 
Q 1472 3097 1187 3025 
Q 903 2953 641 2809 
L 641 3341 
Q 956 3463 1253 3523 
Q 1550 3584 1831 3584 
Q 2591 3584 2966 3190 
Q 3341 2797 3341 1997 
z
" transform="scale(0.015625)"/>
       <path id="DejaVuSans-74" d="M 1172 4494 
L 1172 3500 
L 2356 3500 
L 2356 3053 
L 1172 3053 
L 1172 1153 
Q 1172 725 1289 603 
Q 1406 481 1766 481 
L 2356 481 
L 2356 0 
L 1766 0 
Q 1100 0 847 248 
Q 594 497 594 1153 
L 594 3053 
L 172 3053 
L 172 3500 
L 594 3500 
L 594 4494 
L 1172 4494 
z
" transform="scale(0.015625)"/>
       <path id="DejaVuSans-65" d="M 3597 1894 
L 3597 1613 
L 953 1613 
Q 991 1019 1311 708 
Q 1631 397 2203 397 
Q 2534 397 2845 478 
Q 3156 559 3463 722 
L 3463 178 
Q 3153 47 2828 -22 
Q 2503 -91 2169 -91 
Q 1331 -91 842 396 
Q 353 884 353 1716 
Q 353 2575 817 3079 
Q 1281 3584 2069 3584 
Q 2775 3584 3186 3129 
Q 3597 2675 3597 1894 
z
M 3022 2063 
Q 3016 2534 2758 2815 
Q 2500 3097 2075 3097 
Q 1594 3097 1305 2825 
Q 1016 2553 972 2059 
L 3022 2063 
z
" transform="scale(0.015625)"/>
       <path id="DejaVuSans-20" transform="scale(0.015625)"/>
       <path id="DejaVuSans-28" d="M 1984 4856 
Q 1566 4138 1362 3434 
Q 1159 2731 1159 2009 
Q 1159 1288 1364 580 
Q 1569 -128 1984 -844 
L 1484 -844 
Q 1016 -109 783 600 
Q 550 1309 550 2009 
Q 550 2706 781 3412 
Q 1013 4119 1484 4856 
L 1984 4856 
z
" transform="scale(0.015625)"/>
       <path id="DejaVuSans-59" d="M -13 4666 
L 666 4666 
L 1959 2747 
L 3244 4666 
L 3922 4666 
L 2272 2222 
L 2272 0 
L 1638 0 
L 1638 2222 
L -13 4666 
z
" transform="scale(0.015625)"/>
       <path id="DejaVuSans-4d" d="M 628 4666 
L 1569 4666 
L 2759 1491 
L 3956 4666 
L 4897 4666 
L 4897 0 
L 4281 0 
L 4281 4097 
L 3078 897 
L 2444 897 
L 1241 4097 
L 1241 0 
L 628 0 
L 628 4666 
z
" transform="scale(0.015625)"/>
       <path id="DejaVuSans-29" d="M 513 4856 
L 1013 4856 
Q 1481 4119 1714 3412 
Q 1947 2706 1947 2009 
Q 1947 1309 1714 600 
Q 1481 -109 1013 -844 
L 513 -844 
Q 928 -128 1133 580 
Q 1338 1288 1338 2009 
Q 1338 2731 1133 3434 
Q 928 4138 513 4856 
z
" transform="scale(0.015625)"/>
       <path id="DejaVuSans-2c" d="M 750 794 
L 1409 794 
L 1409 256 
L 897 -744 
L 494 -744 
L 750 256 
L 750 794 
z
" transform="scale(0.015625)"/>
       <path id="DejaVuSans-36" d="M 2113 2584 
Q 1688 2584 1439 2293 
Q 1191 2003 1191 1497 
Q 1191 994 1439 701 
Q 1688 409 2113 409 
Q 2538 409 2786 701 
Q 3034 994 3034 1497 
Q 3034 2003 2786 2293 
Q 2538 2584 2113 2584 
z
M 3366 4563 
L 3366 3988 
Q 3128 4100 2886 4159 
Q 2644 4219 2406 4219 
Q 1781 4219 1451 3797 
Q 1122 3375 1075 2522 
Q 1259 2794 1537 2939 
Q 1816 3084 2150 3084 
Q 2853 3084 3261 2657 
Q 3669 2231 3669 1497 
Q 3669 778 3244 343 
Q 2819 -91 2113 -91 
Q 1303 -91 875 529 
Q 447 1150 447 2328 
Q 447 3434 972 4092 
Q 1497 4750 2381 4750 
Q 2619 4750 2861 4703 
Q 3103 4656 3366 4563 
z
" transform="scale(0.015625)"/>
      </defs>
      <use xlink:href="#DejaVuSans-44"/>
      <use xlink:href="#DejaVuSans-61" transform="translate(77.001953 0)"/>
      <use xlink:href="#DejaVuSans-74" transform="translate(138.28125 0)"/>
      <use xlink:href="#DejaVuSans-65" transform="translate(177.490234 0)"/>
      <use xlink:href="#DejaVuSans-20" transform="translate(239.013672 0)"/>
      <use xlink:href="#DejaVuSans-28" transform="translate(270.800781 0)"/>
      <use xlink:href="#DejaVuSans-59" transform="translate(309.814453 0)"/>
      <use xlink:href="#DejaVuSans-59" transform="translate(370.898438 0)"/>
      <use xlink:href="#DejaVuSans-59" transform="translate(431.982422 0)"/>
      <use xlink:href="#DejaVuSans-59" transform="translate(493.066406 0)"/>
      <use xlink:href="#DejaVuSans-2d" transform="translate(542.275391 0)"/>
      <use xlink:href="#DejaVuSans-4d" transform="translate(578.359375 0)"/>
      <use xlink:href="#DejaVuSans-4d" transform="translate(664.638672 0)"/>
      <use xlink:href="#DejaVuSans-2d" transform="translate(750.917969 0)"/>
      <use xlink:href="#DejaVuSans-44" transform="translate(787.001953 0)"/>
      <use xlink:href="#DejaVuSans-44" transform="translate(864.003906 0)"/>
      <use xlink:href="#DejaVuSans-29" transform="translate(941.005859 0)"/>
      <use xlink:href="#DejaVuSans-2c" transform="translate(980.019531 0)"/>
      <use xlink:href="#DejaVuSans-20" transform="translate(1011.806641 0)"/>
      <use xlink:href="#DejaVuSans-32" transform="translate(1043.59375 0)"/>
      <use xlink:href="#DejaVuSans-30" transform="translate(1107.216797 0)"/>
      <use xlink:href="#DejaVuSans-32" transform="translate(1170.839844 0)"/>
      <use xlink:href="#DejaVuSans-32" transform="translate(1234.462891 0)"/>
      <use xlink:href="#DejaVuSans-2d" transform="translate(1298.085938 0)"/>
      <use xlink:href="#DejaVuSans-30" transform="translate(1334.169922 0)"/>
      <use xlink:href="#DejaVuSans-38" transform="translate(1397.792969 0)"/>
      <use xlink:href="#DejaVuSans-2d" transform="translate(1461.416016 0)"/>
      <use xlink:href="#DejaVuSans-30" transform="translate(1497.5 0)"/>
      <use xlink:href="#DejaVuSans-31" transform="translate(1561.123047 0)"/>
      <use xlink:href="#DejaVuSans-20" transform="translate(1624.746094 0)"/>
      <use xlink:href="#DejaVuSans-2d" transform="translate(1656.533203 0)"/>
      <use xlink:href="#DejaVuSans-20" transform="translate(1692.617188 0)"/>
      <use xlink:href="#DejaVuSans-32" transform="translate(1724.404297 0)"/>
      <use xlink:href="#DejaVuSans-30" transform="translate(1788.027344 0)"/>
      <use xlink:href="#DejaVuSans-32" transform="translate(1851.650391 0)"/>
      <use xlink:href="#DejaVuSans-33" transform="translate(1915.273438 0)"/>
      <use xlink:href="#DejaVuSans-2d" transform="translate(1978.896484 0)"/>
      <use xlink:href="#DejaVuSans-30" transform="translate(2014.980469 0)"/>
      <use xlink:href="#DejaVuSans-36" transform="translate(2078.603516 0)"/>
      <use xlink:href="#DejaVuSans-2d" transform="translate(2142.226562 0)"/>
      <use xlink:href="#DejaVuSans-30" transform="translate(2178.310547 0)"/>
      <use xlink:href="#DejaVuSans-31" transform="translate(2241.933594 0)"/>
     </g>
    </g>
   </g>
   <g id="matplotlib.axis_2">
    <g id="ytick_1">
     <g id="line2d_17">
      <path d="M 135 444.223062 
L 972 444.223062 
" clip-path="url(#pa8ad8cf694)" style="fill: none; stroke: #b0b0b0; stroke-width: 0.8; stroke-linecap: square"/>
     </g>
     <g id="line2d_18">
      <defs>
       <path id="m48abb2a0fc" d="M 0 0 
L -3.5 0 
" style="stroke: #000000; stroke-width: 0.8"/>
      </defs>
      <g>
       <use xlink:href="#m48abb2a0fc" x="135" y="444.223062" style="stroke: #000000; stroke-width: 0.8"/>
      </g>
     </g>
     <g id="text_10">
      <!-- 0 -->
      <g transform="translate(121.6375 448.02228) scale(0.1 -0.1)">
       <use xlink:href="#DejaVuSans-30"/>
      </g>
     </g>
    </g>
    <g id="ytick_2">
     <g id="line2d_19">
      <path d="M 135 397.463618 
L 972 397.463618 
" clip-path="url(#pa8ad8cf694)" style="fill: none; stroke: #b0b0b0; stroke-width: 0.8; stroke-linecap: square"/>
     </g>
     <g id="line2d_20">
      <g>
       <use xlink:href="#m48abb2a0fc" x="135" y="397.463618" style="stroke: #000000; stroke-width: 0.8"/>
      </g>
     </g>
     <g id="text_11">
      <!-- 2000 -->
      <g transform="translate(102.55 401.262837) scale(0.1 -0.1)">
       <use xlink:href="#DejaVuSans-32"/>
       <use xlink:href="#DejaVuSans-30" transform="translate(63.623047 0)"/>
       <use xlink:href="#DejaVuSans-30" transform="translate(127.246094 0)"/>
       <use xlink:href="#DejaVuSans-30" transform="translate(190.869141 0)"/>
      </g>
     </g>
    </g>
    <g id="ytick_3">
     <g id="line2d_21">
      <path d="M 135 350.704175 
L 972 350.704175 
" clip-path="url(#pa8ad8cf694)" style="fill: none; stroke: #b0b0b0; stroke-width: 0.8; stroke-linecap: square"/>
     </g>
     <g id="line2d_22">
      <g>
       <use xlink:href="#m48abb2a0fc" x="135" y="350.704175" style="stroke: #000000; stroke-width: 0.8"/>
      </g>
     </g>
     <g id="text_12">
      <!-- 4000 -->
      <g transform="translate(102.55 354.503394) scale(0.1 -0.1)">
       <defs>
        <path id="DejaVuSans-34" d="M 2419 4116 
L 825 1625 
L 2419 1625 
L 2419 4116 
z
M 2253 4666 
L 3047 4666 
L 3047 1625 
L 3713 1625 
L 3713 1100 
L 3047 1100 
L 3047 0 
L 2419 0 
L 2419 1100 
L 313 1100 
L 313 1709 
L 2253 4666 
z
" transform="scale(0.015625)"/>
       </defs>
       <use xlink:href="#DejaVuSans-34"/>
       <use xlink:href="#DejaVuSans-30" transform="translate(63.623047 0)"/>
       <use xlink:href="#DejaVuSans-30" transform="translate(127.246094 0)"/>
       <use xlink:href="#DejaVuSans-30" transform="translate(190.869141 0)"/>
      </g>
     </g>
    </g>
    <g id="ytick_4">
     <g id="line2d_23">
      <path d="M 135 303.944732 
L 972 303.944732 
" clip-path="url(#pa8ad8cf694)" style="fill: none; stroke: #b0b0b0; stroke-width: 0.8; stroke-linecap: square"/>
     </g>
     <g id="line2d_24">
      <g>
       <use xlink:href="#m48abb2a0fc" x="135" y="303.944732" style="stroke: #000000; stroke-width: 0.8"/>
      </g>
     </g>
     <g id="text_13">
      <!-- 6000 -->
      <g transform="translate(102.55 307.74395) scale(0.1 -0.1)">
       <use xlink:href="#DejaVuSans-36"/>
       <use xlink:href="#DejaVuSans-30" transform="translate(63.623047 0)"/>
       <use xlink:href="#DejaVuSans-30" transform="translate(127.246094 0)"/>
       <use xlink:href="#DejaVuSans-30" transform="translate(190.869141 0)"/>
      </g>
     </g>
    </g>
    <g id="ytick_5">
     <g id="line2d_25">
      <path d="M 135 257.185288 
L 972 257.185288 
" clip-path="url(#pa8ad8cf694)" style="fill: none; stroke: #b0b0b0; stroke-width: 0.8; stroke-linecap: square"/>
     </g>
     <g id="line2d_26">
      <g>
       <use xlink:href="#m48abb2a0fc" x="135" y="257.185288" style="stroke: #000000; stroke-width: 0.8"/>
      </g>
     </g>
     <g id="text_14">
      <!-- 8000 -->
      <g transform="translate(102.55 260.984507) scale(0.1 -0.1)">
       <use xlink:href="#DejaVuSans-38"/>
       <use xlink:href="#DejaVuSans-30" transform="translate(63.623047 0)"/>
       <use xlink:href="#DejaVuSans-30" transform="translate(127.246094 0)"/>
       <use xlink:href="#DejaVuSans-30" transform="translate(190.869141 0)"/>
      </g>
     </g>
    </g>
    <g id="ytick_6">
     <g id="line2d_27">
      <path d="M 135 210.425845 
L 972 210.425845 
" clip-path="url(#pa8ad8cf694)" style="fill: none; stroke: #b0b0b0; stroke-width: 0.8; stroke-linecap: square"/>
     </g>
     <g id="line2d_28">
      <g>
       <use xlink:href="#m48abb2a0fc" x="135" y="210.425845" style="stroke: #000000; stroke-width: 0.8"/>
      </g>
     </g>
     <g id="text_15">
      <!-- 10000 -->
      <g transform="translate(96.1875 214.225064) scale(0.1 -0.1)">
       <use xlink:href="#DejaVuSans-31"/>
       <use xlink:href="#DejaVuSans-30" transform="translate(63.623047 0)"/>
       <use xlink:href="#DejaVuSans-30" transform="translate(127.246094 0)"/>
       <use xlink:href="#DejaVuSans-30" transform="translate(190.869141 0)"/>
       <use xlink:href="#DejaVuSans-30" transform="translate(254.492188 0)"/>
      </g>
     </g>
    </g>
    <g id="ytick_7">
     <g id="line2d_29">
      <path d="M 135 163.666402 
L 972 163.666402 
" clip-path="url(#pa8ad8cf694)" style="fill: none; stroke: #b0b0b0; stroke-width: 0.8; stroke-linecap: square"/>
     </g>
     <g id="line2d_30">
      <g>
       <use xlink:href="#m48abb2a0fc" x="135" y="163.666402" style="stroke: #000000; stroke-width: 0.8"/>
      </g>
     </g>
     <g id="text_16">
      <!-- 12000 -->
      <g transform="translate(96.1875 167.46562) scale(0.1 -0.1)">
       <use xlink:href="#DejaVuSans-31"/>
       <use xlink:href="#DejaVuSans-32" transform="translate(63.623047 0)"/>
       <use xlink:href="#DejaVuSans-30" transform="translate(127.246094 0)"/>
       <use xlink:href="#DejaVuSans-30" transform="translate(190.869141 0)"/>
       <use xlink:href="#DejaVuSans-30" transform="translate(254.492188 0)"/>
      </g>
     </g>
    </g>
    <g id="ytick_8">
     <g id="line2d_31">
      <path d="M 135 116.906958 
L 972 116.906958 
" clip-path="url(#pa8ad8cf694)" style="fill: none; stroke: #b0b0b0; stroke-width: 0.8; stroke-linecap: square"/>
     </g>
     <g id="line2d_32">
      <g>
       <use xlink:href="#m48abb2a0fc" x="135" y="116.906958" style="stroke: #000000; stroke-width: 0.8"/>
      </g>
     </g>
     <g id="text_17">
      <!-- 14000 -->
      <g transform="translate(96.1875 120.706177) scale(0.1 -0.1)">
       <use xlink:href="#DejaVuSans-31"/>
       <use xlink:href="#DejaVuSans-34" transform="translate(63.623047 0)"/>
       <use xlink:href="#DejaVuSans-30" transform="translate(127.246094 0)"/>
       <use xlink:href="#DejaVuSans-30" transform="translate(190.869141 0)"/>
       <use xlink:href="#DejaVuSans-30" transform="translate(254.492188 0)"/>
      </g>
     </g>
    </g>
    <g id="ytick_9">
     <g id="line2d_33">
      <path d="M 135 70.147515 
L 972 70.147515 
" clip-path="url(#pa8ad8cf694)" style="fill: none; stroke: #b0b0b0; stroke-width: 0.8; stroke-linecap: square"/>
     </g>
     <g id="line2d_34">
      <g>
       <use xlink:href="#m48abb2a0fc" x="135" y="70.147515" style="stroke: #000000; stroke-width: 0.8"/>
      </g>
     </g>
     <g id="text_18">
      <!-- 16000 -->
      <g transform="translate(96.1875 73.946734) scale(0.1 -0.1)">
       <use xlink:href="#DejaVuSans-31"/>
       <use xlink:href="#DejaVuSans-36" transform="translate(63.623047 0)"/>
       <use xlink:href="#DejaVuSans-30" transform="translate(127.246094 0)"/>
       <use xlink:href="#DejaVuSans-30" transform="translate(190.869141 0)"/>
       <use xlink:href="#DejaVuSans-30" transform="translate(254.492188 0)"/>
      </g>
     </g>
    </g>
    <g id="text_19">
     <!-- Pageview count -->
     <g transform="translate(90.107812 293.834063) rotate(-90) scale(0.1 -0.1)">
      <defs>
       <path id="DejaVuSans-50" d="M 1259 4147 
L 1259 2394 
L 2053 2394 
Q 2494 2394 2734 2622 
Q 2975 2850 2975 3272 
Q 2975 3691 2734 3919 
Q 2494 4147 2053 4147 
L 1259 4147 
z
M 628 4666 
L 2053 4666 
Q 2838 4666 3239 4311 
Q 3641 3956 3641 3272 
Q 3641 2581 3239 2228 
Q 2838 1875 2053 1875 
L 1259 1875 
L 1259 0 
L 628 0 
L 628 4666 
z
" transform="scale(0.015625)"/>
       <path id="DejaVuSans-67" d="M 2906 1791 
Q 2906 2416 2648 2759 
Q 2391 3103 1925 3103 
Q 1463 3103 1205 2759 
Q 947 2416 947 1791 
Q 947 1169 1205 825 
Q 1463 481 1925 481 
Q 2391 481 2648 825 
Q 2906 1169 2906 1791 
z
M 3481 434 
Q 3481 -459 3084 -895 
Q 2688 -1331 1869 -1331 
Q 1566 -1331 1297 -1286 
Q 1028 -1241 775 -1147 
L 775 -588 
Q 1028 -725 1275 -790 
Q 1522 -856 1778 -856 
Q 2344 -856 2625 -561 
Q 2906 -266 2906 331 
L 2906 616 
Q 2728 306 2450 153 
Q 2172 0 1784 0 
Q 1141 0 747 490 
Q 353 981 353 1791 
Q 353 2603 747 3093 
Q 1141 3584 1784 3584 
Q 2172 3584 2450 3431 
Q 2728 3278 2906 2969 
L 2906 3500 
L 3481 3500 
L 3481 434 
z
" transform="scale(0.015625)"/>
       <path id="DejaVuSans-76" d="M 191 3500 
L 800 3500 
L 1894 563 
L 2988 3500 
L 3597 3500 
L 2284 0 
L 1503 0 
L 191 3500 
z
" transform="scale(0.015625)"/>
       <path id="DejaVuSans-69" d="M 603 3500 
L 1178 3500 
L 1178 0 
L 603 0 
L 603 3500 
z
M 603 4863 
L 1178 4863 
L 1178 4134 
L 603 4134 
L 603 4863 
z
" transform="scale(0.015625)"/>
       <path id="DejaVuSans-77" d="M 269 3500 
L 844 3500 
L 1563 769 
L 2278 3500 
L 2956 3500 
L 3675 769 
L 4391 3500 
L 4966 3500 
L 4050 0 
L 3372 0 
L 2619 2869 
L 1863 0 
L 1184 0 
L 269 3500 
z
" transform="scale(0.015625)"/>
       <path id="DejaVuSans-63" d="M 3122 3366 
L 3122 2828 
Q 2878 2963 2633 3030 
Q 2388 3097 2138 3097 
Q 1578 3097 1268 2742 
Q 959 2388 959 1747 
Q 959 1106 1268 751 
Q 1578 397 2138 397 
Q 2388 397 2633 464 
Q 2878 531 3122 666 
L 3122 134 
Q 2881 22 2623 -34 
Q 2366 -91 2075 -91 
Q 1284 -91 818 406 
Q 353 903 353 1747 
Q 353 2603 823 3093 
Q 1294 3584 2113 3584 
Q 2378 3584 2631 3529 
Q 2884 3475 3122 3366 
z
" transform="scale(0.015625)"/>
       <path id="DejaVuSans-6f" d="M 1959 3097 
Q 1497 3097 1228 2736 
Q 959 2375 959 1747 
Q 959 1119 1226 758 
Q 1494 397 1959 397 
Q 2419 397 2687 759 
Q 2956 1122 2956 1747 
Q 2956 2369 2687 2733 
Q 2419 3097 1959 3097 
z
M 1959 3584 
Q 2709 3584 3137 3096 
Q 3566 2609 3566 1747 
Q 3566 888 3137 398 
Q 2709 -91 1959 -91 
Q 1206 -91 779 398 
Q 353 888 353 1747 
Q 353 2609 779 3096 
Q 1206 3584 1959 3584 
z
" transform="scale(0.015625)"/>
       <path id="DejaVuSans-75" d="M 544 1381 
L 544 3500 
L 1119 3500 
L 1119 1403 
Q 1119 906 1312 657 
Q 1506 409 1894 409 
Q 2359 409 2629 706 
Q 2900 1003 2900 1516 
L 2900 3500 
L 3475 3500 
L 3475 0 
L 2900 0 
L 2900 538 
Q 2691 219 2414 64 
Q 2138 -91 1772 -91 
Q 1169 -91 856 284 
Q 544 659 544 1381 
z
M 1991 3584 
L 1991 3584 
z
" transform="scale(0.015625)"/>
       <path id="DejaVuSans-6e" d="M 3513 2113 
L 3513 0 
L 2938 0 
L 2938 2094 
Q 2938 2591 2744 2837 
Q 2550 3084 2163 3084 
Q 1697 3084 1428 2787 
Q 1159 2491 1159 1978 
L 1159 0 
L 581 0 
L 581 3500 
L 1159 3500 
L 1159 2956 
Q 1366 3272 1645 3428 
Q 1925 3584 2291 3584 
Q 2894 3584 3203 3211 
Q 3513 2838 3513 2113 
z
" transform="scale(0.015625)"/>
      </defs>
      <use xlink:href="#DejaVuSans-50"/>
      <use xlink:href="#DejaVuSans-61" transform="translate(55.802734 0)"/>
      <use xlink:href="#DejaVuSans-67" transform="translate(117.082031 0)"/>
      <use xlink:href="#DejaVuSans-65" transform="translate(180.558594 0)"/>
      <use xlink:href="#DejaVuSans-76" transform="translate(242.082031 0)"/>
      <use xlink:href="#DejaVuSans-69" transform="translate(301.261719 0)"/>
      <use xlink:href="#DejaVuSans-65" transform="translate(329.044922 0)"/>
      <use xlink:href="#DejaVuSans-77" transform="translate(390.568359 0)"/>
      <use xlink:href="#DejaVuSans-20" transform="translate(472.355469 0)"/>
      <use xlink:href="#DejaVuSans-63" transform="translate(504.142578 0)"/>
      <use xlink:href="#DejaVuSans-6f" transform="translate(559.123047 0)"/>
      <use xlink:href="#DejaVuSans-75" transform="translate(620.304688 0)"/>
      <use xlink:href="#DejaVuSans-6e" transform="translate(683.683594 0)"/>
      <use xlink:href="#DejaVuSans-74" transform="translate(747.0625 0)"/>
     </g>
    </g>
   </g>
   <g id="line2d_35">
    <path d="M 173.045455 186.788946 
L 175.556706 184.006759 
L 178.067957 191.862346 
L 180.579208 186.625288 
L 183.090459 193.24175 
L 185.60171 210.168668 
L 188.112961 209.747833 
L 190.624212 181.037535 
L 193.135464 183.843101 
L 195.646715 189.547753 
L 198.157966 197.005885 
L 200.669217 205.352445 
L 203.180468 218.842545 
L 205.691719 201.915626 
L 208.20297 171.545368 
L 210.714221 170.259483 
L 213.225473 170.820596 
L 215.736724 185.269264 
L 218.247975 189.968588 
L 220.759226 208.952922 
L 223.270477 201.027197 
L 225.781728 172.994911 
L 228.292979 156.067992 
L 230.80423 138.182505 
L 233.315482 124.645646 
L 235.826733 161.538847 
L 238.337984 175.403022 
L 240.849235 173.135189 
L 243.360486 151.695984 
L 245.871737 142.320716 
L 248.382988 178.325487 
L 250.894239 155.880954 
L 253.405491 164.578211 
L 255.916742 175.403022 
L 258.427993 187.794274 
L 260.939244 152.490895 
L 263.450495 150.807555 
L 265.961746 167.337018 
L 268.472997 162.403897 
L 270.984248 172.503936 
L 273.4955 175.917376 
L 276.006751 170.984254 
L 278.518002 137.481113 
L 281.029253 117.327793 
L 283.540504 113.353241 
L 286.051755 118.940994 
L 288.563006 123.266243 
L 291.074257 142.648032 
L 293.585509 164.204135 
L 296.09676 127.123897 
L 298.608011 123.874115 
L 301.119262 110.92175 
L 303.630513 119.29169 
L 306.141764 142.390855 
L 308.653015 158.429344 
L 311.164266 163.175427 
L 313.675518 118.847475 
L 316.186769 130.981551 
L 318.69802 127.217416 
L 321.209271 136.10171 
L 323.720522 139.935984 
L 326.231773 169.324294 
L 328.743024 163.432604 
L 331.254275 124.435229 
L 333.765527 129.999602 
L 336.276778 141.268628 
L 338.788029 132.220676 
L 341.29928 159.57495 
L 343.810531 165.980994 
L 346.321782 168.669662 
L 348.833033 137.73829 
L 351.344284 126.726441 
L 353.855536 118.520159 
L 356.366787 129.064414 
L 358.878038 145.28994 
L 361.389289 158.75666 
L 363.90054 160.884215 
L 366.411791 130.350298 
L 368.923042 126.609543 
L 371.434293 128.783857 
L 373.945545 125.861392 
L 376.456796 145.780915 
L 378.968047 167.103221 
L 381.479298 163.736541 
L 383.990549 149.615189 
L 386.5018 133.52994 
L 389.013051 140.450338 
L 391.524302 137.574632 
L 394.035554 143.536461 
L 396.546805 152.91173 
L 399.058056 156.184891 
L 401.569307 135.891292 
L 404.080558 126.632922 
L 406.591809 101.733519 
L 409.10306 103.977972 
L 411.614311 107.48493 
L 414.125563 104.609225 
L 416.636814 95.561272 
L 419.148065 78.12 
L 421.659316 87.308231 
L 424.170567 99.044851 
L 426.681818 100.891849 
L 429.193069 100.400875 
L 431.70432 127.568111 
L 434.215572 126.118569 
L 436.726823 88.570736 
L 439.238074 100.050179 
L 441.749325 109.706004 
L 444.260576 99.629344 
L 446.771827 82.982982 
L 449.283078 117.421312 
L 451.794329 128.175984 
L 454.305581 111.108787 
L 456.816832 108.233082 
L 459.328083 109.285169 
L 461.839334 112.090736 
L 464.350585 125.066481 
L 466.861836 126.469264 
L 469.373087 114.148151 
L 471.884338 97.595308 
L 474.39559 110.454155 
L 476.906841 125.931531 
L 479.418092 129.672286 
L 481.929343 146.038091 
L 484.440594 163.713161 
L 486.951845 159.458052 
L 491.974347 132.898688 
L 494.485599 140.006123 
L 496.99685 134.885964 
L 499.508101 132.781789 
L 502.019352 120.273638 
L 504.530603 156.27841 
L 507.041854 138.766998 
L 509.553105 141.432286 
L 512.064356 168.786561 
L 514.575608 182.650736 
L 517.086859 190.132247 
L 519.59811 214.727714 
L 522.109361 231.911809 
L 524.620612 191.277853 
L 527.131863 198.22163 
L 529.643114 201.915626 
L 532.154365 202.710537 
L 534.665617 223.42497 
L 537.176868 254.052406 
L 539.688119 247.81002 
L 542.19937 205.983698 
L 544.710621 201.63507 
L 547.221872 201.260994 
L 549.733123 206.872127 
L 552.244374 221.881909 
L 554.755626 262.165169 
L 557.266877 249.376461 
L 559.778128 210.79992 
L 562.289379 197.005885 
L 564.80063 187.27992 
L 567.311881 192.563738 
L 569.823132 205.422584 
L 572.334383 216.972167 
L 574.845635 222.302744 
L 577.356886 181.271332 
L 579.868137 177.600716 
L 582.379388 169.69837 
L 584.890639 178.839841 
L 587.40189 193.288509 
L 589.913141 213.091133 
L 592.424392 207.363101 
L 594.935644 176.969463 
L 597.446895 174.67825 
L 599.958146 165.419881 
L 602.469397 163.011769 
L 604.980648 182.533837 
L 607.491899 199.08668 
L 610.00315 193.405408 
L 612.514401 167.687714 
L 615.025653 168.295586 
L 617.536904 170.329622 
L 620.048155 181.084294 
L 622.559406 189.82831 
L 625.070657 206.521431 
L 627.581908 197.42672 
L 630.093159 167.14998 
L 632.60441 167.360398 
L 635.115662 177.740994 
L 637.626913 182.791014 
L 640.138164 196.117455 
L 642.649415 205.516103 
L 645.160666 196.327873 
L 647.671917 175.683579 
L 650.183168 169.277535 
L 652.694419 184.708151 
L 655.205671 185.713479 
L 657.716922 196.000557 
L 660.228173 216.76175 
L 662.739424 217.439761 
L 665.250675 174.982187 
L 667.761926 193.826243 
L 670.273177 171.919443 
L 672.784428 188.074831 
L 675.29568 181.762306 
L 677.806931 161.655746 
L 680.318182 160.930974 
L 682.829433 131.566044 
L 685.340684 133.716978 
L 687.851935 130.21002 
L 690.363186 119.081272 
L 692.874437 140.23992 
L 695.385689 136.05495 
L 697.89694 127.334314 
L 700.408191 107.438171 
L 702.919442 118.122704 
L 705.430693 116.76668 
L 707.941944 134.722306 
L 710.453195 174.654871 
L 712.964446 182.884533 
L 715.475698 175.917376 
L 717.986949 142.671412 
L 720.4982 152.233718 
L 723.009451 166.214791 
L 725.520702 152.88835 
L 728.031953 163.385845 
L 730.543204 168.996978 
L 733.054455 166.121272 
L 735.565707 152.0233 
L 738.076958 156.021233 
L 740.588209 157.91499 
L 743.09946 153.566362 
L 745.610711 170.797217 
L 748.121962 180.266004 
L 750.633213 185.853757 
L 753.144464 162.474036 
L 755.655716 163.222187 
L 758.166967 156.138131 
L 760.678218 147.183698 
L 763.189469 174.818529 
L 765.70072 187.046123 
L 768.211971 183.889861 
L 770.723222 154.899006 
L 773.234473 127.942187 
L 775.745725 85.975586 
L 778.256976 121.699801 
L 780.768227 128.970895 
L 783.279478 149.147594 
L 785.790729 162.09996 
L 788.30198 136.639443 
L 790.813231 136.031571 
L 793.324482 156.021233 
L 795.835734 160.580278 
L 798.346985 155.880954 
L 800.858236 212.132565 
L 803.369487 195.74338 
L 805.880738 168.669662 
L 808.391989 189.126918 
L 810.90324 195.041988 
L 813.414491 188.12159 
L 815.925743 163.035149 
L 818.436994 204.580915 
L 820.948245 193.288509 
L 823.459496 198.291769 
L 825.970747 201.494791 
L 828.481998 201.167475 
L 830.993249 206.334394 
L 833.5045 216.340915 
L 836.015752 230.111571 
L 838.527003 227.048827 
L 841.038254 218.141153 
L 843.549505 211.992286 
L 846.060756 215.218688 
L 848.572007 227.002068 
L 851.083258 236.120159 
L 853.594509 246.570895 
L 856.105761 237.6866 
L 858.617012 207.176064 
L 861.128263 206.123976 
L 863.639514 207.316342 
L 866.150765 248.979006 
L 868.662016 270.675388 
L 871.173267 294.00835 
L 873.684518 299.525964 
L 876.19577 277.876342 
L 878.707021 281.40668 
L 881.218272 275.772167 
L 883.729523 274.953877 
L 886.240774 280.658529 
L 888.752025 289.075229 
L 891.263276 288.911571 
L 893.774527 271.376779 
L 896.285779 266.233241 
L 898.79703 266.092962 
L 901.308281 264.853837 
L 903.819532 275.959205 
L 906.330783 281.897654 
L 908.842034 262.024891 
L 911.353285 248.113956 
L 913.864536 251.340358 
L 916.375788 261.346879 
L 918.887039 261.370258 
L 921.39829 273.364056 
L 923.909541 291.202783 
L 926.420792 290.688429 
L 928.932043 267.916581 
L 931.443294 264.59666 
L 933.954545 260.177893 
L 933.954545 260.177893 
" clip-path="url(#pa8ad8cf694)" style="fill: none; stroke: #000000; stroke-width: 1.5; stroke-linecap: square"/>
   </g>
   <g id="line2d_36">
    <path d="M 173.045455 420.305606 
L 175.556706 421.194036 
L 178.067957 420.703062 
L 180.579208 420.02505 
L 183.090459 422.363022 
L 185.60171 424.467197 
L 188.112961 425.449145 
L 190.624212 418.29495 
L 193.135464 419.557455 
L 195.646715 421.731769 
L 198.157966 423.087793 
L 200.669217 422.853996 
L 203.180468 424.350298 
L 205.691719 425.706322 
L 208.20297 421.100517 
L 210.714221 412.637058 
L 215.736724 418.154672 
L 218.247975 418.29495 
L 220.759226 424.139881 
L 223.270477 422.970895 
L 225.781728 418.949583 
L 228.292979 420.983618 
L 230.80423 418.902823 
L 235.826733 418.832684 
L 238.337984 423.555388 
L 240.849235 422.222744 
L 243.360486 416.120636 
L 245.871737 417.125964 
L 248.382988 419.487316 
L 250.894239 419.627594 
L 253.405491 420.141948 
L 255.916742 425.91674 
L 258.427993 424.630855 
L 260.939244 420.235467 
L 263.450495 419.206759 
L 268.472997 420.936859 
L 270.984248 423.532008 
L 273.4955 424.817893 
L 276.006751 422.690338 
L 278.518002 417.897495 
L 281.029253 418.014394 
L 283.540504 418.715785 
L 286.051755 420.118569 
L 288.563006 420.399125 
L 291.074257 423.36835 
L 293.585509 424.2334 
L 296.09676 420.282227 
L 298.608011 418.154672 
L 301.119262 420.422505 
L 303.630513 417.920875 
L 306.141764 419.697734 
L 308.653015 423.274831 
L 311.164266 424.467197 
L 313.675518 417.45328 
L 316.186769 417.663698 
L 318.69802 419.13662 
L 321.209271 418.785924 
L 323.720522 420.399125 
L 326.231773 423.695666 
L 328.743024 423.578767 
L 331.254275 414.203499 
L 333.765527 415.536143 
L 336.276778 417.640318 
L 338.788029 417.663698 
L 341.29928 419.908151 
L 343.810531 423.461869 
L 346.321782 422.830616 
L 348.833033 420.656302 
L 351.344284 415.863459 
L 353.855536 417.663698 
L 356.366787 416.331054 
L 358.878038 418.154672 
L 361.389289 423.719046 
L 363.90054 423.508628 
L 366.411791 419.18338 
L 368.923042 416.65837 
L 371.434293 417.289622 
L 373.945545 418.949583 
L 376.456796 418.575507 
L 378.968047 421.170656 
L 381.479298 420.258847 
L 383.990549 418.481988 
L 386.5018 417.149344 
L 389.013051 417.850736 
L 391.524302 418.201431 
L 394.035554 418.669026 
L 396.546805 423.181312 
L 399.058056 423.765805 
L 401.569307 420.539404 
L 404.080558 417.710457 
L 406.591809 417.944254 
L 409.10306 418.972962 
L 411.614311 417.313002 
L 414.125563 422.012326 
L 416.636814 420.913479 
L 419.148065 416.892167 
L 421.659316 417.663698 
L 424.170567 417.429901 
L 426.681818 417.803976 
L 429.193069 419.580835 
L 431.70432 422.760477 
L 434.215572 422.760477 
L 436.726823 419.767873 
L 439.238074 420.445885 
L 441.749325 419.276899 
L 444.260576 416.68175 
L 446.771827 418.762545 
L 449.283078 424.093121 
L 451.794329 424.607475 
L 454.305581 416.401193 
L 456.816832 418.809304 
L 459.328083 420.258847 
L 461.839334 420.422505 
L 464.350585 420.749821 
L 466.861836 423.274831 
L 469.373087 423.017654 
L 471.884338 418.481988 
L 474.39559 417.429901 
L 476.906841 421.053757 
L 479.418092 419.721113 
L 481.929343 420.328986 
L 484.440594 423.765805 
L 486.951845 424.864652 
L 489.463096 419.954911 
L 494.485599 419.18338 
L 496.99685 419.97829 
L 499.508101 422.129225 
L 502.019352 423.789185 
L 504.530603 425.776461 
L 507.041854 420.118569 
L 509.553105 419.019722 
L 512.064356 420.936859 
L 514.575608 421.497972 
L 517.086859 422.970895 
L 519.59811 424.280159 
L 522.109361 425.168588 
L 524.620612 421.942187 
L 527.131863 422.433161 
L 529.643114 421.942187 
L 532.154365 422.737097 
L 534.665617 425.145209 
L 537.176868 426.73503 
L 539.688119 427.226004 
L 542.19937 425.963499 
L 544.710621 420.913479 
L 547.221872 422.152604 
L 549.733123 423.719046 
L 552.244374 423.742425 
L 554.755626 427.436421 
L 557.266877 425.8466 
L 562.289379 418.715785 
L 564.80063 420.141948 
L 567.311881 420.890099 
L 569.823132 422.386402 
L 572.334383 425.612803 
L 574.845635 421.427833 
L 577.356886 419.463936 
L 579.868137 416.915547 
L 582.379388 417.032445 
L 584.890639 419.440557 
L 587.40189 420.258847 
L 589.913141 423.228072 
L 592.424392 420.562783 
L 594.935644 418.458608 
L 597.446895 418.622266 
L 599.958146 418.972962 
L 602.469397 413.548867 
L 604.980648 417.757217 
L 607.491899 424.677614 
L 610.00315 424.584095 
L 612.514401 418.435229 
L 615.025653 417.640318 
L 617.536904 417.032445 
L 620.048155 419.744493 
L 622.559406 419.838012 
L 625.070657 423.34497 
L 627.581908 421.872048 
L 630.093159 419.463936 
L 632.60441 416.63499 
L 635.115662 420.703062 
L 637.626913 419.276899 
L 640.138164 418.832684 
L 642.649415 422.620199 
L 645.160666 423.719046 
L 647.671917 418.107913 
L 650.183168 419.721113 
L 652.694419 417.920875 
L 655.205671 419.019722 
L 657.716922 421.194036 
L 660.228173 423.157932 
L 662.739424 423.789185 
L 665.250675 420.586163 
L 667.761926 421.614871 
L 670.273177 417.219483 
L 672.784428 420.00167 
L 675.29568 419.908151 
L 677.806931 421.123897 
L 680.318182 419.300278 
L 682.829433 416.68175 
L 685.340684 417.991014 
L 687.851935 418.972962 
L 690.363186 416.377813 
L 692.874437 418.739165 
L 695.385689 421.404453 
L 697.89694 419.697734 
L 700.408191 416.65837 
L 705.430693 417.640318 
L 707.941944 417.570179 
L 710.453195 420.492644 
L 712.964446 420.235467 
L 715.475698 423.204692 
L 717.986949 417.780596 
L 723.009451 418.435229 
L 725.520702 417.803976 
L 728.031953 419.066481 
L 730.543204 424.420437 
L 733.054455 424.116501 
L 735.565707 419.534076 
L 738.076958 417.944254 
L 740.588209 417.172724 
L 743.09946 420.375746 
L 745.610711 418.224811 
L 748.121962 422.129225 
L 750.633213 424.116501 
L 753.144464 418.739165 
L 755.655716 420.492644 
L 758.166967 418.528748 
L 760.678218 417.570179 
L 763.189469 423.461869 
L 765.70072 423.812565 
L 768.211971 423.39173 
L 770.723222 417.733837 
L 773.234473 417.616938 
L 775.745725 415.933598 
L 778.256976 417.874115 
L 780.768227 419.440557 
L 783.279478 422.596819 
L 785.790729 424.069742 
L 788.30198 420.679682 
L 790.813231 417.102584 
L 793.324482 420.632922 
L 795.835734 420.84334 
L 798.346985 422.105845 
L 800.858236 423.859324 
L 803.369487 424.747753 
L 805.880738 422.55006 
L 808.391989 419.767873 
L 810.90324 419.627594 
L 813.414491 418.762545 
L 815.925743 420.095189 
L 818.436994 423.461869 
L 820.948245 423.648907 
L 823.459496 420.469264 
L 825.970747 420.095189 
L 828.481998 418.271571 
L 830.993249 421.264175 
L 833.5045 421.217416 
L 836.015752 426.220676 
L 838.527003 424.397058 
L 841.038254 418.201431 
L 843.549505 419.534076 
L 846.060756 418.505368 
L 848.572007 418.949583 
L 851.083258 420.165328 
L 853.594509 423.648907 
L 856.105761 423.812565 
L 858.617012 419.019722 
L 861.128263 416.120636 
L 863.639514 419.13662 
L 866.150765 419.674354 
L 868.662016 419.908151 
L 871.173267 424.490577 
L 873.684518 424.326918 
L 876.19577 421.334314 
L 878.707021 419.908151 
L 881.218272 419.931531 
L 883.729523 421.170656 
L 886.240774 422.924135 
L 888.752025 426.173917 
L 891.263276 425.425765 
L 893.774527 421.66163 
L 896.285779 419.954911 
L 898.79703 420.352366 
L 901.308281 421.357694 
L 903.819532 423.648907 
L 906.330783 424.794513 
L 908.842034 424.303539 
L 911.353285 422.55006 
L 913.864536 417.640318 
L 916.375788 418.692406 
L 918.887039 421.63825 
L 921.39829 421.100517 
L 923.909541 423.251451 
L 926.420792 424.350298 
L 928.932043 420.586163 
L 931.443294 418.528748 
L 933.954545 419.534076 
L 933.954545 419.534076 
" clip-path="url(#pa8ad8cf694)" style="fill: none; stroke: #ff0000; stroke-width: 1.5; stroke-linecap: square"/>
   </g>
   <g id="line2d_37">
    <path d="M 173.045455 400.456223 
L 175.556706 400.596501 
L 178.067957 399.263857 
L 180.579208 396.434911 
L 183.090459 404.220358 
L 185.60171 409.854871 
L 188.112961 407.212962 
L 190.624212 397.29996 
L 193.135464 398.562465 
L 195.646715 399.614553 
L 198.157966 399.544414 
L 200.669217 401.718728 
L 203.180468 409.223618 
L 205.691719 406.160875 
L 208.20297 399.778211 
L 210.714221 398.16501 
L 213.225473 394.283976 
L 215.736724 395.66338 
L 218.247975 401.344652 
L 220.759226 406.184254 
L 223.270477 403.425447 
L 225.781728 395.686759 
L 228.292979 394.424254 
L 230.80423 394.891849 
L 233.315482 392.460358 
L 235.826733 399.965249 
L 238.337984 402.466879 
L 240.849235 399.123579 
L 243.360486 392.507117 
L 245.871737 392.436978 
L 248.382988 395.990696 
L 250.894239 395.336064 
L 253.405491 400.175666 
L 255.916742 406.909026 
L 258.427993 406.067356 
L 263.450495 392.086282 
L 265.961746 398.14163 
L 268.472997 399.497654 
L 270.984248 402.34998 
L 273.4955 408.802783 
L 276.006751 406.418052 
L 278.518002 393.793002 
L 281.029253 393.068231 
L 283.540504 393.13837 
L 286.051755 395.429583 
L 288.563006 400.479602 
L 291.074257 407.189583 
L 293.585509 404.734712 
L 296.09676 393.722863 
L 298.608011 392.039523 
L 301.119262 389.935348 
L 303.630513 397.557137 
L 306.141764 402.162942 
L 308.653015 405.459483 
L 311.164266 403.963181 
L 313.675518 397.34672 
L 316.186769 394.424254 
L 318.69802 396.341392 
L 321.209271 394.704811 
L 323.720522 399.918489 
L 326.231773 406.58171 
L 328.743024 403.799523 
L 331.254275 397.650656 
L 333.765527 399.404135 
L 336.276778 396.388151 
L 338.788029 392.366839 
L 341.29928 397.042783 
L 343.810531 405.810179 
L 346.321782 405.342584 
L 348.833033 399.287237 
L 351.344284 398.352048 
L 353.855536 394.237217 
L 356.366787 396.738847 
L 358.878038 395.967316 
L 361.389289 405.646521 
L 363.90054 406.55833 
L 366.411791 395.476342 
L 368.923042 394.237217 
L 371.434293 394.213837 
L 373.945545 386.194592 
L 376.456796 390.58998 
L 378.968047 402.139563 
L 381.479298 403.121511 
L 383.990549 397.603897 
L 386.5018 396.808986 
L 389.013051 398.14163 
L 391.524302 400.362704 
L 394.035554 398.539085 
L 396.546805 408.756024 
L 399.058056 406.745368 
L 401.569307 400.128907 
L 404.080558 386.147833 
L 406.591809 398.352048 
L 409.10306 398.889781 
L 411.614311 400.058767 
L 414.125563 403.121511 
L 416.636814 405.599761 
L 419.148065 396.037455 
L 421.659316 394.868469 
L 424.170567 396.996024 
L 426.681818 397.089543 
L 429.193069 400.947197 
L 431.70432 405.669901 
L 434.215572 407.306481 
L 436.726823 399.965249 
L 439.238074 397.416859 
L 441.749325 394.260596 
L 444.260576 398.352048 
L 446.771827 400.64326 
L 449.283078 407.329861 
L 451.794329 406.815507 
L 454.305581 399.84835 
L 456.816832 401.368032 
L 459.328083 403.331928 
L 461.839334 407.844215 
L 464.350585 404.337256 
L 466.861836 406.277773 
L 469.373087 407.072684 
L 471.884338 397.206441 
L 474.39559 399.965249 
L 476.906841 399.544414 
L 479.418092 398.14163 
L 481.929343 404.384016 
L 484.440594 409.94839 
L 486.951845 411.725249 
L 489.463096 404.500915 
L 491.974347 401.765487 
L 494.485599 399.895109 
L 496.99685 403.448827 
L 499.508101 406.488191 
L 502.019352 412.099324 
L 504.530603 412.286362 
L 507.041854 403.425447 
L 509.553105 402.770815 
L 512.064356 402.3266 
L 514.575608 403.542346 
L 517.086859 409.05996 
L 519.59811 410.041909 
L 522.109361 411.304414 
L 524.620612 406.277773 
L 527.131863 404.945129 
L 529.643114 401.274513 
L 532.154365 408.545606 
L 534.665617 410.626402 
L 537.176868 417.383141 
L 539.688119 418.201431 
L 542.19937 406.955785 
L 544.710621 408.148151 
L 549.733123 409.387276 
L 552.244374 410.158807 
L 554.755626 415.699801 
L 557.266877 416.377813 
L 559.778128 405.74004 
L 562.289379 403.074751 
L 564.80063 400.152286 
L 567.311881 396.902505 
L 569.823132 402.139563 
L 572.334383 410.345845 
L 574.845635 408.849543 
L 577.356886 401.905765 
L 579.868137 400.386083 
L 582.379388 398.632604 
L 584.890639 399.357376 
L 587.40189 398.14163 
L 589.913141 407.727316 
L 592.424392 406.160875 
L 594.935644 399.918489 
L 597.446895 396.318012 
L 599.958146 398.492326 
L 602.469397 396.45829 
L 604.980648 402.022664 
L 607.491899 408.007873 
L 610.00315 407.820835 
L 612.514401 395.102266 
L 615.025653 398.913161 
L 617.536904 398.468946 
L 620.048155 397.650656 
L 622.559406 400.058767 
L 625.070657 406.418052 
L 627.581908 404.290497 
L 630.093159 398.258529 
L 632.60441 396.201113 
L 635.115662 397.370099 
L 637.626913 400.993956 
L 640.138164 400.362704 
L 642.649415 407.142823 
L 645.160666 406.838887 
L 647.671917 398.655984 
L 650.183168 400.269185 
L 652.694419 397.440239 
L 655.205671 397.159682 
L 657.716922 401.064095 
L 660.228173 408.756024 
L 662.739424 405.973837 
L 665.250675 397.463618 
L 667.761926 397.440239 
L 670.273177 397.884453 
L 672.784428 400.596501 
L 675.29568 401.671968 
L 677.806931 410.252326 
L 680.318182 406.932406 
L 682.829433 398.352048 
L 685.340684 399.310616 
L 687.851935 396.177734 
L 690.363186 394.424254 
L 692.874437 398.539085 
L 695.385689 407.563658 
L 697.89694 399.217097 
L 700.408191 394.704811 
L 702.919442 394.77495 
L 705.430693 395.149026 
L 707.941944 398.9833 
L 710.453195 398.352048 
L 712.964446 404.804851 
L 715.475698 406.067356 
L 717.986949 396.855746 
L 720.4982 397.861074 
L 723.009451 400.058767 
L 725.520702 397.206441 
L 728.031953 400.7134 
L 730.543204 405.482863 
L 733.054455 408.498847 
L 735.565707 399.146958 
L 740.588209 398.211769 
L 743.09946 400.269185 
L 745.610711 401.53169 
L 748.121962 407.37662 
L 750.633213 407.844215 
L 753.144464 395.195785 
L 755.655716 396.902505 
L 758.166967 398.843022 
L 760.678218 397.253201 
L 765.70072 407.820835 
L 768.211971 408.24167 
L 770.723222 399.544414 
L 773.234473 397.253201 
L 775.745725 393.95666 
L 778.256976 396.551809 
L 780.768227 401.157614 
L 783.279478 405.202306 
L 785.790729 403.402068 
L 788.30198 399.895109 
L 790.813231 396.996024 
L 793.324482 402.37336 
L 795.835734 404.594433 
L 798.346985 407.259722 
L 800.858236 412.824095 
L 803.369487 413.899563 
L 805.880738 405.225686 
L 808.391989 401.251133 
L 810.90324 400.058767 
L 813.414491 400.362704 
L 815.925743 404.103459 
L 818.436994 410.065288 
L 820.948245 409.200239 
L 823.459496 402.864334 
L 825.970747 402.957853 
L 828.481998 396.785606 
L 830.993249 391.688827 
L 833.5045 393.605964 
L 836.015752 407.961113 
L 838.527003 408.615746 
L 841.038254 398.9833 
L 843.549505 400.783539 
L 846.060756 397.977972 
L 848.572007 399.84835 
L 851.083258 403.495586 
L 853.594509 411.56159 
L 856.105761 411.351173 
L 858.617012 406.53495 
L 861.128263 401.180994 
L 863.639514 400.245805 
L 866.150765 398.889781 
L 868.662016 404.126839 
L 871.173267 410.018529 
L 873.684518 411.538211 
L 876.19577 401.438171 
L 878.707021 402.864334 
L 881.218272 403.074751 
L 883.729523 399.427515 
L 886.240774 406.254394 
L 888.752025 413.431968 
L 891.263276 408.896302 
L 893.774527 398.328668 
L 896.285779 397.697416 
L 898.79703 399.544414 
L 901.308281 401.087475 
L 903.819532 406.160875 
L 906.330783 412.543539 
L 908.842034 409.831491 
L 911.353285 398.702744 
L 913.864536 397.019404 
L 916.375788 399.684692 
L 918.887039 401.297893 
L 921.39829 401.087475 
L 923.909541 409.10672 
L 926.420792 412.239602 
L 928.932043 402.303221 
L 933.954545 399.03006 
L 933.954545 399.03006 
" clip-path="url(#pa8ad8cf694)" style="fill: none; stroke: #ffa500; stroke-width: 1.5; stroke-linecap: square"/>
   </g>
   <g id="line2d_38">
    <path d="M 173.045455 426.501233 
L 175.556706 428.41837 
L 178.067957 425.986879 
L 180.579208 427.459801 
L 183.090459 427.60008 
L 185.60171 428.769066 
L 188.112961 428.582028 
L 190.624212 426.477853 
L 193.135464 426.290815 
L 195.646715 428.020915 
L 198.157966 427.319523 
L 200.669217 427.670219 
L 203.180468 427.155865 
L 205.691719 426.337575 
L 208.20297 426.594751 
L 210.714221 426.010258 
L 213.225473 427.226004 
L 215.736724 424.841272 
L 218.247975 425.986879 
L 220.759226 428.231332 
L 225.781728 425.098449 
L 228.292979 425.776461 
L 230.80423 427.202624 
L 233.315482 424.584095 
L 235.826733 424.537336 
L 238.337984 426.922068 
L 240.849235 426.314195 
L 243.360486 426.010258 
L 245.871737 424.420437 
L 248.382988 424.326918 
L 250.894239 425.963499 
L 253.405491 427.272763 
L 255.916742 426.73503 
L 258.427993 429.587356 
L 260.939244 426.454473 
L 263.450495 425.449145 
L 265.961746 426.992207 
L 268.472997 425.612803 
L 270.984248 427.459801 
L 273.4955 427.810497 
L 276.006751 425.238728 
L 278.518002 425.379006 
L 281.029253 425.91674 
L 283.540504 423.228072 
L 286.051755 424.467197 
L 288.563006 425.542664 
L 291.074257 426.360954 
L 293.585509 425.589423 
L 296.09676 419.113241 
L 298.608011 424.373678 
L 301.119262 423.812565 
L 303.630513 424.21002 
L 306.141764 423.134553 
L 308.653015 426.290815 
L 311.164266 421.848668 
L 313.675518 422.877376 
L 316.186769 422.012326 
L 318.69802 421.63825 
L 321.209271 424.700994 
L 323.720522 425.753082 
L 326.231773 424.654235 
L 328.743024 423.39173 
L 331.254275 422.456541 
L 333.765527 425.589423 
L 336.276778 424.630855 
L 338.788029 421.310934 
L 341.29928 425.238728 
L 343.810531 423.789185 
L 346.321782 423.859324 
L 348.833033 421.077137 
L 351.344284 424.116501 
L 353.855536 419.814632 
L 356.366787 418.365089 
L 358.878038 423.789185 
L 361.389289 428.184573 
L 363.90054 422.5033 
L 366.411791 421.427833 
L 368.923042 423.555388 
L 371.434293 426.594751 
L 373.945545 424.420437 
L 378.968047 424.443817 
L 381.479298 425.332247 
L 383.990549 424.911412 
L 386.5018 413.29169 
L 389.013051 421.404453 
L 391.524302 421.264175 
L 394.035554 422.760477 
L 396.546805 425.07507 
L 399.058056 423.36835 
L 401.569307 421.170656 
L 404.080558 423.602147 
L 406.591809 422.620199 
L 409.10306 424.2334 
L 411.614311 425.402386 
L 414.125563 423.157932 
L 416.636814 426.033638 
L 419.148065 423.39173 
L 421.659316 423.157932 
L 424.170567 422.760477 
L 429.193069 424.303539 
L 431.70432 424.677614 
L 434.215572 425.215348 
L 436.726823 424.771133 
L 439.238074 425.191968 
L 441.749325 423.812565 
L 444.260576 423.508628 
L 446.771827 425.706322 
L 449.283078 425.89336 
L 451.794329 425.799841 
L 454.305581 425.519284 
L 456.816832 424.677614 
L 459.328083 425.659563 
L 461.839334 425.285487 
L 464.350585 427.857256 
L 466.861836 427.319523 
L 469.373087 429.563976 
L 471.884338 425.636183 
L 474.39559 424.934791 
L 476.906841 425.098449 
L 479.418092 423.555388 
L 481.929343 423.602147 
L 484.440594 425.215348 
L 489.463096 423.648907 
L 491.974347 420.726441 
L 494.485599 423.34497 
L 496.99685 424.771133 
L 499.508101 426.71165 
L 502.019352 425.402386 
L 504.530603 423.929463 
L 507.041854 421.147276 
L 509.553105 420.749821 
L 512.064356 422.620199 
L 514.575608 424.022982 
L 517.086859 424.630855 
L 522.109361 427.249384 
L 524.620612 424.654235 
L 527.131863 423.532008 
L 529.643114 424.18664 
L 532.154365 422.52668 
L 534.665617 425.215348 
L 537.176868 425.8466 
L 539.688119 428.231332 
L 544.710621 423.041034 
L 547.221872 417.406521 
L 552.244374 422.690338 
L 554.755626 422.129225 
L 557.266877 422.175984 
L 559.778128 420.726441 
L 562.289379 420.562783 
L 564.80063 418.528748 
L 567.311881 417.827356 
L 569.823132 420.141948 
L 572.334383 415.84008 
L 574.845635 415.582903 
L 577.356886 399.731451 
L 579.868137 358.232445 
L 582.379388 369.384573 
L 584.890639 392.343459 
L 587.40189 407.914354 
L 589.913141 408.779404 
L 592.424392 408.779404 
L 594.935644 418.34171 
L 597.446895 420.656302 
L 599.958146 417.733837 
L 602.469397 415.933598 
L 604.980648 416.822028 
L 607.491899 418.435229 
L 610.00315 417.663698 
L 612.514401 417.079205 
L 615.025653 413.712525 
L 620.048155 418.224811 
L 622.559406 418.248191 
L 625.070657 420.071809 
L 627.581908 421.357694 
L 630.093159 418.879443 
L 632.60441 420.375746 
L 635.115662 418.926203 
L 637.626913 418.224811 
L 640.138164 420.422505 
L 642.649415 422.129225 
L 645.160666 420.703062 
L 647.671917 420.632922 
L 650.183168 419.627594 
L 652.694419 412.286362 
L 655.205671 413.525487 
L 657.716922 419.580835 
L 660.228173 420.258847 
L 665.250675 421.194036 
L 667.761926 422.5033 
L 670.273177 418.669026 
L 672.784428 422.620199 
L 677.806931 423.274831 
L 680.318182 424.888032 
L 682.829433 422.339642 
L 685.340684 420.586163 
L 687.851935 424.630855 
L 690.363186 423.438489 
L 692.874437 423.976223 
L 695.385689 427.062346 
L 697.89694 423.742425 
L 700.408191 423.438489 
L 702.919442 423.882704 
L 705.430693 422.152604 
L 707.941944 422.994274 
L 710.453195 424.747753 
L 715.475698 424.373678 
L 717.986949 424.513956 
L 720.4982 423.111173 
L 723.009451 426.173917 
L 725.520702 424.841272 
L 728.031953 423.251451 
L 730.543204 422.830616 
L 733.054455 424.513956 
L 735.565707 423.742425 
L 738.076958 416.494712 
L 740.588209 421.70839 
L 743.09946 423.695666 
L 745.610711 424.350298 
L 748.121962 423.438489 
L 750.633213 423.719046 
L 753.144464 422.830616 
L 755.655716 423.695666 
L 758.166967 422.152604 
L 760.678218 425.753082 
L 763.189469 425.986879 
L 765.70072 425.589423 
L 768.211971 426.594751 
L 770.723222 424.584095 
L 773.234473 415.302346 
L 775.745725 419.066481 
L 778.256976 421.755149 
L 780.768227 424.607475 
L 783.279478 425.86998 
L 785.790729 424.607475 
L 788.30198 424.256779 
L 790.813231 424.303539 
L 793.324482 426.594751 
L 795.835734 423.555388 
L 798.346985 426.547992 
L 800.858236 429.096382 
L 803.369487 427.55332 
L 805.880738 427.038966 
L 808.391989 425.776461 
L 810.90324 427.810497 
L 813.414491 428.792445 
L 815.925743 430.10171 
L 818.436994 429.821153 
L 820.948245 430.358887 
L 823.459496 428.722306 
L 825.970747 428.41837 
L 828.481998 426.057018 
L 830.993249 427.646839 
L 833.5045 430.10171 
L 836.015752 430.382266 
L 838.527003 430.10171 
L 841.038254 427.202624 
L 846.060756 427.997535 
L 848.572007 425.519284 
L 851.083258 425.121829 
L 853.594509 427.296143 
L 856.105761 425.589423 
L 858.617012 425.986879 
L 861.128263 426.033638 
L 863.639514 425.91674 
L 866.150765 425.589423 
L 868.662016 428.37161 
L 871.173267 428.675547 
L 873.684518 427.52994 
L 876.19577 428.605408 
L 878.707021 426.968827 
L 881.218272 427.319523 
L 883.729523 427.55332 
L 886.240774 425.215348 
L 888.752025 428.465129 
L 891.263276 430.92 
L 893.774527 427.670219 
L 896.285779 427.52994 
L 898.79703 426.828549 
L 901.308281 428.301471 
L 903.819532 428.067674 
L 906.330783 429.026243 
L 908.842034 429.306799 
L 911.353285 426.197296 
L 913.864536 427.787117 
L 916.375788 427.55332 
L 918.887039 429.096382 
L 921.39829 428.511889 
L 923.909541 428.979483 
L 926.420792 428.558648 
L 928.932043 427.155865 
L 931.443294 427.342903 
L 933.954545 427.109105 
L 933.954545 427.109105 
" clip-path="url(#pa8ad8cf694)" style="fill: none; stroke: #0000ff; stroke-width: 1.5; stroke-linecap: square"/>
   </g>
   <g id="patch_3">
    <path d="M 135 448.56 
L 135 60.48 
" style="fill: none; stroke: #000000; stroke-width: 0.8; stroke-linejoin: miter; stroke-linecap: square"/>
   </g>
   <g id="patch_4">
    <path d="M 972 448.56 
L 972 60.48 
" style="fill: none; stroke: #000000; stroke-width: 0.8; stroke-linejoin: miter; stroke-linecap: square"/>
   </g>
   <g id="patch_5">
    <path d="M 135 448.56 
L 972 448.56 
" style="fill: none; stroke: #000000; stroke-width: 0.8; stroke-linejoin: miter; stroke-linecap: square"/>
   </g>
   <g id="patch_6">
    <path d="M 135 60.48 
L 972 60.48 
" style="fill: none; stroke: #000000; stroke-width: 0.8; stroke-linejoin: miter; stroke-linecap: square"/>
   </g>
   <g id="text_20">
    <!-- Pageviews data for pages Linux, Debian, Ubuntu and Windows 8.1 -->
    <g transform="translate(354.175313 54.48) scale(0.12 -0.12)">
     <defs>
      <path id="DejaVuSans-73" d="M 2834 3397 
L 2834 2853 
Q 2591 2978 2328 3040 
Q 2066 3103 1784 3103 
Q 1356 3103 1142 2972 
Q 928 2841 928 2578 
Q 928 2378 1081 2264 
Q 1234 2150 1697 2047 
L 1894 2003 
Q 2506 1872 2764 1633 
Q 3022 1394 3022 966 
Q 3022 478 2636 193 
Q 2250 -91 1575 -91 
Q 1294 -91 989 -36 
Q 684 19 347 128 
L 347 722 
Q 666 556 975 473 
Q 1284 391 1588 391 
Q 1994 391 2212 530 
Q 2431 669 2431 922 
Q 2431 1156 2273 1281 
Q 2116 1406 1581 1522 
L 1381 1569 
Q 847 1681 609 1914 
Q 372 2147 372 2553 
Q 372 3047 722 3315 
Q 1072 3584 1716 3584 
Q 2034 3584 2315 3537 
Q 2597 3491 2834 3397 
z
" transform="scale(0.015625)"/>
      <path id="DejaVuSans-64" d="M 2906 2969 
L 2906 4863 
L 3481 4863 
L 3481 0 
L 2906 0 
L 2906 525 
Q 2725 213 2448 61 
Q 2172 -91 1784 -91 
Q 1150 -91 751 415 
Q 353 922 353 1747 
Q 353 2572 751 3078 
Q 1150 3584 1784 3584 
Q 2172 3584 2448 3432 
Q 2725 3281 2906 2969 
z
M 947 1747 
Q 947 1113 1208 752 
Q 1469 391 1925 391 
Q 2381 391 2643 752 
Q 2906 1113 2906 1747 
Q 2906 2381 2643 2742 
Q 2381 3103 1925 3103 
Q 1469 3103 1208 2742 
Q 947 2381 947 1747 
z
" transform="scale(0.015625)"/>
      <path id="DejaVuSans-66" d="M 2375 4863 
L 2375 4384 
L 1825 4384 
Q 1516 4384 1395 4259 
Q 1275 4134 1275 3809 
L 1275 3500 
L 2222 3500 
L 2222 3053 
L 1275 3053 
L 1275 0 
L 697 0 
L 697 3053 
L 147 3053 
L 147 3500 
L 697 3500 
L 697 3744 
Q 697 4328 969 4595 
Q 1241 4863 1831 4863 
L 2375 4863 
z
" transform="scale(0.015625)"/>
      <path id="DejaVuSans-72" d="M 2631 2963 
Q 2534 3019 2420 3045 
Q 2306 3072 2169 3072 
Q 1681 3072 1420 2755 
Q 1159 2438 1159 1844 
L 1159 0 
L 581 0 
L 581 3500 
L 1159 3500 
L 1159 2956 
Q 1341 3275 1631 3429 
Q 1922 3584 2338 3584 
Q 2397 3584 2469 3576 
Q 2541 3569 2628 3553 
L 2631 2963 
z
" transform="scale(0.015625)"/>
      <path id="DejaVuSans-70" d="M 1159 525 
L 1159 -1331 
L 581 -1331 
L 581 3500 
L 1159 3500 
L 1159 2969 
Q 1341 3281 1617 3432 
Q 1894 3584 2278 3584 
Q 2916 3584 3314 3078 
Q 3713 2572 3713 1747 
Q 3713 922 3314 415 
Q 2916 -91 2278 -91 
Q 1894 -91 1617 61 
Q 1341 213 1159 525 
z
M 3116 1747 
Q 3116 2381 2855 2742 
Q 2594 3103 2138 3103 
Q 1681 3103 1420 2742 
Q 1159 2381 1159 1747 
Q 1159 1113 1420 752 
Q 1681 391 2138 391 
Q 2594 391 2855 752 
Q 3116 1113 3116 1747 
z
" transform="scale(0.015625)"/>
      <path id="DejaVuSans-4c" d="M 628 4666 
L 1259 4666 
L 1259 531 
L 3531 531 
L 3531 0 
L 628 0 
L 628 4666 
z
" transform="scale(0.015625)"/>
      <path id="DejaVuSans-78" d="M 3513 3500 
L 2247 1797 
L 3578 0 
L 2900 0 
L 1881 1375 
L 863 0 
L 184 0 
L 1544 1831 
L 300 3500 
L 978 3500 
L 1906 2253 
L 2834 3500 
L 3513 3500 
z
" transform="scale(0.015625)"/>
      <path id="DejaVuSans-62" d="M 3116 1747 
Q 3116 2381 2855 2742 
Q 2594 3103 2138 3103 
Q 1681 3103 1420 2742 
Q 1159 2381 1159 1747 
Q 1159 1113 1420 752 
Q 1681 391 2138 391 
Q 2594 391 2855 752 
Q 3116 1113 3116 1747 
z
M 1159 2969 
Q 1341 3281 1617 3432 
Q 1894 3584 2278 3584 
Q 2916 3584 3314 3078 
Q 3713 2572 3713 1747 
Q 3713 922 3314 415 
Q 2916 -91 2278 -91 
Q 1894 -91 1617 61 
Q 1341 213 1159 525 
L 1159 0 
L 581 0 
L 581 4863 
L 1159 4863 
L 1159 2969 
z
" transform="scale(0.015625)"/>
      <path id="DejaVuSans-55" d="M 556 4666 
L 1191 4666 
L 1191 1831 
Q 1191 1081 1462 751 
Q 1734 422 2344 422 
Q 2950 422 3222 751 
Q 3494 1081 3494 1831 
L 3494 4666 
L 4128 4666 
L 4128 1753 
Q 4128 841 3676 375 
Q 3225 -91 2344 -91 
Q 1459 -91 1007 375 
Q 556 841 556 1753 
L 556 4666 
z
" transform="scale(0.015625)"/>
      <path id="DejaVuSans-57" d="M 213 4666 
L 850 4666 
L 1831 722 
L 2809 4666 
L 3519 4666 
L 4500 722 
L 5478 4666 
L 6119 4666 
L 4947 0 
L 4153 0 
L 3169 4050 
L 2175 0 
L 1381 0 
L 213 4666 
z
" transform="scale(0.015625)"/>
      <path id="DejaVuSans-2e" d="M 684 794 
L 1344 794 
L 1344 0 
L 684 0 
L 684 794 
z
" transform="scale(0.015625)"/>
     </defs>
     <use xlink:href="#DejaVuSans-50"/>
     <use xlink:href="#DejaVuSans-61" transform="translate(55.802734 0)"/>
     <use xlink:href="#DejaVuSans-67" transform="translate(117.082031 0)"/>
     <use xlink:href="#DejaVuSans-65" transform="translate(180.558594 0)"/>
     <use xlink:href="#DejaVuSans-76" transform="translate(242.082031 0)"/>
     <use xlink:href="#DejaVuSans-69" transform="translate(301.261719 0)"/>
     <use xlink:href="#DejaVuSans-65" transform="translate(329.044922 0)"/>
     <use xlink:href="#DejaVuSans-77" transform="translate(390.568359 0)"/>
     <use xlink:href="#DejaVuSans-73" transform="translate(472.355469 0)"/>
     <use xlink:href="#DejaVuSans-20" transform="translate(524.455078 0)"/>
     <use xlink:href="#DejaVuSans-64" transform="translate(556.242188 0)"/>
     <use xlink:href="#DejaVuSans-61" transform="translate(619.71875 0)"/>
     <use xlink:href="#DejaVuSans-74" transform="translate(680.998047 0)"/>
     <use xlink:href="#DejaVuSans-61" transform="translate(720.207031 0)"/>
     <use xlink:href="#DejaVuSans-20" transform="translate(781.486328 0)"/>
     <use xlink:href="#DejaVuSans-66" transform="translate(813.273438 0)"/>
     <use xlink:href="#DejaVuSans-6f" transform="translate(848.478516 0)"/>
     <use xlink:href="#DejaVuSans-72" transform="translate(909.660156 0)"/>
     <use xlink:href="#DejaVuSans-20" transform="translate(950.773438 0)"/>
     <use xlink:href="#DejaVuSans-70" transform="translate(982.560547 0)"/>
     <use xlink:href="#DejaVuSans-61" transform="translate(1046.037109 0)"/>
     <use xlink:href="#DejaVuSans-67" transform="translate(1107.316406 0)"/>
     <use xlink:href="#DejaVuSans-65" transform="translate(1170.792969 0)"/>
     <use xlink:href="#DejaVuSans-73" transform="translate(1232.316406 0)"/>
     <use xlink:href="#DejaVuSans-20" transform="translate(1284.416016 0)"/>
     <use xlink:href="#DejaVuSans-4c" transform="translate(1316.203125 0)"/>
     <use xlink:href="#DejaVuSans-69" transform="translate(1371.916016 0)"/>
     <use xlink:href="#DejaVuSans-6e" transform="translate(1399.699219 0)"/>
     <use xlink:href="#DejaVuSans-75" transform="translate(1463.078125 0)"/>
     <use xlink:href="#DejaVuSans-78" transform="translate(1526.457031 0)"/>
     <use xlink:href="#DejaVuSans-2c" transform="translate(1585.636719 0)"/>
     <use xlink:href="#DejaVuSans-20" transform="translate(1617.423828 0)"/>
     <use xlink:href="#DejaVuSans-44" transform="translate(1649.210938 0)"/>
     <use xlink:href="#DejaVuSans-65" transform="translate(1726.212891 0)"/>
     <use xlink:href="#DejaVuSans-62" transform="translate(1787.736328 0)"/>
     <use xlink:href="#DejaVuSans-69" transform="translate(1851.212891 0)"/>
     <use xlink:href="#DejaVuSans-61" transform="translate(1878.996094 0)"/>
     <use xlink:href="#DejaVuSans-6e" transform="translate(1940.275391 0)"/>
     <use xlink:href="#DejaVuSans-2c" transform="translate(2003.654297 0)"/>
     <use xlink:href="#DejaVuSans-20" transform="translate(2035.441406 0)"/>
     <use xlink:href="#DejaVuSans-55" transform="translate(2067.228516 0)"/>
     <use xlink:href="#DejaVuSans-62" transform="translate(2140.421875 0)"/>
     <use xlink:href="#DejaVuSans-75" transform="translate(2203.898438 0)"/>
     <use xlink:href="#DejaVuSans-6e" transform="translate(2267.277344 0)"/>
     <use xlink:href="#DejaVuSans-74" transform="translate(2330.65625 0)"/>
     <use xlink:href="#DejaVuSans-75" transform="translate(2369.865234 0)"/>
     <use xlink:href="#DejaVuSans-20" transform="translate(2433.244141 0)"/>
     <use xlink:href="#DejaVuSans-61" transform="translate(2465.03125 0)"/>
     <use xlink:href="#DejaVuSans-6e" transform="translate(2526.310547 0)"/>
     <use xlink:href="#DejaVuSans-64" transform="translate(2589.689453 0)"/>
     <use xlink:href="#DejaVuSans-20" transform="translate(2653.166016 0)"/>
     <use xlink:href="#DejaVuSans-57" transform="translate(2684.953125 0)"/>
     <use xlink:href="#DejaVuSans-69" transform="translate(2781.580078 0)"/>
     <use xlink:href="#DejaVuSans-6e" transform="translate(2809.363281 0)"/>
     <use xlink:href="#DejaVuSans-64" transform="translate(2872.742188 0)"/>
     <use xlink:href="#DejaVuSans-6f" transform="translate(2936.21875 0)"/>
     <use xlink:href="#DejaVuSans-77" transform="translate(2997.400391 0)"/>
     <use xlink:href="#DejaVuSans-73" transform="translate(3079.1875 0)"/>
     <use xlink:href="#DejaVuSans-20" transform="translate(3131.287109 0)"/>
     <use xlink:href="#DejaVuSans-38" transform="translate(3163.074219 0)"/>
     <use xlink:href="#DejaVuSans-2e" transform="translate(3226.697266 0)"/>
     <use xlink:href="#DejaVuSans-31" transform="translate(3258.484375 0)"/>
    </g>
   </g>
   <g id="legend_1">
    <g id="patch_7">
     <path d="M 869.285938 127.1925 
L 965 127.1925 
Q 967 127.1925 967 125.1925 
L 967 67.48 
Q 967 65.48 965 65.48 
L 869.285938 65.48 
Q 867.285938 65.48 867.285938 67.48 
L 867.285938 125.1925 
Q 867.285938 127.1925 869.285938 127.1925 
z
" style="fill: #ffffff; opacity: 0.8; stroke: #cccccc; stroke-linejoin: miter"/>
    </g>
    <g id="line2d_39">
     <path d="M 871.285938 73.578438 
L 881.285938 73.578438 
L 891.285938 73.578438 
" style="fill: none; stroke: #000000; stroke-width: 1.5; stroke-linecap: square"/>
    </g>
    <g id="text_21">
     <!-- Linux -->
     <g transform="translate(899.285938 77.078438) scale(0.1 -0.1)">
      <use xlink:href="#DejaVuSans-4c"/>
      <use xlink:href="#DejaVuSans-69" transform="translate(55.712891 0)"/>
      <use xlink:href="#DejaVuSans-6e" transform="translate(83.496094 0)"/>
      <use xlink:href="#DejaVuSans-75" transform="translate(146.875 0)"/>
      <use xlink:href="#DejaVuSans-78" transform="translate(210.253906 0)"/>
     </g>
    </g>
    <g id="line2d_40">
     <path d="M 871.285938 88.256563 
L 881.285938 88.256563 
L 891.285938 88.256563 
" style="fill: none; stroke: #ff0000; stroke-width: 1.5; stroke-linecap: square"/>
    </g>
    <g id="text_22">
     <!-- Debian -->
     <g transform="translate(899.285938 91.756563) scale(0.1 -0.1)">
      <use xlink:href="#DejaVuSans-44"/>
      <use xlink:href="#DejaVuSans-65" transform="translate(77.001953 0)"/>
      <use xlink:href="#DejaVuSans-62" transform="translate(138.525391 0)"/>
      <use xlink:href="#DejaVuSans-69" transform="translate(202.001953 0)"/>
      <use xlink:href="#DejaVuSans-61" transform="translate(229.785156 0)"/>
      <use xlink:href="#DejaVuSans-6e" transform="translate(291.064453 0)"/>
     </g>
    </g>
    <g id="line2d_41">
     <path d="M 871.285938 102.934688 
L 881.285938 102.934688 
L 891.285938 102.934688 
" style="fill: none; stroke: #ffa500; stroke-width: 1.5; stroke-linecap: square"/>
    </g>
    <g id="text_23">
     <!-- Ubuntu -->
     <g transform="translate(899.285938 106.434688) scale(0.1 -0.1)">
      <use xlink:href="#DejaVuSans-55"/>
      <use xlink:href="#DejaVuSans-62" transform="translate(73.193359 0)"/>
      <use xlink:href="#DejaVuSans-75" transform="translate(136.669922 0)"/>
      <use xlink:href="#DejaVuSans-6e" transform="translate(200.048828 0)"/>
      <use xlink:href="#DejaVuSans-74" transform="translate(263.427734 0)"/>
      <use xlink:href="#DejaVuSans-75" transform="translate(302.636719 0)"/>
     </g>
    </g>
    <g id="line2d_42">
     <path d="M 871.285938 117.612813 
L 881.285938 117.612813 
L 891.285938 117.612813 
" style="fill: none; stroke: #0000ff; stroke-width: 1.5; stroke-linecap: square"/>
    </g>
    <g id="text_24">
     <!-- Windows 8.1 -->
     <g transform="translate(899.285938 121.112813) scale(0.1 -0.1)">
      <use xlink:href="#DejaVuSans-57"/>
      <use xlink:href="#DejaVuSans-69" transform="translate(96.626953 0)"/>
      <use xlink:href="#DejaVuSans-6e" transform="translate(124.410156 0)"/>
      <use xlink:href="#DejaVuSans-64" transform="translate(187.789062 0)"/>
      <use xlink:href="#DejaVuSans-6f" transform="translate(251.265625 0)"/>
      <use xlink:href="#DejaVuSans-77" transform="translate(312.447266 0)"/>
      <use xlink:href="#DejaVuSans-73" transform="translate(394.234375 0)"/>
      <use xlink:href="#DejaVuSans-20" transform="translate(446.333984 0)"/>
      <use xlink:href="#DejaVuSans-38" transform="translate(478.121094 0)"/>
      <use xlink:href="#DejaVuSans-2e" transform="translate(541.744141 0)"/>
      <use xlink:href="#DejaVuSans-31" transform="translate(573.53125 0)"/>
     </g>
    </g>
   </g>
  </g>
 </g>
 <defs>
  <clipPath id="pa8ad8cf694">
   <rect x="135" y="60.48" width="837" height="388.08"/>
  </clipPath>
 </defs>
</svg>
