<?xml version="1.0" encoding="utf-8" standalone="no"?>
<!DOCTYPE svg PUBLIC "-//W3C//DTD SVG 1.1//EN"
  "http://www.w3.org/Graphics/SVG/1.1/DTD/svg11.dtd">
<svg xmlns:xlink="http://www.w3.org/1999/xlink" width="1080pt" height="504pt" viewBox="0 0 1080 504" xmlns="http://www.w3.org/2000/svg" version="1.1">
 <metadata>
  <rdf:RDF xmlns:dc="http://purl.org/dc/elements/1.1/" xmlns:cc="http://creativecommons.org/ns#" xmlns:rdf="http://www.w3.org/1999/02/22-rdf-syntax-ns#">
   <cc:Work>
    <dc:type rdf:resource="http://purl.org/dc/dcmitype/StillImage"/>
    <dc:date>2026-01-02T15:17:03.821802</dc:date>
    <dc:format>image/svg+xml</dc:format>
    <dc:creator>
     <cc:Agent>
      <dc:title>Matplotlib v3.10.7, https://matplotlib.org/</dc:title>
     </cc:Agent>
    </dc:creator>
   </cc:Work>
  </rdf:RDF>
 </metadata>
 <defs>
  <style type="text/css">*{stroke-linejoin: round; stroke-linecap: butt}</style>
 </defs>
 <g id="figure_1">
  <g id="patch_1">
   <path d="M 0 504 
L 1080 504 
L 1080 0 
L 0 0 
z
" style="fill: #ffffff"/>
  </g>
  <g id="axes_1">
   <g id="patch_2">
    <path d="M 135 448.56 
L 972 448.56 
L 972 60.48 
L 135 60.48 
z
" style="fill: #ffffff"/>
   </g>
   <g id="matplotlib.axis_1">
    <g id="xtick_1">
     <g id="line2d_1">
      <path d="M 173.045455 448.56 
L 173.045455 60.48 
" clip-path="url(#pe8defadf7e)" style="fill: none; stroke: #b0b0b0; stroke-width: 0.8; stroke-linecap: square"/>
     </g>
     <g id="line2d_2">
      <defs>
       <path id="m9f1c8e833d" d="M 0 0 
L 0 3.5 
" style="stroke: #000000; stroke-width: 0.8"/>
      </defs>
      <g>
       <use xlink:href="#m9f1c8e833d" x="173.045455" y="448.56" style="stroke: #000000; stroke-width: 0.8"/>
      </g>
     </g>
     <g id="text_1">
      <!-- 2016-11-01 -->
      <g transform="translate(143.987642 463.158437) scale(0.1 -0.1)">
       <defs>
        <path id="DejaVuSans-32" d="M 1228 531 
L 3431 531 
L 3431 0 
L 469 0 
L 469 531 
Q 828 903 1448 1529 
Q 2069 2156 2228 2338 
Q 2531 2678 2651 2914 
Q 2772 3150 2772 3378 
Q 2772 3750 2511 3984 
Q 2250 4219 1831 4219 
Q 1534 4219 1204 4116 
Q 875 4013 500 3803 
L 500 4441 
Q 881 4594 1212 4672 
Q 1544 4750 1819 4750 
Q 2544 4750 2975 4387 
Q 3406 4025 3406 3419 
Q 3406 3131 3298 2873 
Q 3191 2616 2906 2266 
Q 2828 2175 2409 1742 
Q 1991 1309 1228 531 
z
" transform="scale(0.015625)"/>
        <path id="DejaVuSans-30" d="M 2034 4250 
Q 1547 4250 1301 3770 
Q 1056 3291 1056 2328 
Q 1056 1369 1301 889 
Q 1547 409 2034 409 
Q 2525 409 2770 889 
Q 3016 1369 3016 2328 
Q 3016 3291 2770 3770 
Q 2525 4250 2034 4250 
z
M 2034 4750 
Q 2819 4750 3233 4129 
Q 3647 3509 3647 2328 
Q 3647 1150 3233 529 
Q 2819 -91 2034 -91 
Q 1250 -91 836 529 
Q 422 1150 422 2328 
Q 422 3509 836 4129 
Q 1250 4750 2034 4750 
z
" transform="scale(0.015625)"/>
        <path id="DejaVuSans-31" d="M 794 531 
L 1825 531 
L 1825 4091 
L 703 3866 
L 703 4441 
L 1819 4666 
L 2450 4666 
L 2450 531 
L 3481 531 
L 3481 0 
L 794 0 
L 794 531 
z
" transform="scale(0.015625)"/>
        <path id="DejaVuSans-36" d="M 2113 2584 
Q 1688 2584 1439 2293 
Q 1191 2003 1191 1497 
Q 1191 994 1439 701 
Q 1688 409 2113 409 
Q 2538 409 2786 701 
Q 3034 994 3034 1497 
Q 3034 2003 2786 2293 
Q 2538 2584 2113 2584 
z
M 3366 4563 
L 3366 3988 
Q 3128 4100 2886 4159 
Q 2644 4219 2406 4219 
Q 1781 4219 1451 3797 
Q 1122 3375 1075 2522 
Q 1259 2794 1537 2939 
Q 1816 3084 2150 3084 
Q 2853 3084 3261 2657 
Q 3669 2231 3669 1497 
Q 3669 778 3244 343 
Q 2819 -91 2113 -91 
Q 1303 -91 875 529 
Q 447 1150 447 2328 
Q 447 3434 972 4092 
Q 1497 4750 2381 4750 
Q 2619 4750 2861 4703 
Q 3103 4656 3366 4563 
z
" transform="scale(0.015625)"/>
        <path id="DejaVuSans-2d" d="M 313 2009 
L 1997 2009 
L 1997 1497 
L 313 1497 
L 313 2009 
z
" transform="scale(0.015625)"/>
       </defs>
       <use xlink:href="#DejaVuSans-32"/>
       <use xlink:href="#DejaVuSans-30" transform="translate(63.623047 0)"/>
       <use xlink:href="#DejaVuSans-31" transform="translate(127.246094 0)"/>
       <use xlink:href="#DejaVuSans-36" transform="translate(190.869141 0)"/>
       <use xlink:href="#DejaVuSans-2d" transform="translate(254.492188 0)"/>
       <use xlink:href="#DejaVuSans-31" transform="translate(290.576172 0)"/>
       <use xlink:href="#DejaVuSans-31" transform="translate(354.199219 0)"/>
       <use xlink:href="#DejaVuSans-2d" transform="translate(417.822266 0)"/>
       <use xlink:href="#DejaVuSans-30" transform="translate(453.90625 0)"/>
       <use xlink:href="#DejaVuSans-31" transform="translate(517.529297 0)"/>
      </g>
     </g>
    </g>
    <g id="xtick_2">
     <g id="line2d_3">
      <path d="M 273.4955 448.56 
L 273.4955 60.48 
" clip-path="url(#pe8defadf7e)" style="fill: none; stroke: #b0b0b0; stroke-width: 0.8; stroke-linecap: square"/>
     </g>
     <g id="line2d_4">
      <g>
       <use xlink:href="#m9f1c8e833d" x="273.4955" y="448.56" style="stroke: #000000; stroke-width: 0.8"/>
      </g>
     </g>
     <g id="text_2">
      <!-- 2016-12-11 -->
      <g transform="translate(244.437687 463.158437) scale(0.1 -0.1)">
       <use xlink:href="#DejaVuSans-32"/>
       <use xlink:href="#DejaVuSans-30" transform="translate(63.623047 0)"/>
       <use xlink:href="#DejaVuSans-31" transform="translate(127.246094 0)"/>
       <use xlink:href="#DejaVuSans-36" transform="translate(190.869141 0)"/>
       <use xlink:href="#DejaVuSans-2d" transform="translate(254.492188 0)"/>
       <use xlink:href="#DejaVuSans-31" transform="translate(290.576172 0)"/>
       <use xlink:href="#DejaVuSans-32" transform="translate(354.199219 0)"/>
       <use xlink:href="#DejaVuSans-2d" transform="translate(417.822266 0)"/>
       <use xlink:href="#DejaVuSans-31" transform="translate(453.90625 0)"/>
       <use xlink:href="#DejaVuSans-31" transform="translate(517.529297 0)"/>
      </g>
     </g>
    </g>
    <g id="xtick_3">
     <g id="line2d_5">
      <path d="M 373.945545 448.56 
L 373.945545 60.48 
" clip-path="url(#pe8defadf7e)" style="fill: none; stroke: #b0b0b0; stroke-width: 0.8; stroke-linecap: square"/>
     </g>
     <g id="line2d_6">
      <g>
       <use xlink:href="#m9f1c8e833d" x="373.945545" y="448.56" style="stroke: #000000; stroke-width: 0.8"/>
      </g>
     </g>
     <g id="text_3">
      <!-- 2017-01-20 -->
      <g transform="translate(344.887732 463.158437) scale(0.1 -0.1)">
       <defs>
        <path id="DejaVuSans-37" d="M 525 4666 
L 3525 4666 
L 3525 4397 
L 1831 0 
L 1172 0 
L 2766 4134 
L 525 4134 
L 525 4666 
z
" transform="scale(0.015625)"/>
       </defs>
       <use xlink:href="#DejaVuSans-32"/>
       <use xlink:href="#DejaVuSans-30" transform="translate(63.623047 0)"/>
       <use xlink:href="#DejaVuSans-31" transform="translate(127.246094 0)"/>
       <use xlink:href="#DejaVuSans-37" transform="translate(190.869141 0)"/>
       <use xlink:href="#DejaVuSans-2d" transform="translate(254.492188 0)"/>
       <use xlink:href="#DejaVuSans-30" transform="translate(290.576172 0)"/>
       <use xlink:href="#DejaVuSans-31" transform="translate(354.199219 0)"/>
       <use xlink:href="#DejaVuSans-2d" transform="translate(417.822266 0)"/>
       <use xlink:href="#DejaVuSans-32" transform="translate(453.90625 0)"/>
       <use xlink:href="#DejaVuSans-30" transform="translate(517.529297 0)"/>
      </g>
     </g>
    </g>
    <g id="xtick_4">
     <g id="line2d_7">
      <path d="M 474.39559 448.56 
L 474.39559 60.48 
" clip-path="url(#pe8defadf7e)" style="fill: none; stroke: #b0b0b0; stroke-width: 0.8; stroke-linecap: square"/>
     </g>
     <g id="line2d_8">
      <g>
       <use xlink:href="#m9f1c8e833d" x="474.39559" y="448.56" style="stroke: #000000; stroke-width: 0.8"/>
      </g>
     </g>
     <g id="text_4">
      <!-- 2017-03-01 -->
      <g transform="translate(445.337777 463.158437) scale(0.1 -0.1)">
       <defs>
        <path id="DejaVuSans-33" d="M 2597 2516 
Q 3050 2419 3304 2112 
Q 3559 1806 3559 1356 
Q 3559 666 3084 287 
Q 2609 -91 1734 -91 
Q 1441 -91 1130 -33 
Q 819 25 488 141 
L 488 750 
Q 750 597 1062 519 
Q 1375 441 1716 441 
Q 2309 441 2620 675 
Q 2931 909 2931 1356 
Q 2931 1769 2642 2001 
Q 2353 2234 1838 2234 
L 1294 2234 
L 1294 2753 
L 1863 2753 
Q 2328 2753 2575 2939 
Q 2822 3125 2822 3475 
Q 2822 3834 2567 4026 
Q 2313 4219 1838 4219 
Q 1578 4219 1281 4162 
Q 984 4106 628 3988 
L 628 4550 
Q 988 4650 1302 4700 
Q 1616 4750 1894 4750 
Q 2613 4750 3031 4423 
Q 3450 4097 3450 3541 
Q 3450 3153 3228 2886 
Q 3006 2619 2597 2516 
z
" transform="scale(0.015625)"/>
       </defs>
       <use xlink:href="#DejaVuSans-32"/>
       <use xlink:href="#DejaVuSans-30" transform="translate(63.623047 0)"/>
       <use xlink:href="#DejaVuSans-31" transform="translate(127.246094 0)"/>
       <use xlink:href="#DejaVuSans-37" transform="translate(190.869141 0)"/>
       <use xlink:href="#DejaVuSans-2d" transform="translate(254.492188 0)"/>
       <use xlink:href="#DejaVuSans-30" transform="translate(290.576172 0)"/>
       <use xlink:href="#DejaVuSans-33" transform="translate(354.199219 0)"/>
       <use xlink:href="#DejaVuSans-2d" transform="translate(417.822266 0)"/>
       <use xlink:href="#DejaVuSans-30" transform="translate(453.90625 0)"/>
       <use xlink:href="#DejaVuSans-31" transform="translate(517.529297 0)"/>
      </g>
     </g>
    </g>
    <g id="xtick_5">
     <g id="line2d_9">
      <path d="M 574.845635 448.56 
L 574.845635 60.48 
" clip-path="url(#pe8defadf7e)" style="fill: none; stroke: #b0b0b0; stroke-width: 0.8; stroke-linecap: square"/>
     </g>
     <g id="line2d_10">
      <g>
       <use xlink:href="#m9f1c8e833d" x="574.845635" y="448.56" style="stroke: #000000; stroke-width: 0.8"/>
      </g>
     </g>
     <g id="text_5">
      <!-- 2017-04-10 -->
      <g transform="translate(545.787822 463.158437) scale(0.1 -0.1)">
       <defs>
        <path id="DejaVuSans-34" d="M 2419 4116 
L 825 1625 
L 2419 1625 
L 2419 4116 
z
M 2253 4666 
L 3047 4666 
L 3047 1625 
L 3713 1625 
L 3713 1100 
L 3047 1100 
L 3047 0 
L 2419 0 
L 2419 1100 
L 313 1100 
L 313 1709 
L 2253 4666 
z
" transform="scale(0.015625)"/>
       </defs>
       <use xlink:href="#DejaVuSans-32"/>
       <use xlink:href="#DejaVuSans-30" transform="translate(63.623047 0)"/>
       <use xlink:href="#DejaVuSans-31" transform="translate(127.246094 0)"/>
       <use xlink:href="#DejaVuSans-37" transform="translate(190.869141 0)"/>
       <use xlink:href="#DejaVuSans-2d" transform="translate(254.492188 0)"/>
       <use xlink:href="#DejaVuSans-30" transform="translate(290.576172 0)"/>
       <use xlink:href="#DejaVuSans-34" transform="translate(354.199219 0)"/>
       <use xlink:href="#DejaVuSans-2d" transform="translate(417.822266 0)"/>
       <use xlink:href="#DejaVuSans-31" transform="translate(453.90625 0)"/>
       <use xlink:href="#DejaVuSans-30" transform="translate(517.529297 0)"/>
      </g>
     </g>
    </g>
    <g id="xtick_6">
     <g id="line2d_11">
      <path d="M 675.29568 448.56 
L 675.29568 60.48 
" clip-path="url(#pe8defadf7e)" style="fill: none; stroke: #b0b0b0; stroke-width: 0.8; stroke-linecap: square"/>
     </g>
     <g id="line2d_12">
      <g>
       <use xlink:href="#m9f1c8e833d" x="675.29568" y="448.56" style="stroke: #000000; stroke-width: 0.8"/>
      </g>
     </g>
     <g id="text_6">
      <!-- 2017-05-20 -->
      <g transform="translate(646.237867 463.158437) scale(0.1 -0.1)">
       <defs>
        <path id="DejaVuSans-35" d="M 691 4666 
L 3169 4666 
L 3169 4134 
L 1269 4134 
L 1269 2991 
Q 1406 3038 1543 3061 
Q 1681 3084 1819 3084 
Q 2600 3084 3056 2656 
Q 3513 2228 3513 1497 
Q 3513 744 3044 326 
Q 2575 -91 1722 -91 
Q 1428 -91 1123 -41 
Q 819 9 494 109 
L 494 744 
Q 775 591 1075 516 
Q 1375 441 1709 441 
Q 2250 441 2565 725 
Q 2881 1009 2881 1497 
Q 2881 1984 2565 2268 
Q 2250 2553 1709 2553 
Q 1456 2553 1204 2497 
Q 953 2441 691 2322 
L 691 4666 
z
" transform="scale(0.015625)"/>
       </defs>
       <use xlink:href="#DejaVuSans-32"/>
       <use xlink:href="#DejaVuSans-30" transform="translate(63.623047 0)"/>
       <use xlink:href="#DejaVuSans-31" transform="translate(127.246094 0)"/>
       <use xlink:href="#DejaVuSans-37" transform="translate(190.869141 0)"/>
       <use xlink:href="#DejaVuSans-2d" transform="translate(254.492188 0)"/>
       <use xlink:href="#DejaVuSans-30" transform="translate(290.576172 0)"/>
       <use xlink:href="#DejaVuSans-35" transform="translate(354.199219 0)"/>
       <use xlink:href="#DejaVuSans-2d" transform="translate(417.822266 0)"/>
       <use xlink:href="#DejaVuSans-32" transform="translate(453.90625 0)"/>
       <use xlink:href="#DejaVuSans-30" transform="translate(517.529297 0)"/>
      </g>
     </g>
    </g>
    <g id="xtick_7">
     <g id="line2d_13">
      <path d="M 775.745725 448.56 
L 775.745725 60.48 
" clip-path="url(#pe8defadf7e)" style="fill: none; stroke: #b0b0b0; stroke-width: 0.8; stroke-linecap: square"/>
     </g>
     <g id="line2d_14">
      <g>
       <use xlink:href="#m9f1c8e833d" x="775.745725" y="448.56" style="stroke: #000000; stroke-width: 0.8"/>
      </g>
     </g>
     <g id="text_7">
      <!-- 2017-06-29 -->
      <g transform="translate(746.687912 463.158437) scale(0.1 -0.1)">
       <defs>
        <path id="DejaVuSans-39" d="M 703 97 
L 703 672 
Q 941 559 1184 500 
Q 1428 441 1663 441 
Q 2288 441 2617 861 
Q 2947 1281 2994 2138 
Q 2813 1869 2534 1725 
Q 2256 1581 1919 1581 
Q 1219 1581 811 2004 
Q 403 2428 403 3163 
Q 403 3881 828 4315 
Q 1253 4750 1959 4750 
Q 2769 4750 3195 4129 
Q 3622 3509 3622 2328 
Q 3622 1225 3098 567 
Q 2575 -91 1691 -91 
Q 1453 -91 1209 -44 
Q 966 3 703 97 
z
M 1959 2075 
Q 2384 2075 2632 2365 
Q 2881 2656 2881 3163 
Q 2881 3666 2632 3958 
Q 2384 4250 1959 4250 
Q 1534 4250 1286 3958 
Q 1038 3666 1038 3163 
Q 1038 2656 1286 2365 
Q 1534 2075 1959 2075 
z
" transform="scale(0.015625)"/>
       </defs>
       <use xlink:href="#DejaVuSans-32"/>
       <use xlink:href="#DejaVuSans-30" transform="translate(63.623047 0)"/>
       <use xlink:href="#DejaVuSans-31" transform="translate(127.246094 0)"/>
       <use xlink:href="#DejaVuSans-37" transform="translate(190.869141 0)"/>
       <use xlink:href="#DejaVuSans-2d" transform="translate(254.492188 0)"/>
       <use xlink:href="#DejaVuSans-30" transform="translate(290.576172 0)"/>
       <use xlink:href="#DejaVuSans-36" transform="translate(354.199219 0)"/>
       <use xlink:href="#DejaVuSans-2d" transform="translate(417.822266 0)"/>
       <use xlink:href="#DejaVuSans-32" transform="translate(453.90625 0)"/>
       <use xlink:href="#DejaVuSans-39" transform="translate(517.529297 0)"/>
      </g>
     </g>
    </g>
    <g id="xtick_8">
     <g id="line2d_15">
      <path d="M 876.19577 448.56 
L 876.19577 60.48 
" clip-path="url(#pe8defadf7e)" style="fill: none; stroke: #b0b0b0; stroke-width: 0.8; stroke-linecap: square"/>
     </g>
     <g id="line2d_16">
      <g>
       <use xlink:href="#m9f1c8e833d" x="876.19577" y="448.56" style="stroke: #000000; stroke-width: 0.8"/>
      </g>
     </g>
     <g id="text_8">
      <!-- 2017-08-08 -->
      <g transform="translate(847.137957 463.158437) scale(0.1 -0.1)">
       <defs>
        <path id="DejaVuSans-38" d="M 2034 2216 
Q 1584 2216 1326 1975 
Q 1069 1734 1069 1313 
Q 1069 891 1326 650 
Q 1584 409 2034 409 
Q 2484 409 2743 651 
Q 3003 894 3003 1313 
Q 3003 1734 2745 1975 
Q 2488 2216 2034 2216 
z
M 1403 2484 
Q 997 2584 770 2862 
Q 544 3141 544 3541 
Q 544 4100 942 4425 
Q 1341 4750 2034 4750 
Q 2731 4750 3128 4425 
Q 3525 4100 3525 3541 
Q 3525 3141 3298 2862 
Q 3072 2584 2669 2484 
Q 3125 2378 3379 2068 
Q 3634 1759 3634 1313 
Q 3634 634 3220 271 
Q 2806 -91 2034 -91 
Q 1263 -91 848 271 
Q 434 634 434 1313 
Q 434 1759 690 2068 
Q 947 2378 1403 2484 
z
M 1172 3481 
Q 1172 3119 1398 2916 
Q 1625 2713 2034 2713 
Q 2441 2713 2670 2916 
Q 2900 3119 2900 3481 
Q 2900 3844 2670 4047 
Q 2441 4250 2034 4250 
Q 1625 4250 1398 4047 
Q 1172 3844 1172 3481 
z
" transform="scale(0.015625)"/>
       </defs>
       <use xlink:href="#DejaVuSans-32"/>
       <use xlink:href="#DejaVuSans-30" transform="translate(63.623047 0)"/>
       <use xlink:href="#DejaVuSans-31" transform="translate(127.246094 0)"/>
       <use xlink:href="#DejaVuSans-37" transform="translate(190.869141 0)"/>
       <use xlink:href="#DejaVuSans-2d" transform="translate(254.492188 0)"/>
       <use xlink:href="#DejaVuSans-30" transform="translate(290.576172 0)"/>
       <use xlink:href="#DejaVuSans-38" transform="translate(354.199219 0)"/>
       <use xlink:href="#DejaVuSans-2d" transform="translate(417.822266 0)"/>
       <use xlink:href="#DejaVuSans-30" transform="translate(453.90625 0)"/>
       <use xlink:href="#DejaVuSans-38" transform="translate(517.529297 0)"/>
      </g>
     </g>
    </g>
    <g id="text_9">
     <!-- Date (YYYY-MM-DD), 2016-11-01 - 2017-09-01 -->
     <g transform="translate(438.225 476.836563) scale(0.1 -0.1)">
      <defs>
       <path id="DejaVuSans-44" d="M 1259 4147 
L 1259 519 
L 2022 519 
Q 2988 519 3436 956 
Q 3884 1394 3884 2338 
Q 3884 3275 3436 3711 
Q 2988 4147 2022 4147 
L 1259 4147 
z
M 628 4666 
L 1925 4666 
Q 3281 4666 3915 4102 
Q 4550 3538 4550 2338 
Q 4550 1131 3912 565 
Q 3275 0 1925 0 
L 628 0 
L 628 4666 
z
" transform="scale(0.015625)"/>
       <path id="DejaVuSans-61" d="M 2194 1759 
Q 1497 1759 1228 1600 
Q 959 1441 959 1056 
Q 959 750 1161 570 
Q 1363 391 1709 391 
Q 2188 391 2477 730 
Q 2766 1069 2766 1631 
L 2766 1759 
L 2194 1759 
z
M 3341 1997 
L 3341 0 
L 2766 0 
L 2766 531 
Q 2569 213 2275 61 
Q 1981 -91 1556 -91 
Q 1019 -91 701 211 
Q 384 513 384 1019 
Q 384 1609 779 1909 
Q 1175 2209 1959 2209 
L 2766 2209 
L 2766 2266 
Q 2766 2663 2505 2880 
Q 2244 3097 1772 3097 
Q 1472 3097 1187 3025 
Q 903 2953 641 2809 
L 641 3341 
Q 956 3463 1253 3523 
Q 1550 3584 1831 3584 
Q 2591 3584 2966 3190 
Q 3341 2797 3341 1997 
z
" transform="scale(0.015625)"/>
       <path id="DejaVuSans-74" d="M 1172 4494 
L 1172 3500 
L 2356 3500 
L 2356 3053 
L 1172 3053 
L 1172 1153 
Q 1172 725 1289 603 
Q 1406 481 1766 481 
L 2356 481 
L 2356 0 
L 1766 0 
Q 1100 0 847 248 
Q 594 497 594 1153 
L 594 3053 
L 172 3053 
L 172 3500 
L 594 3500 
L 594 4494 
L 1172 4494 
z
" transform="scale(0.015625)"/>
       <path id="DejaVuSans-65" d="M 3597 1894 
L 3597 1613 
L 953 1613 
Q 991 1019 1311 708 
Q 1631 397 2203 397 
Q 2534 397 2845 478 
Q 3156 559 3463 722 
L 3463 178 
Q 3153 47 2828 -22 
Q 2503 -91 2169 -91 
Q 1331 -91 842 396 
Q 353 884 353 1716 
Q 353 2575 817 3079 
Q 1281 3584 2069 3584 
Q 2775 3584 3186 3129 
Q 3597 2675 3597 1894 
z
M 3022 2063 
Q 3016 2534 2758 2815 
Q 2500 3097 2075 3097 
Q 1594 3097 1305 2825 
Q 1016 2553 972 2059 
L 3022 2063 
z
" transform="scale(0.015625)"/>
       <path id="DejaVuSans-20" transform="scale(0.015625)"/>
       <path id="DejaVuSans-28" d="M 1984 4856 
Q 1566 4138 1362 3434 
Q 1159 2731 1159 2009 
Q 1159 1288 1364 580 
Q 1569 -128 1984 -844 
L 1484 -844 
Q 1016 -109 783 600 
Q 550 1309 550 2009 
Q 550 2706 781 3412 
Q 1013 4119 1484 4856 
L 1984 4856 
z
" transform="scale(0.015625)"/>
       <path id="DejaVuSans-59" d="M -13 4666 
L 666 4666 
L 1959 2747 
L 3244 4666 
L 3922 4666 
L 2272 2222 
L 2272 0 
L 1638 0 
L 1638 2222 
L -13 4666 
z
" transform="scale(0.015625)"/>
       <path id="DejaVuSans-4d" d="M 628 4666 
L 1569 4666 
L 2759 1491 
L 3956 4666 
L 4897 4666 
L 4897 0 
L 4281 0 
L 4281 4097 
L 3078 897 
L 2444 897 
L 1241 4097 
L 1241 0 
L 628 0 
L 628 4666 
z
" transform="scale(0.015625)"/>
       <path id="DejaVuSans-29" d="M 513 4856 
L 1013 4856 
Q 1481 4119 1714 3412 
Q 1947 2706 1947 2009 
Q 1947 1309 1714 600 
Q 1481 -109 1013 -844 
L 513 -844 
Q 928 -128 1133 580 
Q 1338 1288 1338 2009 
Q 1338 2731 1133 3434 
Q 928 4138 513 4856 
z
" transform="scale(0.015625)"/>
       <path id="DejaVuSans-2c" d="M 750 794 
L 1409 794 
L 1409 256 
L 897 -744 
L 494 -744 
L 750 256 
L 750 794 
z
" transform="scale(0.015625)"/>
      </defs>
      <use xlink:href="#DejaVuSans-44"/>
      <use xlink:href="#DejaVuSans-61" transform="translate(77.001953 0)"/>
      <use xlink:href="#DejaVuSans-74" transform="translate(138.28125 0)"/>
      <use xlink:href="#DejaVuSans-65" transform="translate(177.490234 0)"/>
      <use xlink:href="#DejaVuSans-20" transform="translate(239.013672 0)"/>
      <use xlink:href="#DejaVuSans-28" transform="translate(270.800781 0)"/>
      <use xlink:href="#DejaVuSans-59" transform="translate(309.814453 0)"/>
      <use xlink:href="#DejaVuSans-59" transform="translate(370.898438 0)"/>
      <use xlink:href="#DejaVuSans-59" transform="translate(431.982422 0)"/>
      <use xlink:href="#DejaVuSans-59" transform="translate(493.066406 0)"/>
      <use xlink:href="#DejaVuSans-2d" transform="translate(542.275391 0)"/>
      <use xlink:href="#DejaVuSans-4d" transform="translate(578.359375 0)"/>
      <use xlink:href="#DejaVuSans-4d" transform="translate(664.638672 0)"/>
      <use xlink:href="#DejaVuSans-2d" transform="translate(750.917969 0)"/>
      <use xlink:href="#DejaVuSans-44" transform="translate(787.001953 0)"/>
      <use xlink:href="#DejaVuSans-44" transform="translate(864.003906 0)"/>
      <use xlink:href="#DejaVuSans-29" transform="translate(941.005859 0)"/>
      <use xlink:href="#DejaVuSans-2c" transform="translate(980.019531 0)"/>
      <use xlink:href="#DejaVuSans-20" transform="translate(1011.806641 0)"/>
      <use xlink:href="#DejaVuSans-32" transform="translate(1043.59375 0)"/>
      <use xlink:href="#DejaVuSans-30" transform="translate(1107.216797 0)"/>
      <use xlink:href="#DejaVuSans-31" transform="translate(1170.839844 0)"/>
      <use xlink:href="#DejaVuSans-36" transform="translate(1234.462891 0)"/>
      <use xlink:href="#DejaVuSans-2d" transform="translate(1298.085938 0)"/>
      <use xlink:href="#DejaVuSans-31" transform="translate(1334.169922 0)"/>
      <use xlink:href="#DejaVuSans-31" transform="translate(1397.792969 0)"/>
      <use xlink:href="#DejaVuSans-2d" transform="translate(1461.416016 0)"/>
      <use xlink:href="#DejaVuSans-30" transform="translate(1497.5 0)"/>
      <use xlink:href="#DejaVuSans-31" transform="translate(1561.123047 0)"/>
      <use xlink:href="#DejaVuSans-20" transform="translate(1624.746094 0)"/>
      <use xlink:href="#DejaVuSans-2d" transform="translate(1656.533203 0)"/>
      <use xlink:href="#DejaVuSans-20" transform="translate(1692.617188 0)"/>
      <use xlink:href="#DejaVuSans-32" transform="translate(1724.404297 0)"/>
      <use xlink:href="#DejaVuSans-30" transform="translate(1788.027344 0)"/>
      <use xlink:href="#DejaVuSans-31" transform="translate(1851.650391 0)"/>
      <use xlink:href="#DejaVuSans-37" transform="translate(1915.273438 0)"/>
      <use xlink:href="#DejaVuSans-2d" transform="translate(1978.896484 0)"/>
      <use xlink:href="#DejaVuSans-30" transform="translate(2014.980469 0)"/>
      <use xlink:href="#DejaVuSans-39" transform="translate(2078.603516 0)"/>
      <use xlink:href="#DejaVuSans-2d" transform="translate(2142.226562 0)"/>
      <use xlink:href="#DejaVuSans-30" transform="translate(2178.310547 0)"/>
      <use xlink:href="#DejaVuSans-31" transform="translate(2241.933594 0)"/>
     </g>
    </g>
   </g>
   <g id="matplotlib.axis_2">
    <g id="ytick_1">
     <g id="line2d_17">
      <path d="M 135 441.035765 
L 972 441.035765 
" clip-path="url(#pe8defadf7e)" style="fill: none; stroke: #b0b0b0; stroke-width: 0.8; stroke-linecap: square"/>
     </g>
     <g id="line2d_18">
      <defs>
       <path id="m9765b60b01" d="M 0 0 
L -3.5 0 
" style="stroke: #000000; stroke-width: 0.8"/>
      </defs>
      <g>
       <use xlink:href="#m9765b60b01" x="135" y="441.035765" style="stroke: #000000; stroke-width: 0.8"/>
      </g>
     </g>
     <g id="text_10">
      <!-- 0 -->
      <g transform="translate(121.6375 444.834984) scale(0.1 -0.1)">
       <use xlink:href="#DejaVuSans-30"/>
      </g>
     </g>
    </g>
    <g id="ytick_2">
     <g id="line2d_19">
      <path d="M 135 373.371784 
L 972 373.371784 
" clip-path="url(#pe8defadf7e)" style="fill: none; stroke: #b0b0b0; stroke-width: 0.8; stroke-linecap: square"/>
     </g>
     <g id="line2d_20">
      <g>
       <use xlink:href="#m9765b60b01" x="135" y="373.371784" style="stroke: #000000; stroke-width: 0.8"/>
      </g>
     </g>
     <g id="text_11">
      <!-- 2000 -->
      <g transform="translate(102.55 377.171002) scale(0.1 -0.1)">
       <use xlink:href="#DejaVuSans-32"/>
       <use xlink:href="#DejaVuSans-30" transform="translate(63.623047 0)"/>
       <use xlink:href="#DejaVuSans-30" transform="translate(127.246094 0)"/>
       <use xlink:href="#DejaVuSans-30" transform="translate(190.869141 0)"/>
      </g>
     </g>
    </g>
    <g id="ytick_3">
     <g id="line2d_21">
      <path d="M 135 305.707802 
L 972 305.707802 
" clip-path="url(#pe8defadf7e)" style="fill: none; stroke: #b0b0b0; stroke-width: 0.8; stroke-linecap: square"/>
     </g>
     <g id="line2d_22">
      <g>
       <use xlink:href="#m9765b60b01" x="135" y="305.707802" style="stroke: #000000; stroke-width: 0.8"/>
      </g>
     </g>
     <g id="text_12">
      <!-- 4000 -->
      <g transform="translate(102.55 309.507021) scale(0.1 -0.1)">
       <use xlink:href="#DejaVuSans-34"/>
       <use xlink:href="#DejaVuSans-30" transform="translate(63.623047 0)"/>
       <use xlink:href="#DejaVuSans-30" transform="translate(127.246094 0)"/>
       <use xlink:href="#DejaVuSans-30" transform="translate(190.869141 0)"/>
      </g>
     </g>
    </g>
    <g id="ytick_4">
     <g id="line2d_23">
      <path d="M 135 238.04382 
L 972 238.04382 
" clip-path="url(#pe8defadf7e)" style="fill: none; stroke: #b0b0b0; stroke-width: 0.8; stroke-linecap: square"/>
     </g>
     <g id="line2d_24">
      <g>
       <use xlink:href="#m9765b60b01" x="135" y="238.04382" style="stroke: #000000; stroke-width: 0.8"/>
      </g>
     </g>
     <g id="text_13">
      <!-- 6000 -->
      <g transform="translate(102.55 241.843039) scale(0.1 -0.1)">
       <use xlink:href="#DejaVuSans-36"/>
       <use xlink:href="#DejaVuSans-30" transform="translate(63.623047 0)"/>
       <use xlink:href="#DejaVuSans-30" transform="translate(127.246094 0)"/>
       <use xlink:href="#DejaVuSans-30" transform="translate(190.869141 0)"/>
      </g>
     </g>
    </g>
    <g id="ytick_5">
     <g id="line2d_25">
      <path d="M 135 170.379839 
L 972 170.379839 
" clip-path="url(#pe8defadf7e)" style="fill: none; stroke: #b0b0b0; stroke-width: 0.8; stroke-linecap: square"/>
     </g>
     <g id="line2d_26">
      <g>
       <use xlink:href="#m9765b60b01" x="135" y="170.379839" style="stroke: #000000; stroke-width: 0.8"/>
      </g>
     </g>
     <g id="text_14">
      <!-- 8000 -->
      <g transform="translate(102.55 174.179058) scale(0.1 -0.1)">
       <use xlink:href="#DejaVuSans-38"/>
       <use xlink:href="#DejaVuSans-30" transform="translate(63.623047 0)"/>
       <use xlink:href="#DejaVuSans-30" transform="translate(127.246094 0)"/>
       <use xlink:href="#DejaVuSans-30" transform="translate(190.869141 0)"/>
      </g>
     </g>
    </g>
    <g id="ytick_6">
     <g id="line2d_27">
      <path d="M 135 102.715857 
L 972 102.715857 
" clip-path="url(#pe8defadf7e)" style="fill: none; stroke: #b0b0b0; stroke-width: 0.8; stroke-linecap: square"/>
     </g>
     <g id="line2d_28">
      <g>
       <use xlink:href="#m9765b60b01" x="135" y="102.715857" style="stroke: #000000; stroke-width: 0.8"/>
      </g>
     </g>
     <g id="text_15">
      <!-- 10000 -->
      <g transform="translate(96.1875 106.515076) scale(0.1 -0.1)">
       <use xlink:href="#DejaVuSans-31"/>
       <use xlink:href="#DejaVuSans-30" transform="translate(63.623047 0)"/>
       <use xlink:href="#DejaVuSans-30" transform="translate(127.246094 0)"/>
       <use xlink:href="#DejaVuSans-30" transform="translate(190.869141 0)"/>
       <use xlink:href="#DejaVuSans-30" transform="translate(254.492188 0)"/>
      </g>
     </g>
    </g>
    <g id="text_16">
     <!-- Pageview count -->
     <g transform="translate(90.107812 293.834063) rotate(-90) scale(0.1 -0.1)">
      <defs>
       <path id="DejaVuSans-50" d="M 1259 4147 
L 1259 2394 
L 2053 2394 
Q 2494 2394 2734 2622 
Q 2975 2850 2975 3272 
Q 2975 3691 2734 3919 
Q 2494 4147 2053 4147 
L 1259 4147 
z
M 628 4666 
L 2053 4666 
Q 2838 4666 3239 4311 
Q 3641 3956 3641 3272 
Q 3641 2581 3239 2228 
Q 2838 1875 2053 1875 
L 1259 1875 
L 1259 0 
L 628 0 
L 628 4666 
z
" transform="scale(0.015625)"/>
       <path id="DejaVuSans-67" d="M 2906 1791 
Q 2906 2416 2648 2759 
Q 2391 3103 1925 3103 
Q 1463 3103 1205 2759 
Q 947 2416 947 1791 
Q 947 1169 1205 825 
Q 1463 481 1925 481 
Q 2391 481 2648 825 
Q 2906 1169 2906 1791 
z
M 3481 434 
Q 3481 -459 3084 -895 
Q 2688 -1331 1869 -1331 
Q 1566 -1331 1297 -1286 
Q 1028 -1241 775 -1147 
L 775 -588 
Q 1028 -725 1275 -790 
Q 1522 -856 1778 -856 
Q 2344 -856 2625 -561 
Q 2906 -266 2906 331 
L 2906 616 
Q 2728 306 2450 153 
Q 2172 0 1784 0 
Q 1141 0 747 490 
Q 353 981 353 1791 
Q 353 2603 747 3093 
Q 1141 3584 1784 3584 
Q 2172 3584 2450 3431 
Q 2728 3278 2906 2969 
L 2906 3500 
L 3481 3500 
L 3481 434 
z
" transform="scale(0.015625)"/>
       <path id="DejaVuSans-76" d="M 191 3500 
L 800 3500 
L 1894 563 
L 2988 3500 
L 3597 3500 
L 2284 0 
L 1503 0 
L 191 3500 
z
" transform="scale(0.015625)"/>
       <path id="DejaVuSans-69" d="M 603 3500 
L 1178 3500 
L 1178 0 
L 603 0 
L 603 3500 
z
M 603 4863 
L 1178 4863 
L 1178 4134 
L 603 4134 
L 603 4863 
z
" transform="scale(0.015625)"/>
       <path id="DejaVuSans-77" d="M 269 3500 
L 844 3500 
L 1563 769 
L 2278 3500 
L 2956 3500 
L 3675 769 
L 4391 3500 
L 4966 3500 
L 4050 0 
L 3372 0 
L 2619 2869 
L 1863 0 
L 1184 0 
L 269 3500 
z
" transform="scale(0.015625)"/>
       <path id="DejaVuSans-63" d="M 3122 3366 
L 3122 2828 
Q 2878 2963 2633 3030 
Q 2388 3097 2138 3097 
Q 1578 3097 1268 2742 
Q 959 2388 959 1747 
Q 959 1106 1268 751 
Q 1578 397 2138 397 
Q 2388 397 2633 464 
Q 2878 531 3122 666 
L 3122 134 
Q 2881 22 2623 -34 
Q 2366 -91 2075 -91 
Q 1284 -91 818 406 
Q 353 903 353 1747 
Q 353 2603 823 3093 
Q 1294 3584 2113 3584 
Q 2378 3584 2631 3529 
Q 2884 3475 3122 3366 
z
" transform="scale(0.015625)"/>
       <path id="DejaVuSans-6f" d="M 1959 3097 
Q 1497 3097 1228 2736 
Q 959 2375 959 1747 
Q 959 1119 1226 758 
Q 1494 397 1959 397 
Q 2419 397 2687 759 
Q 2956 1122 2956 1747 
Q 2956 2369 2687 2733 
Q 2419 3097 1959 3097 
z
M 1959 3584 
Q 2709 3584 3137 3096 
Q 3566 2609 3566 1747 
Q 3566 888 3137 398 
Q 2709 -91 1959 -91 
Q 1206 -91 779 398 
Q 353 888 353 1747 
Q 353 2609 779 3096 
Q 1206 3584 1959 3584 
z
" transform="scale(0.015625)"/>
       <path id="DejaVuSans-75" d="M 544 1381 
L 544 3500 
L 1119 3500 
L 1119 1403 
Q 1119 906 1312 657 
Q 1506 409 1894 409 
Q 2359 409 2629 706 
Q 2900 1003 2900 1516 
L 2900 3500 
L 3475 3500 
L 3475 0 
L 2900 0 
L 2900 538 
Q 2691 219 2414 64 
Q 2138 -91 1772 -91 
Q 1169 -91 856 284 
Q 544 659 544 1381 
z
M 1991 3584 
L 1991 3584 
z
" transform="scale(0.015625)"/>
       <path id="DejaVuSans-6e" d="M 3513 2113 
L 3513 0 
L 2938 0 
L 2938 2094 
Q 2938 2591 2744 2837 
Q 2550 3084 2163 3084 
Q 1697 3084 1428 2787 
Q 1159 2491 1159 1978 
L 1159 0 
L 581 0 
L 581 3500 
L 1159 3500 
L 1159 2956 
Q 1366 3272 1645 3428 
Q 1925 3584 2291 3584 
Q 2894 3584 3203 3211 
Q 3513 2838 3513 2113 
z
" transform="scale(0.015625)"/>
      </defs>
      <use xlink:href="#DejaVuSans-50"/>
      <use xlink:href="#DejaVuSans-61" transform="translate(55.802734 0)"/>
      <use xlink:href="#DejaVuSans-67" transform="translate(117.082031 0)"/>
      <use xlink:href="#DejaVuSans-65" transform="translate(180.558594 0)"/>
      <use xlink:href="#DejaVuSans-76" transform="translate(242.082031 0)"/>
      <use xlink:href="#DejaVuSans-69" transform="translate(301.261719 0)"/>
      <use xlink:href="#DejaVuSans-65" transform="translate(329.044922 0)"/>
      <use xlink:href="#DejaVuSans-77" transform="translate(390.568359 0)"/>
      <use xlink:href="#DejaVuSans-20" transform="translate(472.355469 0)"/>
      <use xlink:href="#DejaVuSans-63" transform="translate(504.142578 0)"/>
      <use xlink:href="#DejaVuSans-6f" transform="translate(559.123047 0)"/>
      <use xlink:href="#DejaVuSans-75" transform="translate(620.304688 0)"/>
      <use xlink:href="#DejaVuSans-6e" transform="translate(683.683594 0)"/>
      <use xlink:href="#DejaVuSans-74" transform="translate(747.0625 0)"/>
     </g>
    </g>
   </g>
   <g id="line2d_29">
    <path d="M 173.045455 267.409988 
L 175.556706 255.264304 
L 178.067957 251.204465 
L 180.579208 259.324143 
L 183.090459 296.674661 
L 185.60171 294.171093 
L 188.112961 253.572704 
L 190.624212 245.114707 
L 193.135464 275.360506 
L 195.646715 259.797791 
L 198.157966 278.439217 
L 200.669217 306.452106 
L 203.180468 288.081335 
L 205.691719 246.095834 
L 208.20297 225.9658 
L 210.714221 226.540944 
L 213.225473 216.594338 
L 215.736724 248.836226 
L 218.247975 303.068907 
L 220.759226 279.386513 
L 223.270477 245.85901 
L 225.781728 245.757514 
L 228.292979 252.084097 
L 230.80423 271.875811 
L 233.315482 244.945547 
L 235.826733 305.809298 
L 238.337984 296.133349 
L 240.849235 252.084097 
L 243.360486 241.663843 
L 245.871737 241.833003 
L 248.382988 247.21229 
L 250.894239 268.018964 
L 253.405491 306.215282 
L 255.916742 292.91931 
L 258.427993 251.475121 
L 260.939244 242.205155 
L 263.450495 261.760046 
L 265.961746 260.575926 
L 268.472997 269.913556 
L 270.984248 304.963498 
L 273.4955 301.749459 
L 276.006751 251.542785 
L 278.518002 260.034614 
L 281.029253 261.218734 
L 283.540504 261.48939 
L 286.051755 276.713786 
L 288.563006 310.884097 
L 291.074257 297.3513 
L 293.585509 271.977307 
L 296.09676 271.030012 
L 298.608011 270.387204 
L 301.119262 266.767181 
L 303.630513 300.091692 
L 306.141764 314.030472 
L 308.653015 326.58214 
L 311.164266 297.892612 
L 313.675518 282.39756 
L 316.186769 278.405386 
L 318.69802 271.469827 
L 321.209271 294.813901 
L 323.720522 328.4429 
L 326.231773 324.721381 
L 328.743024 281.010449 
L 331.254275 255.19664 
L 333.765527 245.013211 
L 336.276778 248.802394 
L 338.788029 261.286398 
L 341.29928 290.618734 
L 343.810531 290.923222 
L 346.321782 232.93519 
L 348.833033 240.07374 
L 351.344284 236.487549 
L 353.855536 231.07443 
L 356.366787 252.726904 
L 358.878038 293.934269 
L 361.389289 278.574545 
L 363.90054 243.017123 
L 366.411791 238.754292 
L 368.923042 222.920921 
L 371.434293 222.447273 
L 373.945545 252.794568 
L 376.456796 299.38122 
L 378.968047 277.931738 
L 381.479298 243.084787 
L 383.990549 230.025639 
L 386.5018 243.389275 
L 389.013051 248.870058 
L 391.524302 252.185593 
L 394.035554 228.334039 
L 396.546805 294.847733 
L 399.058056 251.373625 
L 401.569307 250.764649 
L 404.080558 248.599402 
L 406.591809 254.080184 
L 409.10306 253.978688 
L 411.614311 299.584212 
L 414.125563 295.016893 
L 416.636814 245.216203 
L 419.148065 237.265685 
L 421.659316 240.648884 
L 424.170567 235.404925 
L 426.681818 257.226559 
L 429.193069 300.734499 
L 431.70432 208.98214 
L 436.726823 249.140713 
L 439.238074 255.162808 
L 441.749325 247.71977 
L 444.260576 266.767181 
L 446.771827 301.208147 
L 449.283078 296.065685 
L 451.794329 249.546697 
L 454.305581 243.524603 
L 456.816832 244.336571 
L 459.328083 255.974776 
L 461.839334 236.622877 
L 464.350585 297.621956 
L 466.861836 293.697445 
L 469.373087 252.523913 
L 471.884338 245.791346 
L 474.39559 252.016433 
L 476.906841 245.013211 
L 479.418092 265.786053 
L 481.929343 301.377307 
L 484.440594 289.028631 
L 486.951845 248.430242 
L 489.463096 246.53565 
L 491.974347 207.155213 
L 494.485599 78.12 
L 499.508101 214.564419 
L 502.019352 243.998251 
L 504.530603 220.112865 
L 507.041854 224.61252 
L 509.553105 222.954753 
L 512.064356 228.706191 
L 514.575608 245.656018 
L 517.086859 249.546697 
L 519.59811 229.585823 
L 522.109361 244.708723 
L 524.620612 242.881795 
L 527.131863 227.758895 
L 529.643114 238.517468 
L 532.154365 266.462693 
L 534.665617 298.636916 
L 537.176868 298.907572 
L 539.688119 260.508262 
L 542.19937 257.531047 
L 544.710621 260.406766 
L 547.221872 257.801703 
L 549.733123 266.056709 
L 552.244374 300.497675 
L 554.755626 297.114476 
L 557.266877 261.117238 
L 559.778128 253.6742 
L 562.289379 254.85832 
L 564.80063 254.52 
L 567.311881 276.95061 
L 569.823132 312.541864 
L 572.334383 299.313556 
L 574.845635 258.715167 
L 577.356886 263.620806 
L 579.868137 266.259701 
L 582.379388 275.834154 
L 584.890639 298.53542 
L 587.40189 306.18145 
L 589.913141 312.406536 
L 592.424392 275.93565 
L 594.935644 256.549919 
L 597.446895 263.68847 
L 599.958146 257.260391 
L 602.469397 278.540713 
L 604.980648 309.699977 
L 607.491899 309.429321 
L 610.00315 266.970173 
L 612.514401 261.726214 
L 615.025653 266.327365 
L 617.536904 277.085938 
L 620.048155 285.171784 
L 622.559406 318.530127 
L 625.070657 316.534039 
L 627.581908 299.685708 
L 630.093159 242.069827 
L 632.60441 245.486858 
L 635.115662 268.62794 
L 637.626913 260.372934 
L 640.138164 282.296064 
L 642.649415 302.899747 
L 645.160666 232.901358 
L 647.671917 261.015742 
L 650.183168 271.537491 
L 652.694419 236.487549 
L 655.205671 269.575236 
L 657.716922 259.594799 
L 660.228173 293.934269 
L 662.739424 224.544856 
L 665.250675 219.470058 
L 667.761926 230.566951 
L 670.273177 251.407457 
L 672.784428 240.58122 
L 675.29568 303.035075 
L 677.806931 301.614131 
L 680.318182 260.000783 
L 682.829433 263.857629 
L 685.340684 260.575926 
L 687.851935 241.393188 
L 690.363186 278.405386 
L 692.874437 313.184672 
L 695.385689 313.895144 
L 697.89694 283.006536 
L 700.408191 263.823797 
L 702.919442 261.65855 
L 705.430693 245.85901 
L 710.453195 322.15015 
L 712.964446 296.505501 
L 715.475698 266.192037 
L 717.986949 264.026789 
L 720.4982 261.117238 
L 723.009451 274.210219 
L 725.520702 290.415742 
L 728.031953 321.744166 
L 730.543204 321.169022 
L 733.054455 281.856249 
L 735.565707 276.307802 
L 738.076958 267.646812 
L 740.588209 267.748308 
L 743.09946 252.320921 
L 745.610711 319.78191 
L 748.121962 323.672589 
L 750.633213 280.705961 
L 753.144464 275.834154 
L 755.655716 249.783521 
L 758.166967 254.418504 
L 760.678218 302.662923 
L 763.189469 326.7513 
L 765.70072 334.05901 
L 768.211971 295.084557 
L 770.723222 281.179609 
L 773.234473 272.044971 
L 775.745725 281.687089 
L 778.256976 293.494453 
L 780.768227 326.108493 
L 783.279478 317.582831 
L 785.790729 287.201703 
L 788.30198 284.562808 
L 790.813231 273.026099 
L 793.324482 250.967641 
L 798.346985 321.879494 
L 800.858236 318.327135 
L 803.369487 274.650035 
L 805.880738 259.933119 
L 808.391989 270.624028 
L 810.90324 272.586283 
L 813.414491 263.485478 
L 815.925743 322.183982 
L 818.436994 317.379839 
L 820.948245 274.277883 
L 823.459496 267.815972 
L 825.970747 267.206997 
L 828.481998 274.582371 
L 830.993249 297.3513 
L 833.5045 292.851646 
L 836.015752 320.28939 
L 838.527003 267.849804 
L 841.038254 276.037146 
L 843.549505 239.532428 
L 846.060756 286.186743 
L 848.572007 284.562808 
L 851.083258 317.515167 
L 853.594509 326.277652 
L 856.105761 280.232313 
L 858.617012 267.409988 
L 861.128263 266.225869 
L 863.639514 250.595489 
L 866.150765 289.231623 
L 868.662016 300.22702 
L 871.173267 316.432543 
L 873.684518 287.946007 
L 876.19577 267.511484 
L 878.707021 261.117238 
L 881.218272 275.698826 
L 883.729523 286.389735 
L 886.240774 315.451415 
L 888.752025 315.045432 
L 891.263276 245.791346 
L 893.774527 294.475581 
L 896.285779 247.279954 
L 898.79703 281.788585 
L 901.308281 286.626559 
L 903.819532 320.323222 
L 906.330783 312.000552 
L 908.842034 256.617583 
L 911.353285 265.109413 
L 913.864536 263.214822 
L 916.375788 275.225178 
L 918.887039 245.250035 
L 921.39829 297.588124 
L 926.420792 274.074891 
L 928.932043 271.909643 
L 931.443294 274.379379 
L 933.954545 272.112635 
L 933.954545 272.112635 
" clip-path="url(#pe8defadf7e)" style="fill: none; stroke: #000000; stroke-width: 1.5; stroke-linecap: square"/>
   </g>
   <g id="line2d_30">
    <path d="M 173.045455 394.584442 
L 175.556706 389.983291 
L 178.067957 389.915627 
L 180.579208 393.501818 
L 183.090459 404.328055 
L 185.60171 398.305961 
L 188.112961 388.833003 
L 190.624212 394.076962 
L 193.135464 402.907112 
L 195.646715 399.084097 
L 198.157966 400.708032 
L 200.669217 406.425639 
L 203.180468 406.324143 
L 205.691719 394.110794 
L 208.20297 393.062002 
L 210.714221 390.626099 
L 213.225473 392.926674 
L 215.736724 396.749689 
L 218.247975 400.911024 
L 220.759226 402.907112 
L 223.270477 395.971554 
L 225.781728 390.829091 
L 228.292979 391.370403 
L 230.80423 398.441289 
L 233.315482 399.422417 
L 235.826733 405.647503 
L 238.337984 403.752911 
L 240.849235 390.321611 
L 243.360486 394.415282 
L 245.871737 390.829091 
L 250.894239 392.960506 
L 253.405491 403.2116 
L 255.916742 402.501128 
L 258.427993 391.945547 
L 260.939244 392.588354 
L 263.450495 394.178458 
L 265.961746 396.851185 
L 268.472997 397.460161 
L 270.984248 406.966951 
L 273.4955 404.429551 
L 276.006751 396.749689 
L 278.518002 394.88893 
L 281.029253 394.685938 
L 283.540504 395.870058 
L 286.051755 397.527825 
L 288.563006 402.264304 
L 291.074257 399.693072 
L 293.585509 397.561657 
L 296.09676 389.002163 
L 298.608011 393.806306 
L 301.119262 397.426329 
L 303.630513 402.061312 
L 306.141764 411.162117 
L 308.653015 408.455558 
L 311.164266 400.471208 
L 313.675518 396.073049 
L 316.186769 395.328746 
L 318.69802 398.745777 
L 321.209271 399.219425 
L 323.720522 408.760046 
L 328.743024 398.069137 
L 331.254275 390.152451 
L 333.765527 388.934499 
L 336.276778 392.250035 
L 338.788029 389.847963 
L 341.29928 399.456249 
L 343.810531 396.648193 
L 348.833033 384.806997 
L 351.344284 389.035995 
L 353.855536 390.626099 
L 356.366787 389.238987 
L 358.878038 401.384672 
L 361.389289 393.298826 
L 363.90054 383.555213 
L 366.411791 389.441979 
L 368.923042 390.659931 
L 371.434293 392.588354 
L 373.945545 395.802394 
L 376.456796 402.670288 
L 378.968047 398.441289 
L 381.479298 390.152451 
L 383.990549 390.118619 
L 386.5018 389.103659 
L 389.013051 391.201243 
L 391.524302 389.509643 
L 394.035554 402.602624 
L 396.546805 399.388585 
L 399.058056 390.558435 
L 401.569307 391.539563 
L 404.080558 390.998251 
L 406.591809 387.2429 
L 409.10306 390.253947 
L 411.614311 397.663153 
L 414.125563 401.18168 
L 416.636814 389.205155 
L 419.148065 390.524603 
L 421.659316 385.72046 
L 424.170567 391.844051 
L 426.681818 391.370403 
L 429.193069 399.726904 
L 431.70432 399.050265 
L 434.215572 387.91954 
L 436.726823 387.479724 
L 439.238074 391.945547 
L 441.749325 389.205155 
L 444.260576 391.877883 
L 446.771827 402.568792 
L 449.283078 401.85832 
L 451.794329 391.133579 
L 454.305581 389.746467 
L 456.816832 387.648884 
L 459.328083 388.968331 
L 461.839334 393.941634 
L 464.350585 400.741864 
L 466.861836 402.298136 
L 469.373087 392.182371 
L 471.884338 388.460852 
L 474.39559 391.742555 
L 476.906841 389.103659 
L 479.418092 394.685938 
L 481.929343 402.636456 
L 484.440594 398.035305 
L 486.951845 391.573395 
L 489.463096 391.471899 
L 491.974347 393.062002 
L 494.485599 389.069827 
L 496.99685 393.907802 
L 499.508101 404.294223 
L 502.019352 399.896064 
L 504.530603 387.818044 
L 507.041854 389.780299 
L 509.553105 388.393188 
L 512.064356 391.133579 
L 514.575608 395.768562 
L 517.086859 399.490081 
L 519.59811 398.745777 
L 522.109361 390.659931 
L 524.620612 392.114707 
L 527.131863 389.746467 
L 529.643114 391.404235 
L 532.154365 392.35153 
L 534.665617 403.448423 
L 537.176868 403.380759 
L 539.688119 392.68985 
L 542.19937 391.235075 
L 544.710621 391.573395 
L 547.221872 394.246122 
L 549.733123 395.294914 
L 552.244374 404.294223 
L 554.755626 401.68916 
L 557.266877 388.59618 
L 559.778128 389.543475 
L 562.289379 389.746467 
L 564.80063 381.051646 
L 567.311881 388.528516 
L 569.823132 396.682025 
L 572.334383 398.914937 
L 574.845635 387.615052 
L 577.356886 389.137491 
L 579.868137 389.678803 
L 582.379388 389.881795 
L 584.890639 396.140713 
L 587.40189 403.143936 
L 589.913141 403.583751 
L 592.424392 391.438067 
L 594.935644 389.205155 
L 597.446895 389.983291 
L 599.958146 392.080875 
L 602.469397 392.926674 
L 604.980648 401.35084 
L 607.491899 402.568792 
L 610.00315 391.133579 
L 612.514401 387.784212 
L 615.025653 393.70481 
L 617.536904 393.907802 
L 620.048155 395.430242 
L 622.559406 402.636456 
L 625.070657 406.865455 
L 627.581908 397.696985 
L 630.093159 394.990426 
L 632.60441 390.626099 
L 635.115662 395.39641 
L 637.626913 397.629321 
L 640.138164 357.200092 
L 642.649415 400.16672 
L 645.160666 390.524603 
L 647.671917 388.833003 
L 650.183168 396.783521 
L 652.694419 392.588354 
L 655.205671 397.595489 
L 657.716922 401.85832 
L 660.228173 403.143936 
L 662.739424 386.532428 
L 665.250675 389.441979 
L 667.761926 389.678803 
L 670.273177 390.084787 
L 672.784428 392.35153 
L 675.29568 403.583751 
L 677.806931 404.463383 
L 680.318182 390.220115 
L 682.829433 393.467986 
L 685.340684 393.569482 
L 687.851935 393.87397 
L 690.363186 394.38145 
L 692.874437 397.764649 
L 695.385689 405.004695 
L 697.89694 396.715857 
L 700.408191 391.201243 
L 702.919442 391.539563 
L 705.430693 391.573395 
L 707.941944 394.38145 
L 710.453195 404.226559 
L 712.964446 401.790656 
L 715.475698 399.050265 
L 717.986949 397.460161 
L 720.4982 394.04313 
L 723.009451 397.324833 
L 725.520702 399.726904 
L 728.031953 406.865455 
L 730.543204 406.696295 
L 733.054455 397.257169 
L 735.565707 395.971554 
L 738.076958 395.971554 
L 740.588209 397.054177 
L 743.09946 392.588354 
L 745.610711 379.25855 
L 748.121962 361.699747 
L 750.633213 365.082946 
L 753.144464 377.363959 
L 755.655716 385.145316 
L 758.166967 388.156364 
L 760.678218 394.38145 
L 763.189469 406.087319 
L 765.70072 402.230472 
L 768.211971 388.630012 
L 770.723222 393.772474 
L 773.234473 392.622186 
L 775.745725 391.945547 
L 778.256976 357.470748 
L 780.768227 407.13611 
L 783.279478 405.647503 
L 785.790729 395.328746 
L 788.30198 395.56557 
L 790.813231 396.309873 
L 793.324482 392.385362 
L 795.835734 396.512865 
L 798.346985 405.004695 
L 800.858236 406.391807 
L 803.369487 394.55061 
L 805.880738 394.246122 
L 808.391989 393.637146 
L 810.90324 395.836226 
L 813.414491 400.16672 
L 815.925743 407.880414 
L 818.436994 405.004695 
L 820.948245 394.076962 
L 823.459496 391.911715 
L 825.970747 393.772474 
L 828.481998 397.595489 
L 830.993249 398.339793 
L 833.5045 403.820575 
L 836.015752 401.621496 
L 838.527003 392.182371 
L 841.038254 392.68985 
L 843.549505 394.009298 
L 846.060756 392.926674 
L 848.572007 398.779609 
L 851.083258 405.782831 
L 853.594509 406.933119 
L 856.105761 397.189505 
L 858.617012 394.313786 
L 861.128263 394.21229 
L 863.639514 397.663153 
L 866.150765 399.523913 
L 868.662016 407.508262 
L 871.173267 406.019655 
L 873.684518 394.347618 
L 876.19577 394.516778 
L 878.707021 399.016433 
L 881.218272 396.377537 
L 883.729523 398.813441 
L 886.240774 406.696295 
L 888.752025 406.188815 
L 891.263276 397.561657 
L 893.774527 398.644281 
L 896.285779 392.114707 
L 898.79703 392.892842 
L 901.308281 398.441289 
L 903.819532 406.662463 
L 906.330783 405.478343 
L 908.842034 399.523913 
L 911.353285 396.918849 
L 913.864536 396.140713 
L 916.375788 396.242209 
L 918.887039 359.263843 
L 921.39829 407.508262 
L 923.909541 366.537722 
L 926.420792 397.764649 
L 928.932043 397.967641 
L 933.954545 394.55061 
L 933.954545 394.55061 
" clip-path="url(#pe8defadf7e)" style="fill: none; stroke: #ff0000; stroke-width: 1.5; stroke-linecap: square"/>
   </g>
   <g id="line2d_31">
    <path d="M 173.045455 420.905731 
L 175.556706 420.262923 
L 178.067957 417.556364 
L 180.579208 423.646122 
L 183.090459 425.811369 
L 185.60171 424.424258 
L 188.112961 421.886858 
L 190.624212 423.206306 
L 193.135464 425.912865 
L 195.646715 424.153602 
L 198.157966 422.76649 
L 200.669217 427.942785 
L 203.180468 427.198481 
L 205.691719 422.664994 
L 208.20297 423.544626 
L 210.714221 420.567411 
L 213.225473 420.567411 
L 215.736724 423.61229 
L 218.247975 423.849114 
L 220.759226 424.45809 
L 223.270477 422.969482 
L 225.781728 422.394338 
L 228.292979 421.954522 
L 230.80423 422.631162 
L 233.315482 426.691001 
L 235.826733 427.841289 
L 238.337984 426.995489 
L 240.849235 423.61229 
L 243.360486 423.206306 
L 248.382988 423.070978 
L 250.894239 425.642209 
L 253.405491 427.638297 
L 255.916742 426.217353 
L 258.427993 421.650035 
L 260.939244 422.969482 
L 263.450495 422.157514 
L 265.961746 423.578458 
L 268.472997 425.642209 
L 270.984248 429.059241 
L 273.4955 427.401473 
L 276.006751 424.931738 
L 278.518002 424.897906 
L 281.029253 423.95061 
L 283.540504 425.574545 
L 286.051755 425.642209 
L 291.074257 427.976617 
L 293.585509 427.875121 
L 296.09676 425.946697 
L 298.608011 426.217353 
L 301.119262 426.318849 
L 306.141764 430.24336 
L 308.653015 430.92 
L 311.164266 428.517929 
L 313.675518 426.792497 
L 316.186769 425.980529 
L 318.69802 425.574545 
L 321.209271 426.927825 
L 323.720522 430.683176 
L 326.231773 428.991577 
L 328.743024 424.864074 
L 333.765527 422.225178 
L 336.276778 423.375466 
L 338.788029 423.341634 
L 341.29928 427.130817 
L 343.810531 425.743705 
L 346.321782 422.59733 
L 348.833033 422.157514 
L 351.344284 420.296755 
L 356.366787 419.586283 
L 358.878038 424.221266 
L 361.389289 423.815282 
L 363.90054 419.518619 
L 366.411791 420.330587 
L 368.923042 419.281795 
L 371.434293 418.977307 
L 373.945545 421.886858 
L 376.456796 423.510794 
L 378.968047 423.95061 
L 381.479298 420.533579 
L 383.990549 420.804235 
L 386.5018 420.871899 
L 389.013051 422.563498 
L 391.524302 420.871899 
L 394.035554 426.521841 
L 396.546805 425.270058 
L 399.058056 421.75153 
L 401.569307 420.432083 
L 404.080558 421.514707 
L 406.591809 422.123682 
L 409.10306 422.360506 
L 411.614311 427.232313 
L 414.125563 423.375466 
L 416.636814 421.92069 
L 419.148065 420.330587 
L 421.659316 421.853026 
L 424.170567 422.563498 
L 426.681818 423.95061 
L 429.193069 426.352681 
L 431.70432 422.25901 
L 434.215572 420.398251 
L 436.726823 421.345547 
L 439.238074 420.702739 
L 441.749325 421.142555 
L 444.260576 421.819194 
L 446.771827 425.574545 
L 449.283078 425.811369 
L 451.794329 419.450955 
L 454.305581 415.323452 
L 456.816832 418.503659 
L 459.328083 420.736571 
L 461.839334 422.25901 
L 464.350585 425.912865 
L 466.861836 423.916778 
L 469.373087 418.875811 
L 471.884338 420.567411 
L 474.39559 419.789275 
L 476.906841 421.413211 
L 479.418092 421.548539 
L 481.929343 426.927825 
L 484.440594 426.961657 
L 486.951845 422.394338 
L 489.463096 422.969482 
L 491.974347 422.394338 
L 494.485599 422.42817 
L 496.99685 423.916778 
L 499.508101 426.352681 
L 502.019352 425.574545 
L 504.530603 421.480875 
L 507.041854 423.61229 
L 509.553105 421.514707 
L 512.064356 422.969482 
L 514.575608 422.800322 
L 517.086859 425.743705 
L 519.59811 424.79641 
L 522.109361 419.518619 
L 524.620612 419.653947 
L 527.131863 422.969482 
L 529.643114 421.616203 
L 532.154365 421.345547 
L 534.665617 427.604465 
L 537.176868 426.555673 
L 539.688119 423.172474 
L 542.19937 422.732658 
L 544.710621 419.484787 
L 547.221872 421.345547 
L 549.733123 423.61229 
L 552.244374 426.488009 
L 554.755626 425.30389 
L 557.266877 423.815282 
L 559.778128 423.984442 
L 562.289379 417.860852 
L 564.80063 413.259701 
L 569.823132 424.762578 
L 572.334383 424.559586 
L 574.845635 419.383291 
L 577.356886 418.706651 
L 579.868137 420.161427 
L 582.379388 415.28962 
L 584.890639 419.687779 
L 587.40189 426.961657 
L 589.913141 426.386513 
L 592.424392 421.277883 
L 594.935644 420.229091 
L 597.446895 421.142555 
L 599.958146 421.244051 
L 602.469397 421.514707 
L 604.980648 426.454177 
L 607.491899 424.897906 
L 610.00315 422.732658 
L 612.514401 421.480875 
L 615.025653 421.514707 
L 617.536904 421.379379 
L 620.048155 423.510794 
L 622.559406 426.082025 
L 625.070657 427.096985 
L 627.581908 423.172474 
L 630.093159 423.003314 
L 632.60441 421.244051 
L 635.115662 421.074891 
L 637.626913 423.476962 
L 640.138164 426.792497 
L 642.649415 425.168562 
L 645.160666 419.789275 
L 647.671917 412.853717 
L 650.183168 419.721611 
L 652.694419 416.541404 
L 655.205671 418.841979 
L 657.716922 424.999402 
L 660.228173 423.61229 
L 662.739424 418.165339 
L 665.250675 418.334499 
L 667.761926 420.668907 
L 672.784428 423.037146 
L 675.29568 427.638297 
L 677.806931 425.811369 
L 680.318182 421.277883 
L 682.829433 409.064534 
L 685.340684 420.601243 
L 687.851935 421.717699 
L 690.363186 421.480875 
L 692.874437 424.187434 
L 695.385689 422.056018 
L 697.89694 424.322762 
L 700.408191 424.999402 
L 702.919442 422.698826 
L 705.430693 423.44313 
L 707.941944 423.070978 
L 710.453195 426.657169 
L 712.964446 428.078113 
L 715.475698 424.28893 
L 717.986949 423.307802 
L 720.4982 424.187434 
L 723.009451 421.886858 
L 725.520702 425.642209 
L 728.031953 428.213441 
L 730.543204 428.788585 
L 733.054455 423.510794 
L 735.565707 423.172474 
L 738.076958 421.819194 
L 740.588209 424.28893 
L 743.09946 425.676041 
L 745.610711 428.551761 
L 748.121962 428.213441 
L 750.633213 423.747618 
L 753.144464 422.056018 
L 755.655716 419.315627 
L 758.166967 423.307802 
L 760.678218 424.762578 
L 763.189469 428.044281 
L 765.70072 427.942785 
L 768.211971 421.142555 
L 770.723222 422.157514 
L 773.234473 421.92069 
L 775.745725 423.544626 
L 778.256976 421.480875 
L 780.768227 427.638297 
L 783.279478 428.145777 
L 785.790729 421.514707 
L 788.30198 422.901818 
L 790.813231 424.11977 
L 793.324482 423.61229 
L 795.835734 423.916778 
L 798.346985 428.687089 
L 800.858236 428.382601 
L 803.369487 422.76649 
L 805.880738 423.037146 
L 808.391989 424.762578 
L 810.90324 423.476962 
L 813.414491 424.999402 
L 815.925743 428.551761 
L 818.436994 427.908953 
L 820.948245 423.138642 
L 823.459496 419.518619 
L 825.970747 419.484787 
L 828.481998 421.041059 
L 830.993249 423.916778 
L 833.5045 427.029321 
L 836.015752 428.078113 
L 838.527003 419.958435 
L 841.038254 421.886858 
L 843.549505 421.717699 
L 846.060756 422.76649 
L 848.572007 423.10481 
L 851.083258 430.277192 
L 853.594509 429.363728 
L 856.105761 424.62725 
L 858.617012 421.548539 
L 861.128263 422.529666 
L 863.639514 422.056018 
L 866.150765 425.30389 
L 868.662016 427.130817 
L 871.173267 427.333809 
L 873.684518 421.007227 
L 876.19577 420.093763 
L 878.707021 422.08985 
L 881.218272 422.969482 
L 883.729523 425.777537 
L 886.240774 426.521841 
L 888.752025 426.691001 
L 891.263276 420.330587 
L 893.774527 423.240138 
L 896.285779 424.085938 
L 898.79703 423.578458 
L 901.308281 425.879033 
L 903.819532 428.923913 
L 906.330783 428.619425 
L 908.842034 424.694914 
L 911.353285 422.93565 
L 913.864536 424.762578 
L 916.375788 424.830242 
L 918.887039 424.728746 
L 921.39829 429.56672 
L 923.909541 428.923913 
L 926.420792 423.341634 
L 928.932043 424.390426 
L 931.443294 425.642209 
L 933.954545 426.318849 
L 933.954545 426.318849 
" clip-path="url(#pe8defadf7e)" style="fill: none; stroke: #ffa500; stroke-width: 1.5; stroke-linecap: square"/>
   </g>
   <g id="line2d_32">
    <path d="M 173.045455 385.5513 
L 175.556706 382.540253 
L 178.067957 377.059471 
L 180.579208 379.563038 
L 183.090459 390.118619 
L 185.60171 389.171323 
L 188.112961 381.389965 
L 190.624212 382.980069 
L 193.135464 394.144626 
L 195.646715 383.487549 
L 198.157966 384.570173 
L 200.669217 396.276041 
L 203.180468 393.264994 
L 205.691719 384.637837 
L 208.20297 378.886398 
L 210.714221 383.250725 
L 213.225473 385.483636 
L 215.736724 387.885708 
L 218.247975 395.464074 
L 220.759226 385.72046 
L 223.270477 385.72046 
L 225.781728 379.93519 
L 228.292979 384.096525 
L 230.80423 387.141404 
L 233.315482 389.712635 
L 235.826733 390.017123 
L 238.337984 390.626099 
L 240.849235 383.893533 
L 243.360486 386.600092 
L 245.871737 382.201933 
L 248.382988 383.487549 
L 253.405491 395.294914 
L 255.916742 392.114707 
L 258.427993 384.570173 
L 260.939244 383.690541 
L 263.450495 384.536341 
L 265.961746 384.198021 
L 268.472997 391.641059 
L 270.984248 394.956594 
L 273.4955 392.825178 
L 276.006751 386.024948 
L 278.518002 386.667756 
L 281.029253 387.818044 
L 283.540504 387.141404 
L 286.051755 396.783521 
L 288.563006 397.933809 
L 291.074257 393.467986 
L 293.585509 389.340483 
L 296.09676 384.130357 
L 301.119262 387.818044 
L 303.630513 395.464074 
L 306.141764 399.794568 
L 308.653015 398.339793 
L 311.164266 394.821266 
L 313.675518 387.58122 
L 318.69802 387.445892 
L 321.209271 394.821266 
L 323.720522 398.610449 
L 326.231773 395.937722 
L 328.743024 385.788124 
L 331.254275 379.76603 
L 333.765527 381.626789 
L 336.276778 374.420575 
L 338.788029 381.660621 
L 341.29928 389.441979 
L 343.810531 382.303429 
L 346.321782 380.814822 
L 348.833033 373.574776 
L 351.344284 374.454407 
L 353.855536 376.112175 
L 356.366787 373.743936 
L 358.878038 382.574085 
L 361.389289 385.348308 
L 363.90054 371.172704 
L 366.411791 369.548769 
L 368.923042 370.529896 
L 371.434293 376.890311 
L 373.945545 376.822647 
L 376.456796 389.983291 
L 378.968047 386.870748 
L 381.479298 376.416663 
L 383.990549 375.570863 
L 386.5018 377.160967 
L 389.013051 381.11931 
L 391.524302 379.055558 
L 394.035554 383.419885 
L 396.546805 386.498596 
L 399.058056 304.625178 
L 401.569307 339.979609 
L 404.080558 378.07443 
L 406.591809 378.311254 
L 409.10306 379.59687 
L 411.614311 381.017814 
L 414.125563 380.78099 
L 416.636814 375.672359 
L 419.148065 376.890311 
L 421.659316 376.146007 
L 424.170567 373.946928 
L 426.681818 380.239678 
L 429.193069 383.284557 
L 431.70432 381.28847 
L 434.215572 374.014591 
L 436.726823 381.356133 
L 439.238074 379.393878 
L 441.749325 376.856479 
L 444.260576 382.134269 
L 446.771827 384.367181 
L 449.283078 382.337261 
L 451.794329 378.311254 
L 454.305581 371.003544 
L 456.816832 358.891692 
L 459.328083 376.247503 
L 461.839334 382.066605 
L 464.350585 388.799171 
L 466.861836 386.498596 
L 469.373087 379.495374 
L 471.884338 378.480414 
L 474.39559 380.44267 
L 476.906841 379.055558 
L 479.418092 379.93519 
L 481.929343 388.359356 
L 484.440594 387.547388 
L 486.951845 380.44267 
L 489.463096 378.006766 
L 491.974347 365.082946 
L 494.485599 380.172014 
L 496.99685 380.239678 
L 499.508101 386.22794 
L 502.019352 386.600092 
L 504.530603 380.814822 
L 507.041854 372.661312 
L 509.553105 369.108953 
L 512.064356 368.398481 
L 514.575608 369.447273 
L 517.086859 381.28847 
L 519.59811 378.41275 
L 522.109361 374.386743 
L 524.620612 377.499287 
L 527.131863 377.533119 
L 529.643114 379.326214 
L 532.154365 385.21298 
L 534.665617 393.670978 
L 537.176868 390.524603 
L 539.688119 382.201933 
L 542.19937 377.431623 
L 544.710621 378.040598 
L 547.221872 382.743245 
L 549.733123 388.224028 
L 552.244374 389.205155 
L 554.755626 383.656709 
L 557.266877 377.803774 
L 559.778128 378.75107 
L 562.289379 380.205846 
L 564.80063 377.90527 
L 567.311881 382.032773 
L 569.823132 392.419194 
L 572.334383 384.198021 
L 574.845635 329.2887 
L 577.356886 252.016433 
L 579.868137 300.937491 
L 582.379388 356.65878 
L 584.890639 375.063383 
L 587.40189 387.513556 
L 589.913141 380.983982 
L 592.424392 380.408838 
L 594.935644 378.683406 
L 597.446895 379.055558 
L 599.958146 382.574085 
L 602.469397 384.976157 
L 604.980648 393.53565 
L 607.491899 393.095834 
L 610.00315 387.310564 
L 612.514401 385.145316 
L 615.025653 385.111484 
L 617.536904 386.73542 
L 620.048155 393.806306 
L 622.559406 399.219425 
L 625.070657 398.508953 
L 627.581908 390.321611 
L 630.093159 384.705501 
L 632.60441 390.626099 
L 635.115662 389.205155 
L 637.626913 390.456939 
L 640.138164 382.201933 
L 642.649415 396.715857 
L 645.160666 390.829091 
L 647.671917 387.58122 
L 650.183168 390.626099 
L 652.694419 383.893533 
L 655.205671 382.168101 
L 657.716922 354.595029 
L 660.228173 355.609988 
L 662.739424 319.409758 
L 665.250675 353.410909 
L 667.761926 369.853257 
L 670.273177 370.496064 
L 672.784428 380.44267 
L 675.29568 388.494684 
L 677.806931 386.22794 
L 680.318182 384.434845 
L 682.829433 383.521381 
L 685.340684 387.547388 
L 687.851935 389.069827 
L 690.363186 391.235075 
L 692.874437 395.667066 
L 695.385689 398.069137 
L 697.89694 388.697675 
L 700.408191 387.615052 
L 702.919442 387.513556 
L 705.430693 390.727595 
L 707.941944 392.960506 
L 710.453195 397.629321 
L 712.964446 385.04382 
L 715.475698 392.283867 
L 717.986949 384.062693 
L 720.4982 366.436226 
L 723.009451 359.568331 
L 725.520702 358.85786 
L 728.031953 369.278113 
L 730.543204 363.932658 
L 733.054455 354.628861 
L 735.565707 325.601013 
L 738.076958 315.0116 
L 740.588209 313.117008 
L 743.09946 323.706421 
L 745.610711 324.552221 
L 748.121962 321.575006 
L 750.633213 325.398021 
L 753.144464 326.480644 
L 755.655716 325.702509 
L 758.166967 324.755213 
L 760.678218 326.785132 
L 763.189469 336.190426 
L 765.70072 329.2887 
L 768.211971 389.475811 
L 770.723222 381.795949 
L 773.234473 375.672359 
L 775.745725 325.025869 
L 778.256976 338.727825 
L 780.768227 343.599632 
L 783.279478 336.968562 
L 785.790729 327.563268 
L 788.30198 319.206766 
L 790.813231 350.941174 
L 793.324482 388.799171 
L 795.835734 394.279954 
L 798.346985 401.317008 
L 800.858236 398.305961 
L 803.369487 383.352221 
L 805.880738 367.079033 
L 808.391989 374.014591 
L 810.90324 383.013901 
L 813.414491 393.907802 
L 815.925743 399.456249 
L 818.436994 397.121841 
L 820.948245 386.633924 
L 823.459496 390.456939 
L 828.481998 389.949459 
L 830.993249 394.753602 
L 833.5045 398.339793 
L 836.015752 397.527825 
L 838.527003 380.78099 
L 841.038254 383.961197 
L 843.549505 386.532428 
L 846.060756 387.141404 
L 848.572007 391.979379 
L 851.083258 403.110104 
L 853.594509 398.914937 
L 856.105761 392.68985 
L 858.617012 393.231162 
L 861.128263 389.374315 
L 863.639514 391.539563 
L 868.662016 404.057399 
L 871.173267 400.403544 
L 873.684518 392.317699 
L 876.19577 392.825178 
L 878.707021 392.148539 
L 881.218272 394.685938 
L 883.729523 394.482946 
L 886.240774 399.929896 
L 888.752025 400.50504 
L 891.263276 390.795259 
L 893.774527 391.133579 
L 896.285779 393.603314 
L 898.79703 394.009298 
L 901.308281 395.531738 
L 903.819532 402.805616 
L 906.330783 400.403544 
L 908.842034 396.309873 
L 911.353285 391.065915 
L 913.864536 390.558435 
L 916.375788 387.175236 
L 918.887039 375.672359 
L 921.39829 402.298136 
L 923.909541 384.401013 
L 926.420792 395.90389 
L 928.932043 394.821266 
L 931.443294 391.404235 
L 933.954545 390.321611 
L 933.954545 390.321611 
" clip-path="url(#pe8defadf7e)" style="fill: none; stroke: #0000ff; stroke-width: 1.5; stroke-linecap: square"/>
   </g>
   <g id="patch_3">
    <path d="M 135 448.56 
L 135 60.48 
" style="fill: none; stroke: #000000; stroke-width: 0.8; stroke-linejoin: miter; stroke-linecap: square"/>
   </g>
   <g id="patch_4">
    <path d="M 972 448.56 
L 972 60.48 
" style="fill: none; stroke: #000000; stroke-width: 0.8; stroke-linejoin: miter; stroke-linecap: square"/>
   </g>
   <g id="patch_5">
    <path d="M 135 448.56 
L 972 448.56 
" style="fill: none; stroke: #000000; stroke-width: 0.8; stroke-linejoin: miter; stroke-linecap: square"/>
   </g>
   <g id="patch_6">
    <path d="M 135 60.48 
L 972 60.48 
" style="fill: none; stroke: #000000; stroke-width: 0.8; stroke-linejoin: miter; stroke-linecap: square"/>
   </g>
   <g id="text_17">
    <!-- Pageviews data for pages Linux, Debian, Ubuntu and Windows Vista -->
    <g transform="translate(348.92625 54.48) scale(0.12 -0.12)">
     <defs>
      <path id="DejaVuSans-73" d="M 2834 3397 
L 2834 2853 
Q 2591 2978 2328 3040 
Q 2066 3103 1784 3103 
Q 1356 3103 1142 2972 
Q 928 2841 928 2578 
Q 928 2378 1081 2264 
Q 1234 2150 1697 2047 
L 1894 2003 
Q 2506 1872 2764 1633 
Q 3022 1394 3022 966 
Q 3022 478 2636 193 
Q 2250 -91 1575 -91 
Q 1294 -91 989 -36 
Q 684 19 347 128 
L 347 722 
Q 666 556 975 473 
Q 1284 391 1588 391 
Q 1994 391 2212 530 
Q 2431 669 2431 922 
Q 2431 1156 2273 1281 
Q 2116 1406 1581 1522 
L 1381 1569 
Q 847 1681 609 1914 
Q 372 2147 372 2553 
Q 372 3047 722 3315 
Q 1072 3584 1716 3584 
Q 2034 3584 2315 3537 
Q 2597 3491 2834 3397 
z
" transform="scale(0.015625)"/>
      <path id="DejaVuSans-64" d="M 2906 2969 
L 2906 4863 
L 3481 4863 
L 3481 0 
L 2906 0 
L 2906 525 
Q 2725 213 2448 61 
Q 2172 -91 1784 -91 
Q 1150 -91 751 415 
Q 353 922 353 1747 
Q 353 2572 751 3078 
Q 1150 3584 1784 3584 
Q 2172 3584 2448 3432 
Q 2725 3281 2906 2969 
z
M 947 1747 
Q 947 1113 1208 752 
Q 1469 391 1925 391 
Q 2381 391 2643 752 
Q 2906 1113 2906 1747 
Q 2906 2381 2643 2742 
Q 2381 3103 1925 3103 
Q 1469 3103 1208 2742 
Q 947 2381 947 1747 
z
" transform="scale(0.015625)"/>
      <path id="DejaVuSans-66" d="M 2375 4863 
L 2375 4384 
L 1825 4384 
Q 1516 4384 1395 4259 
Q 1275 4134 1275 3809 
L 1275 3500 
L 2222 3500 
L 2222 3053 
L 1275 3053 
L 1275 0 
L 697 0 
L 697 3053 
L 147 3053 
L 147 3500 
L 697 3500 
L 697 3744 
Q 697 4328 969 4595 
Q 1241 4863 1831 4863 
L 2375 4863 
z
" transform="scale(0.015625)"/>
      <path id="DejaVuSans-72" d="M 2631 2963 
Q 2534 3019 2420 3045 
Q 2306 3072 2169 3072 
Q 1681 3072 1420 2755 
Q 1159 2438 1159 1844 
L 1159 0 
L 581 0 
L 581 3500 
L 1159 3500 
L 1159 2956 
Q 1341 3275 1631 3429 
Q 1922 3584 2338 3584 
Q 2397 3584 2469 3576 
Q 2541 3569 2628 3553 
L 2631 2963 
z
" transform="scale(0.015625)"/>
      <path id="DejaVuSans-70" d="M 1159 525 
L 1159 -1331 
L 581 -1331 
L 581 3500 
L 1159 3500 
L 1159 2969 
Q 1341 3281 1617 3432 
Q 1894 3584 2278 3584 
Q 2916 3584 3314 3078 
Q 3713 2572 3713 1747 
Q 3713 922 3314 415 
Q 2916 -91 2278 -91 
Q 1894 -91 1617 61 
Q 1341 213 1159 525 
z
M 3116 1747 
Q 3116 2381 2855 2742 
Q 2594 3103 2138 3103 
Q 1681 3103 1420 2742 
Q 1159 2381 1159 1747 
Q 1159 1113 1420 752 
Q 1681 391 2138 391 
Q 2594 391 2855 752 
Q 3116 1113 3116 1747 
z
" transform="scale(0.015625)"/>
      <path id="DejaVuSans-4c" d="M 628 4666 
L 1259 4666 
L 1259 531 
L 3531 531 
L 3531 0 
L 628 0 
L 628 4666 
z
" transform="scale(0.015625)"/>
      <path id="DejaVuSans-78" d="M 3513 3500 
L 2247 1797 
L 3578 0 
L 2900 0 
L 1881 1375 
L 863 0 
L 184 0 
L 1544 1831 
L 300 3500 
L 978 3500 
L 1906 2253 
L 2834 3500 
L 3513 3500 
z
" transform="scale(0.015625)"/>
      <path id="DejaVuSans-62" d="M 3116 1747 
Q 3116 2381 2855 2742 
Q 2594 3103 2138 3103 
Q 1681 3103 1420 2742 
Q 1159 2381 1159 1747 
Q 1159 1113 1420 752 
Q 1681 391 2138 391 
Q 2594 391 2855 752 
Q 3116 1113 3116 1747 
z
M 1159 2969 
Q 1341 3281 1617 3432 
Q 1894 3584 2278 3584 
Q 2916 3584 3314 3078 
Q 3713 2572 3713 1747 
Q 3713 922 3314 415 
Q 2916 -91 2278 -91 
Q 1894 -91 1617 61 
Q 1341 213 1159 525 
L 1159 0 
L 581 0 
L 581 4863 
L 1159 4863 
L 1159 2969 
z
" transform="scale(0.015625)"/>
      <path id="DejaVuSans-55" d="M 556 4666 
L 1191 4666 
L 1191 1831 
Q 1191 1081 1462 751 
Q 1734 422 2344 422 
Q 2950 422 3222 751 
Q 3494 1081 3494 1831 
L 3494 4666 
L 4128 4666 
L 4128 1753 
Q 4128 841 3676 375 
Q 3225 -91 2344 -91 
Q 1459 -91 1007 375 
Q 556 841 556 1753 
L 556 4666 
z
" transform="scale(0.015625)"/>
      <path id="DejaVuSans-57" d="M 213 4666 
L 850 4666 
L 1831 722 
L 2809 4666 
L 3519 4666 
L 4500 722 
L 5478 4666 
L 6119 4666 
L 4947 0 
L 4153 0 
L 3169 4050 
L 2175 0 
L 1381 0 
L 213 4666 
z
" transform="scale(0.015625)"/>
      <path id="DejaVuSans-56" d="M 1831 0 
L 50 4666 
L 709 4666 
L 2188 738 
L 3669 4666 
L 4325 4666 
L 2547 0 
L 1831 0 
z
" transform="scale(0.015625)"/>
     </defs>
     <use xlink:href="#DejaVuSans-50"/>
     <use xlink:href="#DejaVuSans-61" transform="translate(55.802734 0)"/>
     <use xlink:href="#DejaVuSans-67" transform="translate(117.082031 0)"/>
     <use xlink:href="#DejaVuSans-65" transform="translate(180.558594 0)"/>
     <use xlink:href="#DejaVuSans-76" transform="translate(242.082031 0)"/>
     <use xlink:href="#DejaVuSans-69" transform="translate(301.261719 0)"/>
     <use xlink:href="#DejaVuSans-65" transform="translate(329.044922 0)"/>
     <use xlink:href="#DejaVuSans-77" transform="translate(390.568359 0)"/>
     <use xlink:href="#DejaVuSans-73" transform="translate(472.355469 0)"/>
     <use xlink:href="#DejaVuSans-20" transform="translate(524.455078 0)"/>
     <use xlink:href="#DejaVuSans-64" transform="translate(556.242188 0)"/>
     <use xlink:href="#DejaVuSans-61" transform="translate(619.71875 0)"/>
     <use xlink:href="#DejaVuSans-74" transform="translate(680.998047 0)"/>
     <use xlink:href="#DejaVuSans-61" transform="translate(720.207031 0)"/>
     <use xlink:href="#DejaVuSans-20" transform="translate(781.486328 0)"/>
     <use xlink:href="#DejaVuSans-66" transform="translate(813.273438 0)"/>
     <use xlink:href="#DejaVuSans-6f" transform="translate(848.478516 0)"/>
     <use xlink:href="#DejaVuSans-72" transform="translate(909.660156 0)"/>
     <use xlink:href="#DejaVuSans-20" transform="translate(950.773438 0)"/>
     <use xlink:href="#DejaVuSans-70" transform="translate(982.560547 0)"/>
     <use xlink:href="#DejaVuSans-61" transform="translate(1046.037109 0)"/>
     <use xlink:href="#DejaVuSans-67" transform="translate(1107.316406 0)"/>
     <use xlink:href="#DejaVuSans-65" transform="translate(1170.792969 0)"/>
     <use xlink:href="#DejaVuSans-73" transform="translate(1232.316406 0)"/>
     <use xlink:href="#DejaVuSans-20" transform="translate(1284.416016 0)"/>
     <use xlink:href="#DejaVuSans-4c" transform="translate(1316.203125 0)"/>
     <use xlink:href="#DejaVuSans-69" transform="translate(1371.916016 0)"/>
     <use xlink:href="#DejaVuSans-6e" transform="translate(1399.699219 0)"/>
     <use xlink:href="#DejaVuSans-75" transform="translate(1463.078125 0)"/>
     <use xlink:href="#DejaVuSans-78" transform="translate(1526.457031 0)"/>
     <use xlink:href="#DejaVuSans-2c" transform="translate(1585.636719 0)"/>
     <use xlink:href="#DejaVuSans-20" transform="translate(1617.423828 0)"/>
     <use xlink:href="#DejaVuSans-44" transform="translate(1649.210938 0)"/>
     <use xlink:href="#DejaVuSans-65" transform="translate(1726.212891 0)"/>
     <use xlink:href="#DejaVuSans-62" transform="translate(1787.736328 0)"/>
     <use xlink:href="#DejaVuSans-69" transform="translate(1851.212891 0)"/>
     <use xlink:href="#DejaVuSans-61" transform="translate(1878.996094 0)"/>
     <use xlink:href="#DejaVuSans-6e" transform="translate(1940.275391 0)"/>
     <use xlink:href="#DejaVuSans-2c" transform="translate(2003.654297 0)"/>
     <use xlink:href="#DejaVuSans-20" transform="translate(2035.441406 0)"/>
     <use xlink:href="#DejaVuSans-55" transform="translate(2067.228516 0)"/>
     <use xlink:href="#DejaVuSans-62" transform="translate(2140.421875 0)"/>
     <use xlink:href="#DejaVuSans-75" transform="translate(2203.898438 0)"/>
     <use xlink:href="#DejaVuSans-6e" transform="translate(2267.277344 0)"/>
     <use xlink:href="#DejaVuSans-74" transform="translate(2330.65625 0)"/>
     <use xlink:href="#DejaVuSans-75" transform="translate(2369.865234 0)"/>
     <use xlink:href="#DejaVuSans-20" transform="translate(2433.244141 0)"/>
     <use xlink:href="#DejaVuSans-61" transform="translate(2465.03125 0)"/>
     <use xlink:href="#DejaVuSans-6e" transform="translate(2526.310547 0)"/>
     <use xlink:href="#DejaVuSans-64" transform="translate(2589.689453 0)"/>
     <use xlink:href="#DejaVuSans-20" transform="translate(2653.166016 0)"/>
     <use xlink:href="#DejaVuSans-57" transform="translate(2684.953125 0)"/>
     <use xlink:href="#DejaVuSans-69" transform="translate(2781.580078 0)"/>
     <use xlink:href="#DejaVuSans-6e" transform="translate(2809.363281 0)"/>
     <use xlink:href="#DejaVuSans-64" transform="translate(2872.742188 0)"/>
     <use xlink:href="#DejaVuSans-6f" transform="translate(2936.21875 0)"/>
     <use xlink:href="#DejaVuSans-77" transform="translate(2997.400391 0)"/>
     <use xlink:href="#DejaVuSans-73" transform="translate(3079.1875 0)"/>
     <use xlink:href="#DejaVuSans-20" transform="translate(3131.287109 0)"/>
     <use xlink:href="#DejaVuSans-56" transform="translate(3163.074219 0)"/>
     <use xlink:href="#DejaVuSans-69" transform="translate(3229.232422 0)"/>
     <use xlink:href="#DejaVuSans-73" transform="translate(3257.015625 0)"/>
     <use xlink:href="#DejaVuSans-74" transform="translate(3309.115234 0)"/>
     <use xlink:href="#DejaVuSans-61" transform="translate(3348.324219 0)"/>
    </g>
   </g>
   <g id="legend_1">
    <g id="patch_7">
     <path d="M 860.5375 127.1925 
L 965 127.1925 
Q 967 127.1925 967 125.1925 
L 967 67.48 
Q 967 65.48 965 65.48 
L 860.5375 65.48 
Q 858.5375 65.48 858.5375 67.48 
L 858.5375 125.1925 
Q 858.5375 127.1925 860.5375 127.1925 
z
" style="fill: #ffffff; opacity: 0.8; stroke: #cccccc; stroke-linejoin: miter"/>
    </g>
    <g id="line2d_33">
     <path d="M 862.5375 73.578438 
L 872.5375 73.578438 
L 882.5375 73.578438 
" style="fill: none; stroke: #000000; stroke-width: 1.5; stroke-linecap: square"/>
    </g>
    <g id="text_18">
     <!-- Linux -->
     <g transform="translate(890.5375 77.078438) scale(0.1 -0.1)">
      <use xlink:href="#DejaVuSans-4c"/>
      <use xlink:href="#DejaVuSans-69" transform="translate(55.712891 0)"/>
      <use xlink:href="#DejaVuSans-6e" transform="translate(83.496094 0)"/>
      <use xlink:href="#DejaVuSans-75" transform="translate(146.875 0)"/>
      <use xlink:href="#DejaVuSans-78" transform="translate(210.253906 0)"/>
     </g>
    </g>
    <g id="line2d_34">
     <path d="M 862.5375 88.256563 
L 872.5375 88.256563 
L 882.5375 88.256563 
" style="fill: none; stroke: #ff0000; stroke-width: 1.5; stroke-linecap: square"/>
    </g>
    <g id="text_19">
     <!-- Debian -->
     <g transform="translate(890.5375 91.756563) scale(0.1 -0.1)">
      <use xlink:href="#DejaVuSans-44"/>
      <use xlink:href="#DejaVuSans-65" transform="translate(77.001953 0)"/>
      <use xlink:href="#DejaVuSans-62" transform="translate(138.525391 0)"/>
      <use xlink:href="#DejaVuSans-69" transform="translate(202.001953 0)"/>
      <use xlink:href="#DejaVuSans-61" transform="translate(229.785156 0)"/>
      <use xlink:href="#DejaVuSans-6e" transform="translate(291.064453 0)"/>
     </g>
    </g>
    <g id="line2d_35">
     <path d="M 862.5375 102.934688 
L 872.5375 102.934688 
L 882.5375 102.934688 
" style="fill: none; stroke: #ffa500; stroke-width: 1.5; stroke-linecap: square"/>
    </g>
    <g id="text_20">
     <!-- Ubuntu -->
     <g transform="translate(890.5375 106.434688) scale(0.1 -0.1)">
      <use xlink:href="#DejaVuSans-55"/>
      <use xlink:href="#DejaVuSans-62" transform="translate(73.193359 0)"/>
      <use xlink:href="#DejaVuSans-75" transform="translate(136.669922 0)"/>
      <use xlink:href="#DejaVuSans-6e" transform="translate(200.048828 0)"/>
      <use xlink:href="#DejaVuSans-74" transform="translate(263.427734 0)"/>
      <use xlink:href="#DejaVuSans-75" transform="translate(302.636719 0)"/>
     </g>
    </g>
    <g id="line2d_36">
     <path d="M 862.5375 117.612813 
L 872.5375 117.612813 
L 882.5375 117.612813 
" style="fill: none; stroke: #0000ff; stroke-width: 1.5; stroke-linecap: square"/>
    </g>
    <g id="text_21">
     <!-- Windows Vista -->
     <g transform="translate(890.5375 121.112813) scale(0.1 -0.1)">
      <use xlink:href="#DejaVuSans-57"/>
      <use xlink:href="#DejaVuSans-69" transform="translate(96.626953 0)"/>
      <use xlink:href="#DejaVuSans-6e" transform="translate(124.410156 0)"/>
      <use xlink:href="#DejaVuSans-64" transform="translate(187.789062 0)"/>
      <use xlink:href="#DejaVuSans-6f" transform="translate(251.265625 0)"/>
      <use xlink:href="#DejaVuSans-77" transform="translate(312.447266 0)"/>
      <use xlink:href="#DejaVuSans-73" transform="translate(394.234375 0)"/>
      <use xlink:href="#DejaVuSans-20" transform="translate(446.333984 0)"/>
      <use xlink:href="#DejaVuSans-56" transform="translate(478.121094 0)"/>
      <use xlink:href="#DejaVuSans-69" transform="translate(544.279297 0)"/>
      <use xlink:href="#DejaVuSans-73" transform="translate(572.0625 0)"/>
      <use xlink:href="#DejaVuSans-74" transform="translate(624.162109 0)"/>
      <use xlink:href="#DejaVuSans-61" transform="translate(663.371094 0)"/>
     </g>
    </g>
   </g>
  </g>
 </g>
 <defs>
  <clipPath id="pe8defadf7e">
   <rect x="135" y="60.48" width="837" height="388.08"/>
  </clipPath>
 </defs>
</svg>
